<svg xmlns="http://www.w3.org/2000/svg" xmlns:xlink="http://www.w3.org/1999/xlink" width="520" height="258" viewBox="0 0 520 258" role="img" aria-label="Encontro Paranormal"><rect x="0.5" y="0.5" width="519" height="257" rx="12" fill="#1c2530" stroke="#2d3f57"/><text x="24" y="34" font-family="'Segoe UI',Helvetica,Arial,sans-serif" font-size="17" font-weight="700" fill="#8aa6c8">Encontro Paranormal</text><line x1="24" y1="46" x2="496" y2="46" stroke="#2d3f57"/><circle cx="30" cy="66" r="6" fill="#e0352f"/><text x="44" y="71" font-family="'Segoe UI',Helvetica,Arial,sans-serif" font-size="15" font-weight="600" fill="#dfe6ee">Raziel (Vampiro)</text><text x="344" y="71" text-anchor="end" font-family="'Segoe UI',Helvetica,Arial,sans-serif" font-size="11" fill="#9fb0c4">32/32 HP</text><rect x="24" y="80" width="320" height="12" rx="6" fill="#2a3a4d"/><rect x="24" y="80" width="320" height="12" rx="6" fill="#e0352f"/><text x="24" y="108" font-family="'Segoe UI',Helvetica,Arial,sans-serif" font-size="11" fill="#9fb0c4">Elemento: Sangue</text><text x="24" y="138" font-family="'Segoe UI',Helvetica,Arial,sans-serif" font-size="15" font-weight="600" fill="#dfe6ee">Agente da Ordem</text><text x="344" y="138" text-anchor="end" font-family="'Segoe UI',Helvetica,Arial,sans-serif" font-size="11" fill="#9fb0c4">20/20 HP</text><rect x="24" y="147" width="320" height="12" rx="6" fill="#2a3a4d"/><rect x="24" y="147" width="320" height="12" rx="6" fill="#56b886"/><text x="24" y="178" font-family="'Segoe UI',Helvetica,Arial,sans-serif" font-size="11" fill="#9fb0c4">Derrotadas: 0   ·   Recorde: 0   ·   Rituais: 1</text><text x="24" y="210" font-family="'Segoe UI',Helvetica,Arial,sans-serif" font-size="12.5" fill="#dfe6ee">Uma criatura surge das sombras. Boa sorte, Agente.</text><g><animateTransform attributeName="transform" type="translate" values="0 0;0 -3;0 0" dur="2.6s" repeatCount="indefinite"/><rect x="396.38" y="52.12" width="4.88" height="1.62" fill="#0c0a0c"/><rect x="420.75" y="52.12" width="6.50" height="1.62" fill="#0c0a0c"/><rect x="448.38" y="52.12" width="4.88" height="1.62" fill="#0c0a0c"/><rect x="396.38" y="53.75" width="1.62" height="1.62" fill="#0c0a0c"/><rect x="398.00" y="53.75" width="1.62" height="1.62" fill="#a3262e"/><rect x="399.62" y="53.75" width="4.88" height="1.62" fill="#0c0a0c"/><rect x="417.50" y="53.75" width="4.88" height="1.62" fill="#0c0a0c"/><rect x="422.38" y="53.75" width="1.62" height="1.62" fill="#cf9389"/><rect x="424.00" y="53.75" width="1.62" height="1.62" fill="#9c5a52"/><rect x="425.62" y="53.75" width="6.50" height="1.62" fill="#0c0a0c"/><rect x="445.12" y="53.75" width="4.88" height="1.62" fill="#0c0a0c"/><rect x="450.00" y="53.75" width="1.62" height="1.62" fill="#a3262e"/><rect x="451.62" y="53.75" width="1.62" height="1.62" fill="#0c0a0c"/><rect x="396.38" y="55.38" width="1.62" height="1.62" fill="#0c0a0c"/><rect x="398.00" y="55.38" width="4.88" height="1.62" fill="#a3262e"/><rect x="402.88" y="55.38" width="4.88" height="1.62" fill="#0c0a0c"/><rect x="415.88" y="55.38" width="3.25" height="1.62" fill="#0c0a0c"/><rect x="419.12" y="55.38" width="4.88" height="1.62" fill="#cf9389"/><rect x="424.00" y="55.38" width="6.50" height="1.62" fill="#9c5a52"/><rect x="430.50" y="55.38" width="3.25" height="1.62" fill="#0c0a0c"/><rect x="441.88" y="55.38" width="4.88" height="1.62" fill="#0c0a0c"/><rect x="446.75" y="55.38" width="4.88" height="1.62" fill="#a3262e"/><rect x="451.62" y="55.38" width="1.62" height="1.62" fill="#0c0a0c"/><rect x="396.38" y="57.00" width="1.62" height="1.62" fill="#0c0a0c"/><rect x="398.00" y="57.00" width="8.12" height="1.62" fill="#a3262e"/><rect x="406.12" y="57.00" width="3.25" height="1.62" fill="#0c0a0c"/><rect x="414.25" y="57.00" width="3.25" height="1.62" fill="#0c0a0c"/><rect x="417.50" y="57.00" width="6.50" height="1.62" fill="#cf9389"/><rect x="424.00" y="57.00" width="8.12" height="1.62" fill="#9c5a52"/><rect x="432.12" y="57.00" width="3.25" height="1.62" fill="#0c0a0c"/><rect x="440.25" y="57.00" width="3.25" height="1.62" fill="#0c0a0c"/><rect x="443.50" y="57.00" width="8.12" height="1.62" fill="#a3262e"/><rect x="451.62" y="57.00" width="1.62" height="1.62" fill="#0c0a0c"/><rect x="396.38" y="58.62" width="1.62" height="1.62" fill="#0c0a0c"/><rect x="398.00" y="58.62" width="4.88" height="1.62" fill="#a3262e"/><rect x="402.88" y="58.62" width="1.62" height="1.62" fill="#5d141b"/><rect x="404.50" y="58.62" width="3.25" height="1.62" fill="#a3262e"/><rect x="407.75" y="58.62" width="8.12" height="1.62" fill="#0c0a0c"/><rect x="415.88" y="58.62" width="8.12" height="1.62" fill="#cf9389"/><rect x="424.00" y="58.62" width="9.75" height="1.62" fill="#9c5a52"/><rect x="433.75" y="58.62" width="1.62" height="1.62" fill="#0c0a0c"/><rect x="437.00" y="58.62" width="4.88" height="1.62" fill="#0c0a0c"/><rect x="441.88" y="58.62" width="3.25" height="1.62" fill="#a3262e"/><rect x="445.12" y="58.62" width="1.62" height="1.62" fill="#5d141b"/><rect x="446.75" y="58.62" width="4.88" height="1.62" fill="#a3262e"/><rect x="451.62" y="58.62" width="1.62" height="1.62" fill="#0c0a0c"/><rect x="396.38" y="60.25" width="3.25" height="1.62" fill="#0c0a0c"/><rect x="399.62" y="60.25" width="3.25" height="1.62" fill="#a3262e"/><rect x="402.88" y="60.25" width="4.88" height="1.62" fill="#5d141b"/><rect x="407.75" y="60.25" width="3.25" height="1.62" fill="#a3262e"/><rect x="411.00" y="60.25" width="3.25" height="1.62" fill="#0c0a0c"/><rect x="414.25" y="60.25" width="9.75" height="1.62" fill="#cf9389"/><rect x="424.00" y="60.25" width="9.75" height="1.62" fill="#9c5a52"/><rect x="433.75" y="60.25" width="4.88" height="1.62" fill="#0c0a0c"/><rect x="438.62" y="60.25" width="3.25" height="1.62" fill="#a3262e"/><rect x="441.88" y="60.25" width="4.88" height="1.62" fill="#5d141b"/><rect x="446.75" y="60.25" width="3.25" height="1.62" fill="#a3262e"/><rect x="450.00" y="60.25" width="3.25" height="1.62" fill="#0c0a0c"/><rect x="398.00" y="61.88" width="1.62" height="1.62" fill="#0c0a0c"/><rect x="399.62" y="61.88" width="3.25" height="1.62" fill="#a3262e"/><rect x="402.88" y="61.88" width="6.50" height="1.62" fill="#5d141b"/><rect x="409.38" y="61.88" width="4.88" height="1.62" fill="#a3262e"/><rect x="414.25" y="61.88" width="9.75" height="1.62" fill="#cf9389"/><rect x="424.00" y="61.88" width="11.38" height="1.62" fill="#9c5a52"/><rect x="435.38" y="61.88" width="4.88" height="1.62" fill="#a3262e"/><rect x="440.25" y="61.88" width="6.50" height="1.62" fill="#5d141b"/><rect x="446.75" y="61.88" width="3.25" height="1.62" fill="#a3262e"/><rect x="450.00" y="61.88" width="1.62" height="1.62" fill="#0c0a0c"/><rect x="398.00" y="63.50" width="1.62" height="1.62" fill="#0c0a0c"/><rect x="399.62" y="63.50" width="4.88" height="1.62" fill="#a3262e"/><rect x="404.50" y="63.50" width="8.12" height="1.62" fill="#5d141b"/><rect x="412.62" y="63.50" width="1.62" height="1.62" fill="#a3262e"/><rect x="414.25" y="63.50" width="4.88" height="1.62" fill="#cf9389"/><rect x="419.12" y="63.50" width="3.25" height="1.62" fill="#9c5a52"/><rect x="422.38" y="63.50" width="1.62" height="1.62" fill="#cf9389"/><rect x="424.00" y="63.50" width="11.38" height="1.62" fill="#9c5a52"/><rect x="435.38" y="63.50" width="1.62" height="1.62" fill="#a3262e"/><rect x="437.00" y="63.50" width="8.12" height="1.62" fill="#5d141b"/><rect x="445.12" y="63.50" width="4.88" height="1.62" fill="#a3262e"/><rect x="450.00" y="63.50" width="1.62" height="1.62" fill="#0c0a0c"/><rect x="398.00" y="65.12" width="1.62" height="1.62" fill="#0c0a0c"/><rect x="399.62" y="65.12" width="4.88" height="1.62" fill="#a3262e"/><rect x="404.50" y="65.12" width="9.75" height="1.62" fill="#5d141b"/><rect x="414.25" y="65.12" width="9.75" height="1.62" fill="#cf9389"/><rect x="424.00" y="65.12" width="11.38" height="1.62" fill="#9c5a52"/><rect x="435.38" y="65.12" width="9.75" height="1.62" fill="#5d141b"/><rect x="445.12" y="65.12" width="4.88" height="1.62" fill="#a3262e"/><rect x="450.00" y="65.12" width="1.62" height="1.62" fill="#0c0a0c"/><rect x="398.00" y="66.75" width="1.62" height="1.62" fill="#0c0a0c"/><rect x="399.62" y="66.75" width="4.88" height="1.62" fill="#a3262e"/><rect x="404.50" y="66.75" width="8.12" height="1.62" fill="#5d141b"/><rect x="412.62" y="66.75" width="11.38" height="1.62" fill="#cf9389"/><rect x="424.00" y="66.75" width="11.38" height="1.62" fill="#9c5a52"/><rect x="435.38" y="66.75" width="9.75" height="1.62" fill="#5d141b"/><rect x="445.12" y="66.75" width="4.88" height="1.62" fill="#a3262e"/><rect x="450.00" y="66.75" width="1.62" height="1.62" fill="#0c0a0c"/><rect x="398.00" y="68.38" width="1.62" height="1.62" fill="#0c0a0c"/><rect x="399.62" y="68.38" width="4.88" height="1.62" fill="#a3262e"/><rect x="404.50" y="68.38" width="8.12" height="1.62" fill="#5d141b"/><rect x="412.62" y="68.38" width="11.38" height="1.62" fill="#cf9389"/><rect x="424.00" y="68.38" width="13.00" height="1.62" fill="#9c5a52"/><rect x="437.00" y="68.38" width="8.12" height="1.62" fill="#5d141b"/><rect x="445.12" y="68.38" width="4.88" height="1.62" fill="#a3262e"/><rect x="450.00" y="68.38" width="1.62" height="1.62" fill="#0c0a0c"/><rect x="398.00" y="70.00" width="3.25" height="1.62" fill="#0c0a0c"/><rect x="401.25" y="70.00" width="3.25" height="1.62" fill="#a3262e"/><rect x="404.50" y="70.00" width="9.75" height="1.62" fill="#5d141b"/><rect x="414.25" y="70.00" width="9.75" height="1.62" fill="#cf9389"/><rect x="424.00" y="70.00" width="11.38" height="1.62" fill="#9c5a52"/><rect x="435.38" y="70.00" width="9.75" height="1.62" fill="#5d141b"/><rect x="445.12" y="70.00" width="3.25" height="1.62" fill="#a3262e"/><rect x="448.38" y="70.00" width="3.25" height="1.62" fill="#0c0a0c"/><rect x="399.62" y="71.62" width="1.62" height="1.62" fill="#0c0a0c"/><rect x="401.25" y="71.62" width="3.25" height="1.62" fill="#a3262e"/><rect x="404.50" y="71.62" width="9.75" height="1.62" fill="#5d141b"/><rect x="414.25" y="71.62" width="1.62" height="1.62" fill="#efe6cc"/><rect x="415.88" y="71.62" width="1.62" height="1.62" fill="#160610"/><rect x="417.50" y="71.62" width="1.62" height="1.62" fill="#efe6cc"/><rect x="419.12" y="71.62" width="1.62" height="1.62" fill="#160610"/><rect x="420.75" y="71.62" width="1.62" height="1.62" fill="#efe6cc"/><rect x="422.38" y="71.62" width="1.62" height="1.62" fill="#160610"/><rect x="424.00" y="71.62" width="1.62" height="1.62" fill="#efe6cc"/><rect x="425.62" y="71.62" width="1.62" height="1.62" fill="#160610"/><rect x="427.25" y="71.62" width="1.62" height="1.62" fill="#efe6cc"/><rect x="428.88" y="71.62" width="1.62" height="1.62" fill="#160610"/><rect x="430.50" y="71.62" width="1.62" height="1.62" fill="#efe6cc"/><rect x="432.12" y="71.62" width="1.62" height="1.62" fill="#160610"/><rect x="433.75" y="71.62" width="1.62" height="1.62" fill="#efe6cc"/><rect x="435.38" y="71.62" width="9.75" height="1.62" fill="#5d141b"/><rect x="445.12" y="71.62" width="3.25" height="1.62" fill="#a3262e"/><rect x="448.38" y="71.62" width="1.62" height="1.62" fill="#0c0a0c"/><rect x="399.62" y="73.25" width="1.62" height="1.62" fill="#0c0a0c"/><rect x="401.25" y="73.25" width="4.88" height="1.62" fill="#a3262e"/><rect x="406.12" y="73.25" width="8.12" height="1.62" fill="#5d141b"/><rect x="414.25" y="73.25" width="1.62" height="1.62" fill="#efe6cc"/><rect x="415.88" y="73.25" width="1.62" height="1.62" fill="#160610"/><rect x="417.50" y="73.25" width="1.62" height="1.62" fill="#efe6cc"/><rect x="419.12" y="73.25" width="1.62" height="1.62" fill="#160610"/><rect x="420.75" y="73.25" width="1.62" height="1.62" fill="#efe6cc"/><rect x="422.38" y="73.25" width="1.62" height="1.62" fill="#160610"/><rect x="424.00" y="73.25" width="1.62" height="1.62" fill="#efe6cc"/><rect x="425.62" y="73.25" width="1.62" height="1.62" fill="#160610"/><rect x="427.25" y="73.25" width="1.62" height="1.62" fill="#efe6cc"/><rect x="428.88" y="73.25" width="1.62" height="1.62" fill="#160610"/><rect x="430.50" y="73.25" width="1.62" height="1.62" fill="#efe6cc"/><rect x="432.12" y="73.25" width="1.62" height="1.62" fill="#160610"/><rect x="433.75" y="73.25" width="1.62" height="1.62" fill="#efe6cc"/><rect x="435.38" y="73.25" width="8.12" height="1.62" fill="#5d141b"/><rect x="443.50" y="73.25" width="4.88" height="1.62" fill="#a3262e"/><rect x="448.38" y="73.25" width="1.62" height="1.62" fill="#0c0a0c"/><rect x="399.62" y="74.88" width="1.62" height="1.62" fill="#0c0a0c"/><rect x="401.25" y="74.88" width="4.88" height="1.62" fill="#a3262e"/><rect x="406.12" y="74.88" width="8.12" height="1.62" fill="#5d141b"/><rect x="414.25" y="74.88" width="21.12" height="1.62" fill="#160610"/><rect x="435.38" y="74.88" width="8.12" height="1.62" fill="#5d141b"/><rect x="443.50" y="74.88" width="4.88" height="1.62" fill="#a3262e"/><rect x="448.38" y="74.88" width="1.62" height="1.62" fill="#0c0a0c"/><rect x="399.62" y="76.50" width="1.62" height="1.62" fill="#0c0a0c"/><rect x="401.25" y="76.50" width="4.88" height="1.62" fill="#a3262e"/><rect x="406.12" y="76.50" width="8.12" height="1.62" fill="#5d141b"/><rect x="414.25" y="76.50" width="1.62" height="1.62" fill="#160610"/><rect x="415.88" y="76.50" width="1.62" height="1.62" fill="#efe6cc"/><rect x="417.50" y="76.50" width="1.62" height="1.62" fill="#160610"/><rect x="419.12" y="76.50" width="1.62" height="1.62" fill="#efe6cc"/><rect x="420.75" y="76.50" width="1.62" height="1.62" fill="#160610"/><rect x="422.38" y="76.50" width="1.62" height="1.62" fill="#efe6cc"/><rect x="424.00" y="76.50" width="1.62" height="1.62" fill="#160610"/><rect x="425.62" y="76.50" width="1.62" height="1.62" fill="#efe6cc"/><rect x="427.25" y="76.50" width="1.62" height="1.62" fill="#160610"/><rect x="428.88" y="76.50" width="1.62" height="1.62" fill="#efe6cc"/><rect x="430.50" y="76.50" width="1.62" height="1.62" fill="#160610"/><rect x="432.12" y="76.50" width="1.62" height="1.62" fill="#efe6cc"/><rect x="433.75" y="76.50" width="1.62" height="1.62" fill="#160610"/><rect x="435.38" y="76.50" width="8.12" height="1.62" fill="#5d141b"/><rect x="443.50" y="76.50" width="4.88" height="1.62" fill="#a3262e"/><rect x="448.38" y="76.50" width="1.62" height="1.62" fill="#0c0a0c"/><rect x="399.62" y="78.12" width="1.62" height="1.62" fill="#0c0a0c"/><rect x="401.25" y="78.12" width="4.88" height="1.62" fill="#a3262e"/><rect x="406.12" y="78.12" width="8.12" height="1.62" fill="#5d141b"/><rect x="414.25" y="78.12" width="1.62" height="1.62" fill="#160610"/><rect x="415.88" y="78.12" width="1.62" height="1.62" fill="#efe6cc"/><rect x="417.50" y="78.12" width="1.62" height="1.62" fill="#160610"/><rect x="419.12" y="78.12" width="1.62" height="1.62" fill="#efe6cc"/><rect x="420.75" y="78.12" width="1.62" height="1.62" fill="#160610"/><rect x="422.38" y="78.12" width="1.62" height="1.62" fill="#efe6cc"/><rect x="424.00" y="78.12" width="1.62" height="1.62" fill="#160610"/><rect x="425.62" y="78.12" width="1.62" height="1.62" fill="#efe6cc"/><rect x="427.25" y="78.12" width="1.62" height="1.62" fill="#160610"/><rect x="428.88" y="78.12" width="1.62" height="1.62" fill="#efe6cc"/><rect x="430.50" y="78.12" width="1.62" height="1.62" fill="#160610"/><rect x="432.12" y="78.12" width="1.62" height="1.62" fill="#efe6cc"/><rect x="433.75" y="78.12" width="1.62" height="1.62" fill="#160610"/><rect x="435.38" y="78.12" width="8.12" height="1.62" fill="#5d141b"/><rect x="443.50" y="78.12" width="4.88" height="1.62" fill="#a3262e"/><rect x="448.38" y="78.12" width="1.62" height="1.62" fill="#0c0a0c"/><rect x="399.62" y="79.75" width="1.62" height="1.62" fill="#0c0a0c"/><rect x="401.25" y="79.75" width="4.88" height="1.62" fill="#a3262e"/><rect x="406.12" y="79.75" width="11.38" height="1.62" fill="#5d141b"/><rect x="417.50" y="79.75" width="6.50" height="1.62" fill="#cf9389"/><rect x="424.00" y="79.75" width="8.12" height="1.62" fill="#9c5a52"/><rect x="432.12" y="79.75" width="11.38" height="1.62" fill="#5d141b"/><rect x="443.50" y="79.75" width="4.88" height="1.62" fill="#a3262e"/><rect x="448.38" y="79.75" width="1.62" height="1.62" fill="#0c0a0c"/><rect x="399.62" y="81.38" width="3.25" height="1.62" fill="#0c0a0c"/><rect x="402.88" y="81.38" width="4.88" height="1.62" fill="#a3262e"/><rect x="407.75" y="81.38" width="11.38" height="1.62" fill="#5d141b"/><rect x="419.12" y="81.38" width="4.88" height="1.62" fill="#cf9389"/><rect x="424.00" y="81.38" width="6.50" height="1.62" fill="#9c5a52"/><rect x="430.50" y="81.38" width="11.38" height="1.62" fill="#5d141b"/><rect x="441.88" y="81.38" width="4.88" height="1.62" fill="#a3262e"/><rect x="446.75" y="81.38" width="3.25" height="1.62" fill="#0c0a0c"/><rect x="394.75" y="83.00" width="6.50" height="1.62" fill="#0c0a0c"/><rect x="401.25" y="83.00" width="1.62" height="1.62" fill="#48121a"/><rect x="402.88" y="83.00" width="4.88" height="1.62" fill="#a3262e"/><rect x="407.75" y="83.00" width="16.25" height="1.62" fill="#5d141b"/><rect x="424.00" y="83.00" width="1.62" height="1.62" fill="#9c5a52"/><rect x="425.62" y="83.00" width="16.25" height="1.62" fill="#5d141b"/><rect x="441.88" y="83.00" width="4.88" height="1.62" fill="#a3262e"/><rect x="446.75" y="83.00" width="1.62" height="1.62" fill="#48121a"/><rect x="448.38" y="83.00" width="6.50" height="1.62" fill="#0c0a0c"/><rect x="391.50" y="84.62" width="4.88" height="1.62" fill="#0c0a0c"/><rect x="396.38" y="84.62" width="4.88" height="1.62" fill="#48121a"/><rect x="401.25" y="84.62" width="1.62" height="1.62" fill="#6b1c24"/><rect x="402.88" y="84.62" width="4.88" height="1.62" fill="#48121a"/><rect x="407.75" y="84.62" width="34.12" height="1.62" fill="#a3262e"/><rect x="441.88" y="84.62" width="4.88" height="1.62" fill="#48121a"/><rect x="446.75" y="84.62" width="1.62" height="1.62" fill="#6b1c24"/><rect x="448.38" y="84.62" width="4.88" height="1.62" fill="#48121a"/><rect x="453.25" y="84.62" width="4.88" height="1.62" fill="#0c0a0c"/><rect x="389.88" y="86.25" width="3.25" height="1.62" fill="#0c0a0c"/><rect x="393.12" y="86.25" width="17.88" height="1.62" fill="#6b1c24"/><rect x="411.00" y="86.25" width="9.75" height="1.62" fill="#2a2230"/><rect x="420.75" y="86.25" width="8.12" height="1.62" fill="#181219"/><rect x="428.88" y="86.25" width="9.75" height="1.62" fill="#0e0a11"/><rect x="438.62" y="86.25" width="17.88" height="1.62" fill="#6b1c24"/><rect x="456.50" y="86.25" width="3.25" height="1.62" fill="#0c0a0c"/><rect x="389.88" y="87.88" width="1.62" height="1.62" fill="#0c0a0c"/><rect x="391.50" y="87.88" width="21.12" height="1.62" fill="#6b1c24"/><rect x="412.62" y="87.88" width="8.12" height="1.62" fill="#2a2230"/><rect x="420.75" y="87.88" width="8.12" height="1.62" fill="#181219"/><rect x="428.88" y="87.88" width="8.12" height="1.62" fill="#0e0a11"/><rect x="437.00" y="87.88" width="21.12" height="1.62" fill="#6b1c24"/><rect x="458.12" y="87.88" width="1.62" height="1.62" fill="#0c0a0c"/><rect x="389.88" y="89.50" width="1.62" height="1.62" fill="#0c0a0c"/><rect x="391.50" y="89.50" width="1.62" height="1.62" fill="#48121a"/><rect x="393.12" y="89.50" width="8.12" height="1.62" fill="#6b1c24"/><rect x="401.25" y="89.50" width="1.62" height="1.62" fill="#3a0d12"/><rect x="402.88" y="89.50" width="8.12" height="1.62" fill="#6b1c24"/><rect x="411.00" y="89.50" width="1.62" height="1.62" fill="#48121a"/><rect x="412.62" y="89.50" width="8.12" height="1.62" fill="#2a2230"/><rect x="420.75" y="89.50" width="8.12" height="1.62" fill="#181219"/><rect x="428.88" y="89.50" width="8.12" height="1.62" fill="#0e0a11"/><rect x="437.00" y="89.50" width="1.62" height="1.62" fill="#48121a"/><rect x="438.62" y="89.50" width="8.12" height="1.62" fill="#6b1c24"/><rect x="446.75" y="89.50" width="1.62" height="1.62" fill="#3a0d12"/><rect x="448.38" y="89.50" width="8.12" height="1.62" fill="#6b1c24"/><rect x="456.50" y="89.50" width="1.62" height="1.62" fill="#48121a"/><rect x="458.12" y="89.50" width="1.62" height="1.62" fill="#0c0a0c"/><rect x="389.88" y="91.12" width="3.25" height="1.62" fill="#0c0a0c"/><rect x="393.12" y="91.12" width="17.88" height="1.62" fill="#3a0d12"/><rect x="411.00" y="91.12" width="9.75" height="1.62" fill="#2a2230"/><rect x="420.75" y="91.12" width="8.12" height="1.62" fill="#181219"/><rect x="428.88" y="91.12" width="9.75" height="1.62" fill="#0e0a11"/><rect x="438.62" y="91.12" width="17.88" height="1.62" fill="#3a0d12"/><rect x="456.50" y="91.12" width="3.25" height="1.62" fill="#0c0a0c"/><rect x="389.88" y="92.75" width="1.62" height="1.62" fill="#0c0a0c"/><rect x="391.50" y="92.75" width="19.50" height="1.62" fill="#3a0d12"/><rect x="411.00" y="92.75" width="1.62" height="1.62" fill="#cda24a"/><rect x="412.62" y="92.75" width="4.88" height="1.62" fill="#2a2230"/><rect x="417.50" y="92.75" width="14.62" height="1.62" fill="#5d141b"/><rect x="432.12" y="92.75" width="4.88" height="1.62" fill="#0e0a11"/><rect x="437.00" y="92.75" width="1.62" height="1.62" fill="#cda24a"/><rect x="438.62" y="92.75" width="19.50" height="1.62" fill="#3a0d12"/><rect x="458.12" y="92.75" width="1.62" height="1.62" fill="#0c0a0c"/><rect x="389.88" y="94.38" width="3.25" height="1.62" fill="#0c0a0c"/><rect x="393.12" y="94.38" width="13.00" height="1.62" fill="#3a0d12"/><rect x="406.12" y="94.38" width="1.62" height="1.62" fill="#cda24a"/><rect x="407.75" y="94.38" width="3.25" height="1.62" fill="#3a0d12"/><rect x="411.00" y="94.38" width="6.50" height="1.62" fill="#2a2230"/><rect x="417.50" y="94.38" width="3.25" height="1.62" fill="#5d141b"/><rect x="420.75" y="94.38" width="8.12" height="1.62" fill="#a3262e"/><rect x="428.88" y="94.38" width="3.25" height="1.62" fill="#5d141b"/><rect x="432.12" y="94.38" width="6.50" height="1.62" fill="#0e0a11"/><rect x="438.62" y="94.38" width="3.25" height="1.62" fill="#3a0d12"/><rect x="441.88" y="94.38" width="1.62" height="1.62" fill="#cda24a"/><rect x="443.50" y="94.38" width="13.00" height="1.62" fill="#3a0d12"/><rect x="456.50" y="94.38" width="3.25" height="1.62" fill="#0c0a0c"/><rect x="391.50" y="96.00" width="1.62" height="1.62" fill="#0c0a0c"/><rect x="393.12" y="96.00" width="1.62" height="1.62" fill="#3a0d12"/><rect x="394.75" y="96.00" width="1.62" height="1.62" fill="#0c0a0c"/><rect x="396.38" y="96.00" width="1.62" height="1.62" fill="#3a0d12"/><rect x="398.00" y="96.00" width="1.62" height="1.62" fill="#181219"/><rect x="399.62" y="96.00" width="4.88" height="1.62" fill="#3a0d12"/><rect x="404.50" y="96.00" width="1.62" height="1.62" fill="#181219"/><rect x="406.12" y="96.00" width="1.62" height="1.62" fill="#3a0d12"/><rect x="407.75" y="96.00" width="1.62" height="1.62" fill="#2a2230"/><rect x="409.38" y="96.00" width="1.62" height="1.62" fill="#3a0d12"/><rect x="411.00" y="96.00" width="6.50" height="1.62" fill="#2a2230"/><rect x="417.50" y="96.00" width="3.25" height="1.62" fill="#5d141b"/><rect x="420.75" y="96.00" width="8.12" height="1.62" fill="#a3262e"/><rect x="428.88" y="96.00" width="3.25" height="1.62" fill="#5d141b"/><rect x="432.12" y="96.00" width="6.50" height="1.62" fill="#0e0a11"/><rect x="438.62" y="96.00" width="1.62" height="1.62" fill="#3a0d12"/><rect x="440.25" y="96.00" width="1.62" height="1.62" fill="#0e0a11"/><rect x="441.88" y="96.00" width="1.62" height="1.62" fill="#3a0d12"/><rect x="443.50" y="96.00" width="1.62" height="1.62" fill="#0e0a11"/><rect x="445.12" y="96.00" width="4.88" height="1.62" fill="#3a0d12"/><rect x="450.00" y="96.00" width="1.62" height="1.62" fill="#0e0a11"/><rect x="451.62" y="96.00" width="1.62" height="1.62" fill="#3a0d12"/><rect x="453.25" y="96.00" width="1.62" height="1.62" fill="#0c0a0c"/><rect x="454.88" y="96.00" width="1.62" height="1.62" fill="#3a0d12"/><rect x="456.50" y="96.00" width="1.62" height="1.62" fill="#0c0a0c"/><rect x="391.50" y="97.62" width="4.88" height="1.62" fill="#0c0a0c"/><rect x="396.38" y="97.62" width="11.38" height="1.62" fill="#181219"/><rect x="407.75" y="97.62" width="9.75" height="1.62" fill="#2a2230"/><rect x="417.50" y="97.62" width="1.62" height="1.62" fill="#cda24a"/><rect x="419.12" y="97.62" width="1.62" height="1.62" fill="#5d141b"/><rect x="420.75" y="97.62" width="8.12" height="1.62" fill="#a3262e"/><rect x="428.88" y="97.62" width="1.62" height="1.62" fill="#5d141b"/><rect x="430.50" y="97.62" width="1.62" height="1.62" fill="#cda24a"/><rect x="432.12" y="97.62" width="21.12" height="1.62" fill="#0e0a11"/><rect x="453.25" y="97.62" width="4.88" height="1.62" fill="#0c0a0c"/><rect x="394.75" y="99.25" width="1.62" height="1.62" fill="#0c0a0c"/><rect x="396.38" y="99.25" width="11.38" height="1.62" fill="#181219"/><rect x="407.75" y="99.25" width="9.75" height="1.62" fill="#2a2230"/><rect x="417.50" y="99.25" width="3.25" height="1.62" fill="#5d141b"/><rect x="420.75" y="99.25" width="3.25" height="1.62" fill="#a3262e"/><rect x="424.00" y="99.25" width="1.62" height="1.62" fill="#cda24a"/><rect x="425.62" y="99.25" width="3.25" height="1.62" fill="#a3262e"/><rect x="428.88" y="99.25" width="3.25" height="1.62" fill="#5d141b"/><rect x="432.12" y="99.25" width="21.12" height="1.62" fill="#0e0a11"/><rect x="453.25" y="99.25" width="1.62" height="1.62" fill="#0c0a0c"/><rect x="394.75" y="100.88" width="1.62" height="1.62" fill="#0c0a0c"/><rect x="396.38" y="100.88" width="11.38" height="1.62" fill="#181219"/><rect x="407.75" y="100.88" width="4.88" height="1.62" fill="#2a2230"/><rect x="412.62" y="100.88" width="1.62" height="1.62" fill="#cda24a"/><rect x="414.25" y="100.88" width="3.25" height="1.62" fill="#2a2230"/><rect x="417.50" y="100.88" width="3.25" height="1.62" fill="#5d141b"/><rect x="420.75" y="100.88" width="8.12" height="1.62" fill="#a3262e"/><rect x="428.88" y="100.88" width="3.25" height="1.62" fill="#5d141b"/><rect x="432.12" y="100.88" width="3.25" height="1.62" fill="#0e0a11"/><rect x="435.38" y="100.88" width="1.62" height="1.62" fill="#cda24a"/><rect x="437.00" y="100.88" width="16.25" height="1.62" fill="#0e0a11"/><rect x="453.25" y="100.88" width="1.62" height="1.62" fill="#0c0a0c"/><rect x="394.75" y="102.50" width="1.62" height="1.62" fill="#0c0a0c"/><rect x="396.38" y="102.50" width="11.38" height="1.62" fill="#181219"/><rect x="407.75" y="102.50" width="9.75" height="1.62" fill="#2a2230"/><rect x="417.50" y="102.50" width="3.25" height="1.62" fill="#5d141b"/><rect x="420.75" y="102.50" width="8.12" height="1.62" fill="#a3262e"/><rect x="428.88" y="102.50" width="3.25" height="1.62" fill="#5d141b"/><rect x="432.12" y="102.50" width="21.12" height="1.62" fill="#0e0a11"/><rect x="453.25" y="102.50" width="1.62" height="1.62" fill="#0c0a0c"/><rect x="394.75" y="104.12" width="1.62" height="1.62" fill="#0c0a0c"/><rect x="396.38" y="104.12" width="11.38" height="1.62" fill="#181219"/><rect x="407.75" y="104.12" width="8.12" height="1.62" fill="#2a2230"/><rect x="415.88" y="104.12" width="1.62" height="1.62" fill="#181219"/><rect x="417.50" y="104.12" width="1.62" height="1.62" fill="#5d141b"/><rect x="419.12" y="104.12" width="1.62" height="1.62" fill="#cda24a"/><rect x="420.75" y="104.12" width="8.12" height="1.62" fill="#a3262e"/><rect x="428.88" y="104.12" width="1.62" height="1.62" fill="#cda24a"/><rect x="430.50" y="104.12" width="1.62" height="1.62" fill="#5d141b"/><rect x="432.12" y="104.12" width="1.62" height="1.62" fill="#181219"/><rect x="433.75" y="104.12" width="19.50" height="1.62" fill="#0e0a11"/><rect x="453.25" y="104.12" width="1.62" height="1.62" fill="#0c0a0c"/><rect x="394.75" y="105.75" width="1.62" height="1.62" fill="#0c0a0c"/><rect x="396.38" y="105.75" width="11.38" height="1.62" fill="#181219"/><rect x="407.75" y="105.75" width="8.12" height="1.62" fill="#2a2230"/><rect x="415.88" y="105.75" width="1.62" height="1.62" fill="#181219"/><rect x="417.50" y="105.75" width="3.25" height="1.62" fill="#5d141b"/><rect x="420.75" y="105.75" width="3.25" height="1.62" fill="#a3262e"/><rect x="424.00" y="105.75" width="1.62" height="1.62" fill="#cda24a"/><rect x="425.62" y="105.75" width="3.25" height="1.62" fill="#a3262e"/><rect x="428.88" y="105.75" width="3.25" height="1.62" fill="#5d141b"/><rect x="432.12" y="105.75" width="1.62" height="1.62" fill="#181219"/><rect x="433.75" y="105.75" width="19.50" height="1.62" fill="#0e0a11"/><rect x="453.25" y="105.75" width="1.62" height="1.62" fill="#0c0a0c"/><rect x="394.75" y="107.38" width="1.62" height="1.62" fill="#0c0a0c"/><rect x="396.38" y="107.38" width="11.38" height="1.62" fill="#181219"/><rect x="407.75" y="107.38" width="8.12" height="1.62" fill="#2a2230"/><rect x="415.88" y="107.38" width="4.88" height="1.62" fill="#5d141b"/><rect x="420.75" y="107.38" width="8.12" height="1.62" fill="#a3262e"/><rect x="428.88" y="107.38" width="4.88" height="1.62" fill="#5d141b"/><rect x="433.75" y="107.38" width="19.50" height="1.62" fill="#0e0a11"/><rect x="453.25" y="107.38" width="1.62" height="1.62" fill="#0c0a0c"/><rect x="394.75" y="109.00" width="1.62" height="1.62" fill="#0c0a0c"/><rect x="396.38" y="109.00" width="11.38" height="1.62" fill="#181219"/><rect x="407.75" y="109.00" width="8.12" height="1.62" fill="#2a2230"/><rect x="415.88" y="109.00" width="4.88" height="1.62" fill="#5d141b"/><rect x="420.75" y="109.00" width="8.12" height="1.62" fill="#a3262e"/><rect x="428.88" y="109.00" width="4.88" height="1.62" fill="#5d141b"/><rect x="433.75" y="109.00" width="19.50" height="1.62" fill="#0e0a11"/><rect x="453.25" y="109.00" width="1.62" height="1.62" fill="#0c0a0c"/><rect x="394.75" y="110.62" width="1.62" height="1.62" fill="#0c0a0c"/><rect x="396.38" y="110.62" width="11.38" height="1.62" fill="#181219"/><rect x="407.75" y="110.62" width="6.50" height="1.62" fill="#2a2230"/><rect x="414.25" y="110.62" width="1.62" height="1.62" fill="#181219"/><rect x="415.88" y="110.62" width="4.88" height="1.62" fill="#5d141b"/><rect x="420.75" y="110.62" width="8.12" height="1.62" fill="#a3262e"/><rect x="428.88" y="110.62" width="4.88" height="1.62" fill="#5d141b"/><rect x="433.75" y="110.62" width="1.62" height="1.62" fill="#181219"/><rect x="435.38" y="110.62" width="17.88" height="1.62" fill="#0e0a11"/><rect x="453.25" y="110.62" width="1.62" height="1.62" fill="#0c0a0c"/><rect x="394.75" y="112.25" width="1.62" height="1.62" fill="#0c0a0c"/><rect x="396.38" y="112.25" width="11.38" height="1.62" fill="#181219"/><rect x="407.75" y="112.25" width="6.50" height="1.62" fill="#2a2230"/><rect x="414.25" y="112.25" width="1.62" height="1.62" fill="#181219"/><rect x="415.88" y="112.25" width="4.88" height="1.62" fill="#5d141b"/><rect x="420.75" y="112.25" width="8.12" height="1.62" fill="#a3262e"/><rect x="428.88" y="112.25" width="4.88" height="1.62" fill="#5d141b"/><rect x="433.75" y="112.25" width="1.62" height="1.62" fill="#181219"/><rect x="435.38" y="112.25" width="17.88" height="1.62" fill="#0e0a11"/><rect x="453.25" y="112.25" width="1.62" height="1.62" fill="#0c0a0c"/><rect x="394.75" y="113.88" width="1.62" height="1.62" fill="#0c0a0c"/><rect x="396.38" y="113.88" width="11.38" height="1.62" fill="#181219"/><rect x="407.75" y="113.88" width="6.50" height="1.62" fill="#2a2230"/><rect x="414.25" y="113.88" width="1.62" height="1.62" fill="#181219"/><rect x="415.88" y="113.88" width="4.88" height="1.62" fill="#5d141b"/><rect x="420.75" y="113.88" width="8.12" height="1.62" fill="#a3262e"/><rect x="428.88" y="113.88" width="4.88" height="1.62" fill="#5d141b"/><rect x="433.75" y="113.88" width="1.62" height="1.62" fill="#181219"/><rect x="435.38" y="113.88" width="17.88" height="1.62" fill="#0e0a11"/><rect x="453.25" y="113.88" width="1.62" height="1.62" fill="#0c0a0c"/><rect x="394.75" y="115.50" width="1.62" height="1.62" fill="#0c0a0c"/><rect x="396.38" y="115.50" width="11.38" height="1.62" fill="#181219"/><rect x="407.75" y="115.50" width="4.88" height="1.62" fill="#2a2230"/><rect x="412.62" y="115.50" width="3.25" height="1.62" fill="#181219"/><rect x="415.88" y="115.50" width="4.88" height="1.62" fill="#5d141b"/><rect x="420.75" y="115.50" width="8.12" height="1.62" fill="#a3262e"/><rect x="428.88" y="115.50" width="4.88" height="1.62" fill="#5d141b"/><rect x="433.75" y="115.50" width="1.62" height="1.62" fill="#181219"/><rect x="435.38" y="115.50" width="17.88" height="1.62" fill="#0e0a11"/><rect x="453.25" y="115.50" width="1.62" height="1.62" fill="#0c0a0c"/><rect x="393.12" y="117.12" width="3.25" height="1.62" fill="#0c0a0c"/><rect x="396.38" y="117.12" width="11.38" height="1.62" fill="#181219"/><rect x="407.75" y="117.12" width="4.88" height="1.62" fill="#2a2230"/><rect x="412.62" y="117.12" width="3.25" height="1.62" fill="#181219"/><rect x="415.88" y="117.12" width="4.88" height="1.62" fill="#5d141b"/><rect x="420.75" y="117.12" width="8.12" height="1.62" fill="#a3262e"/><rect x="428.88" y="117.12" width="4.88" height="1.62" fill="#5d141b"/><rect x="433.75" y="117.12" width="3.25" height="1.62" fill="#181219"/><rect x="437.00" y="117.12" width="16.25" height="1.62" fill="#0e0a11"/><rect x="453.25" y="117.12" width="3.25" height="1.62" fill="#0c0a0c"/><rect x="393.12" y="118.75" width="1.62" height="1.62" fill="#0c0a0c"/><rect x="394.75" y="118.75" width="1.62" height="1.62" fill="#2a2230"/><rect x="396.38" y="118.75" width="11.38" height="1.62" fill="#181219"/><rect x="407.75" y="118.75" width="4.88" height="1.62" fill="#2a2230"/><rect x="412.62" y="118.75" width="3.25" height="1.62" fill="#181219"/><rect x="415.88" y="118.75" width="4.88" height="1.62" fill="#5d141b"/><rect x="420.75" y="118.75" width="8.12" height="1.62" fill="#a3262e"/><rect x="428.88" y="118.75" width="4.88" height="1.62" fill="#5d141b"/><rect x="433.75" y="118.75" width="3.25" height="1.62" fill="#181219"/><rect x="437.00" y="118.75" width="17.88" height="1.62" fill="#0e0a11"/><rect x="454.88" y="118.75" width="1.62" height="1.62" fill="#0c0a0c"/><rect x="393.12" y="120.38" width="1.62" height="1.62" fill="#0c0a0c"/><rect x="394.75" y="120.38" width="1.62" height="1.62" fill="#2a2230"/><rect x="396.38" y="120.38" width="11.38" height="1.62" fill="#181219"/><rect x="407.75" y="120.38" width="4.88" height="1.62" fill="#2a2230"/><rect x="412.62" y="120.38" width="3.25" height="1.62" fill="#181219"/><rect x="415.88" y="120.38" width="4.88" height="1.62" fill="#5d141b"/><rect x="420.75" y="120.38" width="8.12" height="1.62" fill="#a3262e"/><rect x="428.88" y="120.38" width="4.88" height="1.62" fill="#5d141b"/><rect x="433.75" y="120.38" width="3.25" height="1.62" fill="#181219"/><rect x="437.00" y="120.38" width="17.88" height="1.62" fill="#0e0a11"/><rect x="454.88" y="120.38" width="1.62" height="1.62" fill="#0c0a0c"/><rect x="391.50" y="122.00" width="3.25" height="1.62" fill="#0c0a0c"/><rect x="394.75" y="122.00" width="1.62" height="1.62" fill="#2a2230"/><rect x="396.38" y="122.00" width="11.38" height="1.62" fill="#181219"/><rect x="407.75" y="122.00" width="3.25" height="1.62" fill="#2a2230"/><rect x="411.00" y="122.00" width="4.88" height="1.62" fill="#181219"/><rect x="415.88" y="122.00" width="4.88" height="1.62" fill="#5d141b"/><rect x="420.75" y="122.00" width="8.12" height="1.62" fill="#a3262e"/><rect x="428.88" y="122.00" width="4.88" height="1.62" fill="#5d141b"/><rect x="433.75" y="122.00" width="3.25" height="1.62" fill="#181219"/><rect x="437.00" y="122.00" width="17.88" height="1.62" fill="#0e0a11"/><rect x="454.88" y="122.00" width="1.62" height="1.62" fill="#0c0a0c"/><rect x="391.50" y="123.62" width="1.62" height="1.62" fill="#0c0a0c"/><rect x="393.12" y="123.62" width="3.25" height="1.62" fill="#2a2230"/><rect x="396.38" y="123.62" width="1.62" height="1.62" fill="#0c0a0c"/><rect x="398.00" y="123.62" width="8.12" height="1.62" fill="#dccfc3"/><rect x="406.12" y="123.62" width="1.62" height="1.62" fill="#0c0a0c"/><rect x="407.75" y="123.62" width="3.25" height="1.62" fill="#2a2230"/><rect x="411.00" y="123.62" width="6.50" height="1.62" fill="#181219"/><rect x="417.50" y="123.62" width="4.88" height="1.62" fill="#5d141b"/><rect x="422.38" y="123.62" width="4.88" height="1.62" fill="#a3262e"/><rect x="427.25" y="123.62" width="4.88" height="1.62" fill="#5d141b"/><rect x="432.12" y="123.62" width="6.50" height="1.62" fill="#181219"/><rect x="438.62" y="123.62" width="3.25" height="1.62" fill="#0e0a11"/><rect x="441.88" y="123.62" width="1.62" height="1.62" fill="#0c0a0c"/><rect x="443.50" y="123.62" width="8.12" height="1.62" fill="#dccfc3"/><rect x="451.62" y="123.62" width="1.62" height="1.62" fill="#0c0a0c"/><rect x="453.25" y="123.62" width="1.62" height="1.62" fill="#0e0a11"/><rect x="454.88" y="123.62" width="3.25" height="1.62" fill="#0c0a0c"/><rect x="391.50" y="125.25" width="1.62" height="1.62" fill="#0c0a0c"/><rect x="393.12" y="125.25" width="3.25" height="1.62" fill="#2a2230"/><rect x="396.38" y="125.25" width="11.38" height="1.62" fill="#dccfc3"/><rect x="407.75" y="125.25" width="3.25" height="1.62" fill="#2a2230"/><rect x="411.00" y="125.25" width="6.50" height="1.62" fill="#181219"/><rect x="417.50" y="125.25" width="4.88" height="1.62" fill="#5d141b"/><rect x="422.38" y="125.25" width="4.88" height="1.62" fill="#a3262e"/><rect x="427.25" y="125.25" width="4.88" height="1.62" fill="#5d141b"/><rect x="432.12" y="125.25" width="6.50" height="1.62" fill="#181219"/><rect x="438.62" y="125.25" width="3.25" height="1.62" fill="#0e0a11"/><rect x="441.88" y="125.25" width="11.38" height="1.62" fill="#dccfc3"/><rect x="453.25" y="125.25" width="3.25" height="1.62" fill="#0e0a11"/><rect x="456.50" y="125.25" width="1.62" height="1.62" fill="#0c0a0c"/><rect x="389.88" y="126.88" width="3.25" height="1.62" fill="#0c0a0c"/><rect x="393.12" y="126.88" width="3.25" height="1.62" fill="#2a2230"/><rect x="396.38" y="126.88" width="11.38" height="1.62" fill="#dccfc3"/><rect x="407.75" y="126.88" width="1.62" height="1.62" fill="#2a2230"/><rect x="409.38" y="126.88" width="9.75" height="1.62" fill="#181219"/><rect x="419.12" y="126.88" width="3.25" height="1.62" fill="#5d141b"/><rect x="422.38" y="126.88" width="4.88" height="1.62" fill="#a3262e"/><rect x="427.25" y="126.88" width="3.25" height="1.62" fill="#5d141b"/><rect x="430.50" y="126.88" width="8.12" height="1.62" fill="#181219"/><rect x="438.62" y="126.88" width="3.25" height="1.62" fill="#0e0a11"/><rect x="441.88" y="126.88" width="11.38" height="1.62" fill="#dccfc3"/><rect x="453.25" y="126.88" width="3.25" height="1.62" fill="#0e0a11"/><rect x="456.50" y="126.88" width="1.62" height="1.62" fill="#0c0a0c"/><rect x="389.88" y="128.50" width="1.62" height="1.62" fill="#0c0a0c"/><rect x="391.50" y="128.50" width="4.88" height="1.62" fill="#2a2230"/><rect x="396.38" y="128.50" width="11.38" height="1.62" fill="#dccfc3"/><rect x="407.75" y="128.50" width="1.62" height="1.62" fill="#2a2230"/><rect x="409.38" y="128.50" width="9.75" height="1.62" fill="#181219"/><rect x="419.12" y="128.50" width="4.88" height="1.62" fill="#5d141b"/><rect x="424.00" y="128.50" width="1.62" height="1.62" fill="#a3262e"/><rect x="425.62" y="128.50" width="4.88" height="1.62" fill="#5d141b"/><rect x="430.50" y="128.50" width="9.75" height="1.62" fill="#181219"/><rect x="440.25" y="128.50" width="1.62" height="1.62" fill="#0e0a11"/><rect x="441.88" y="128.50" width="11.38" height="1.62" fill="#dccfc3"/><rect x="453.25" y="128.50" width="3.25" height="1.62" fill="#0e0a11"/><rect x="456.50" y="128.50" width="3.25" height="1.62" fill="#0c0a0c"/><rect x="389.88" y="130.12" width="1.62" height="1.62" fill="#0c0a0c"/><rect x="391.50" y="130.12" width="4.88" height="1.62" fill="#2a2230"/><rect x="396.38" y="130.12" width="1.62" height="1.62" fill="#dccfc3"/><rect x="398.00" y="130.12" width="8.12" height="1.62" fill="#a99e92"/><rect x="406.12" y="130.12" width="1.62" height="1.62" fill="#dccfc3"/><rect x="407.75" y="130.12" width="1.62" height="1.62" fill="#2a2230"/><rect x="409.38" y="130.12" width="11.38" height="1.62" fill="#181219"/><rect x="420.75" y="130.12" width="3.25" height="1.62" fill="#5d141b"/><rect x="424.00" y="130.12" width="1.62" height="1.62" fill="#a3262e"/><rect x="425.62" y="130.12" width="3.25" height="1.62" fill="#5d141b"/><rect x="428.88" y="130.12" width="11.38" height="1.62" fill="#181219"/><rect x="440.25" y="130.12" width="1.62" height="1.62" fill="#0e0a11"/><rect x="441.88" y="130.12" width="1.62" height="1.62" fill="#dccfc3"/><rect x="443.50" y="130.12" width="8.12" height="1.62" fill="#a99e92"/><rect x="451.62" y="130.12" width="1.62" height="1.62" fill="#dccfc3"/><rect x="453.25" y="130.12" width="4.88" height="1.62" fill="#0e0a11"/><rect x="458.12" y="130.12" width="1.62" height="1.62" fill="#0c0a0c"/><rect x="389.88" y="131.75" width="1.62" height="1.62" fill="#0c0a0c"/><rect x="391.50" y="131.75" width="4.88" height="1.62" fill="#2a2230"/><rect x="396.38" y="131.75" width="1.62" height="1.62" fill="#0c0a0c"/><rect x="398.00" y="131.75" width="8.12" height="1.62" fill="#a99e92"/><rect x="406.12" y="131.75" width="1.62" height="1.62" fill="#0c0a0c"/><rect x="407.75" y="131.75" width="1.62" height="1.62" fill="#2a2230"/><rect x="409.38" y="131.75" width="11.38" height="1.62" fill="#181219"/><rect x="420.75" y="131.75" width="8.12" height="1.62" fill="#5d141b"/><rect x="428.88" y="131.75" width="11.38" height="1.62" fill="#181219"/><rect x="440.25" y="131.75" width="1.62" height="1.62" fill="#0e0a11"/><rect x="441.88" y="131.75" width="1.62" height="1.62" fill="#0c0a0c"/><rect x="443.50" y="131.75" width="8.12" height="1.62" fill="#a99e92"/><rect x="451.62" y="131.75" width="1.62" height="1.62" fill="#0c0a0c"/><rect x="453.25" y="131.75" width="4.88" height="1.62" fill="#0e0a11"/><rect x="458.12" y="131.75" width="1.62" height="1.62" fill="#0c0a0c"/><rect x="388.25" y="133.38" width="3.25" height="1.62" fill="#0c0a0c"/><rect x="391.50" y="133.38" width="16.25" height="1.62" fill="#2a2230"/><rect x="407.75" y="133.38" width="14.62" height="1.62" fill="#181219"/><rect x="422.38" y="133.38" width="4.88" height="1.62" fill="#5d141b"/><rect x="427.25" y="133.38" width="13.00" height="1.62" fill="#181219"/><rect x="440.25" y="133.38" width="17.88" height="1.62" fill="#0e0a11"/><rect x="458.12" y="133.38" width="3.25" height="1.62" fill="#0c0a0c"/><rect x="388.25" y="135.00" width="1.62" height="1.62" fill="#0c0a0c"/><rect x="389.88" y="135.00" width="17.88" height="1.62" fill="#2a2230"/><rect x="407.75" y="135.00" width="14.62" height="1.62" fill="#181219"/><rect x="422.38" y="135.00" width="4.88" height="1.62" fill="#5d141b"/><rect x="427.25" y="135.00" width="14.62" height="1.62" fill="#181219"/><rect x="441.88" y="135.00" width="17.88" height="1.62" fill="#0e0a11"/><rect x="459.75" y="135.00" width="1.62" height="1.62" fill="#0c0a0c"/><rect x="388.25" y="136.62" width="1.62" height="1.62" fill="#0c0a0c"/><rect x="389.88" y="136.62" width="17.88" height="1.62" fill="#2a2230"/><rect x="407.75" y="136.62" width="16.25" height="1.62" fill="#181219"/><rect x="424.00" y="136.62" width="1.62" height="1.62" fill="#5d141b"/><rect x="425.62" y="136.62" width="16.25" height="1.62" fill="#181219"/><rect x="441.88" y="136.62" width="17.88" height="1.62" fill="#0e0a11"/><rect x="459.75" y="136.62" width="1.62" height="1.62" fill="#0c0a0c"/><rect x="386.62" y="138.25" width="3.25" height="1.62" fill="#0c0a0c"/><rect x="389.88" y="138.25" width="17.88" height="1.62" fill="#2a2230"/><rect x="407.75" y="138.25" width="34.12" height="1.62" fill="#181219"/><rect x="441.88" y="138.25" width="17.88" height="1.62" fill="#0e0a11"/><rect x="459.75" y="138.25" width="1.62" height="1.62" fill="#0c0a0c"/><rect x="386.62" y="139.88" width="1.62" height="1.62" fill="#0c0a0c"/><rect x="388.25" y="139.88" width="17.88" height="1.62" fill="#2a2230"/><rect x="406.12" y="139.88" width="35.75" height="1.62" fill="#181219"/><rect x="441.88" y="139.88" width="17.88" height="1.62" fill="#0e0a11"/><rect x="459.75" y="139.88" width="3.25" height="1.62" fill="#0c0a0c"/><rect x="386.62" y="141.50" width="1.62" height="1.62" fill="#0c0a0c"/><rect x="388.25" y="141.50" width="40.62" height="1.62" fill="#181219"/><rect x="428.88" y="141.50" width="13.00" height="1.62" fill="#0e0a11"/><rect x="441.88" y="141.50" width="1.62" height="1.62" fill="#181219"/><rect x="443.50" y="141.50" width="17.88" height="1.62" fill="#0e0a11"/><rect x="461.38" y="141.50" width="1.62" height="1.62" fill="#0c0a0c"/><rect x="386.62" y="143.12" width="21.12" height="1.62" fill="#0c0a0c"/><rect x="407.75" y="143.12" width="13.00" height="1.62" fill="#181219"/><rect x="420.75" y="143.12" width="8.12" height="1.62" fill="#0c0a0c"/><rect x="428.88" y="143.12" width="13.00" height="1.62" fill="#0e0a11"/><rect x="441.88" y="143.12" width="21.12" height="1.62" fill="#0c0a0c"/><rect x="406.12" y="144.75" width="1.62" height="1.62" fill="#0c0a0c"/><rect x="407.75" y="144.75" width="13.00" height="1.62" fill="#181219"/><rect x="420.75" y="144.75" width="1.62" height="1.62" fill="#0c0a0c"/><rect x="427.25" y="144.75" width="1.62" height="1.62" fill="#0c0a0c"/><rect x="428.88" y="144.75" width="13.00" height="1.62" fill="#0e0a11"/><rect x="441.88" y="144.75" width="1.62" height="1.62" fill="#0c0a0c"/><rect x="406.12" y="146.38" width="1.62" height="1.62" fill="#0c0a0c"/><rect x="407.75" y="146.38" width="13.00" height="1.62" fill="#181219"/><rect x="420.75" y="146.38" width="1.62" height="1.62" fill="#0c0a0c"/><rect x="427.25" y="146.38" width="1.62" height="1.62" fill="#0c0a0c"/><rect x="428.88" y="146.38" width="13.00" height="1.62" fill="#0e0a11"/><rect x="441.88" y="146.38" width="1.62" height="1.62" fill="#0c0a0c"/></g><ellipse cx="424" cy="245" rx="33" ry="6" fill="#000000" opacity="0.22"/><g><animateTransform attributeName="transform" type="rotate" values="0 424 200;360 424 200;360 424 200" keyTimes="0;0.1;1" dur="6s" repeatCount="indefinite"/><polygon points="424.0,160.0 389.4,180.0 424.0,186.4" fill="#f0463d" stroke="#260606" stroke-width="1.8" stroke-linejoin="round"/><polygon points="424.0,160.0 424.0,186.4 458.6,180.0" fill="#f0463d" stroke="#260606" stroke-width="1.8" stroke-linejoin="round"/><polygon points="389.4,180.0 401.6,212.8 424.0,186.4" fill="#e03a33" stroke="#260606" stroke-width="1.8" stroke-linejoin="round"/><polygon points="458.6,180.0 424.0,186.4 446.4,212.8" fill="#e03a33" stroke="#260606" stroke-width="1.8" stroke-linejoin="round"/><polygon points="389.4,180.0 389.4,220.0 401.6,212.8" fill="#bf2d27" stroke="#260606" stroke-width="1.8" stroke-linejoin="round"/><polygon points="458.6,180.0 446.4,212.8 458.6,220.0" fill="#bf2d27" stroke="#260606" stroke-width="1.8" stroke-linejoin="round"/><polygon points="389.4,220.0 424.0,240.0 401.6,212.8" fill="#8c201c" stroke="#260606" stroke-width="1.8" stroke-linejoin="round"/><polygon points="446.4,212.8 424.0,240.0 458.6,220.0" fill="#8c201c" stroke="#260606" stroke-width="1.8" stroke-linejoin="round"/><polygon points="401.6,212.8 424.0,240.0 446.4,212.8" fill="#6a1413" stroke="#260606" stroke-width="1.8" stroke-linejoin="round"/><polygon points="424.0,186.4 401.6,212.8 446.4,212.8" fill="#ff6f66" stroke="#260606" stroke-width="1.8" stroke-linejoin="round"/><polygon points="424.0,160.0 389.4,180.0 424.0,186.4" fill="#ffffff" opacity="0.18"/><polygon points="424.0,160.0 424.0,186.4 458.6,180.0" fill="#ffffff" opacity="0.09"/><text x="413.8" y="182.2" text-anchor="middle" font-family="'Segoe UI',Helvetica,Arial,sans-serif" font-size="10.8" font-weight="700" fill="#ffe2de">18</text><text x="434.2" y="182.2" text-anchor="middle" font-family="'Segoe UI',Helvetica,Arial,sans-serif" font-size="10.8" font-weight="700" fill="#ffe2de">4</text><text x="407.3" y="197.7" text-anchor="middle" font-family="'Segoe UI',Helvetica,Arial,sans-serif" font-size="10.8" font-weight="700" fill="#ffe2de">2</text><text x="440.7" y="197.7" text-anchor="middle" font-family="'Segoe UI',Helvetica,Arial,sans-serif" font-size="10.8" font-weight="700" fill="#ffe2de">14</text><text x="397.1" y="207.5" text-anchor="middle" font-family="'Segoe UI',Helvetica,Arial,sans-serif" font-size="10.8" font-weight="700" fill="#ffe2de">12</text><text x="450.9" y="207.5" text-anchor="middle" font-family="'Segoe UI',Helvetica,Arial,sans-serif" font-size="10.8" font-weight="700" fill="#ffe2de">6</text><text x="407.3" y="225.1" text-anchor="middle" font-family="'Segoe UI',Helvetica,Arial,sans-serif" font-size="10.8" font-weight="700" fill="#ffe2de">10</text><text x="440.7" y="225.1" text-anchor="middle" font-family="'Segoe UI',Helvetica,Arial,sans-serif" font-size="10.8" font-weight="700" fill="#ffe2de">16</text><text x="424.0" y="223.0" text-anchor="middle" font-family="'Segoe UI',Helvetica,Arial,sans-serif" font-size="10.8" font-weight="700" fill="#ffe2de">8</text><text x="424.0" y="210.4" text-anchor="middle" font-family="'Segoe UI',Helvetica,Arial,sans-serif" font-size="18.4" font-weight="800" fill="#ffffff">20</text></g><text x="424" y="252" text-anchor="middle" font-family="'Segoe UI',Helvetica,Arial,sans-serif" font-size="9.5" fill="#9fb0c4">rolagem do d20</text></svg>
