<svg xmlns="http://www.w3.org/2000/svg" xmlns:xlink="http://www.w3.org/1999/xlink" width="520" height="258" viewBox="0 0 520 258" role="img" aria-label="Encontro Paranormal"><rect x="0.5" y="0.5" width="519" height="257" rx="12" fill="#1c2530" stroke="#2d3f57"/><text x="24" y="34" font-family="'Segoe UI',Helvetica,Arial,sans-serif" font-size="17" font-weight="700" fill="#8aa6c8">Encontro Paranormal</text><line x1="24" y1="46" x2="496" y2="46" stroke="#2d3f57"/><circle cx="30" cy="66" r="6" fill="#a85cff"/><text x="44" y="71" font-family="'Segoe UI',Helvetica,Arial,sans-serif" font-size="15" font-weight="600" fill="#dfe6ee">Distorção</text><text x="344" y="71" text-anchor="end" font-family="'Segoe UI',Helvetica,Arial,sans-serif" font-size="11" fill="#9fb0c4">13/13 HP</text><rect x="24" y="80" width="320" height="12" rx="6" fill="#2a3a4d"/><rect x="24" y="80" width="320" height="12" rx="6" fill="#a85cff"/><text x="24" y="108" font-family="'Segoe UI',Helvetica,Arial,sans-serif" font-size="11" fill="#9fb0c4">Elemento: Energia</text><text x="24" y="138" font-family="'Segoe UI',Helvetica,Arial,sans-serif" font-size="15" font-weight="600" fill="#dfe6ee">Agente da Ordem</text><text x="344" y="138" text-anchor="end" font-family="'Segoe UI',Helvetica,Arial,sans-serif" font-size="11" fill="#9fb0c4">20/20 HP</text><rect x="24" y="147" width="320" height="12" rx="6" fill="#2a3a4d"/><rect x="24" y="147" width="320" height="12" rx="6" fill="#56b886"/><text x="24" y="178" font-family="'Segoe UI',Helvetica,Arial,sans-serif" font-size="11" fill="#9fb0c4">Derrotadas: 1   ·   Recorde: 0   ·   Rituais: 3</text><text x="24" y="210" font-family="'Segoe UI',Helvetica,Arial,sans-serif" font-size="12.5" fill="#dfe6ee">Você atingiu Raziel (Vampiro) (5) derrotou e recuperou 3 de vida.</text><g><animateTransform attributeName="transform" type="translate" values="0 0;0 -3;0 0" dur="2.6s" repeatCount="indefinite"/><rect x="379.43" y="44.00" width="7.43" height="7.43" fill="#5c328c"/><rect x="461.14" y="44.00" width="7.43" height="7.43" fill="#5c328c"/><rect x="379.43" y="51.43" width="7.43" height="7.43" fill="#a85cff"/><rect x="461.14" y="51.43" width="7.43" height="7.43" fill="#a85cff"/><rect x="372.00" y="58.86" width="7.43" height="7.43" fill="#5c328c"/><rect x="379.43" y="58.86" width="7.43" height="7.43" fill="#a85cff"/><rect x="386.86" y="58.86" width="7.43" height="7.43" fill="#160406"/><rect x="453.71" y="58.86" width="7.43" height="7.43" fill="#160406"/><rect x="461.14" y="58.86" width="7.43" height="7.43" fill="#a85cff"/><rect x="468.57" y="58.86" width="7.43" height="7.43" fill="#5c328c"/><rect x="372.00" y="66.29" width="7.43" height="7.43" fill="#160406"/><rect x="379.43" y="66.29" width="7.43" height="7.43" fill="#a85cff"/><rect x="386.86" y="66.29" width="7.43" height="7.43" fill="#a85cff"/><rect x="394.29" y="66.29" width="7.43" height="7.43" fill="#160406"/><rect x="401.71" y="66.29" width="7.43" height="7.43" fill="#160406"/><rect x="409.14" y="66.29" width="7.43" height="7.43" fill="#160406"/><rect x="416.57" y="66.29" width="7.43" height="7.43" fill="#160406"/><rect x="424.00" y="66.29" width="7.43" height="7.43" fill="#160406"/><rect x="431.43" y="66.29" width="7.43" height="7.43" fill="#160406"/><rect x="438.86" y="66.29" width="7.43" height="7.43" fill="#160406"/><rect x="446.29" y="66.29" width="7.43" height="7.43" fill="#160406"/><rect x="453.71" y="66.29" width="7.43" height="7.43" fill="#a85cff"/><rect x="461.14" y="66.29" width="7.43" height="7.43" fill="#a85cff"/><rect x="468.57" y="66.29" width="7.43" height="7.43" fill="#160406"/><rect x="379.43" y="73.71" width="7.43" height="7.43" fill="#160406"/><rect x="386.86" y="73.71" width="7.43" height="7.43" fill="#a85cff"/><rect x="394.29" y="73.71" width="7.43" height="7.43" fill="#a85cff"/><rect x="401.71" y="73.71" width="7.43" height="7.43" fill="#a85cff"/><rect x="409.14" y="73.71" width="7.43" height="7.43" fill="#a85cff"/><rect x="416.57" y="73.71" width="7.43" height="7.43" fill="#a85cff"/><rect x="424.00" y="73.71" width="7.43" height="7.43" fill="#a85cff"/><rect x="431.43" y="73.71" width="7.43" height="7.43" fill="#a85cff"/><rect x="438.86" y="73.71" width="7.43" height="7.43" fill="#a85cff"/><rect x="446.29" y="73.71" width="7.43" height="7.43" fill="#a85cff"/><rect x="453.71" y="73.71" width="7.43" height="7.43" fill="#a85cff"/><rect x="461.14" y="73.71" width="7.43" height="7.43" fill="#160406"/><rect x="379.43" y="81.14" width="7.43" height="7.43" fill="#160406"/><rect x="386.86" y="81.14" width="7.43" height="7.43" fill="#a85cff"/><rect x="394.29" y="81.14" width="7.43" height="7.43" fill="#cfa5ff"/><rect x="401.71" y="81.14" width="7.43" height="7.43" fill="#a85cff"/><rect x="409.14" y="81.14" width="7.43" height="7.43" fill="#a85cff"/><rect x="416.57" y="81.14" width="7.43" height="7.43" fill="#a85cff"/><rect x="424.00" y="81.14" width="7.43" height="7.43" fill="#a85cff"/><rect x="431.43" y="81.14" width="7.43" height="7.43" fill="#a85cff"/><rect x="438.86" y="81.14" width="7.43" height="7.43" fill="#a85cff"/><rect x="446.29" y="81.14" width="7.43" height="7.43" fill="#cfa5ff"/><rect x="453.71" y="81.14" width="7.43" height="7.43" fill="#a85cff"/><rect x="461.14" y="81.14" width="7.43" height="7.43" fill="#160406"/><rect x="379.43" y="88.57" width="7.43" height="7.43" fill="#160406"/><rect x="386.86" y="88.57" width="7.43" height="7.43" fill="#ffce3a"/><rect x="394.29" y="88.57" width="7.43" height="7.43" fill="#ffce3a"/><rect x="401.71" y="88.57" width="7.43" height="7.43" fill="#a85cff"/><rect x="409.14" y="88.57" width="7.43" height="7.43" fill="#a85cff"/><rect x="416.57" y="88.57" width="7.43" height="7.43" fill="#a85cff"/><rect x="424.00" y="88.57" width="7.43" height="7.43" fill="#a85cff"/><rect x="431.43" y="88.57" width="7.43" height="7.43" fill="#a85cff"/><rect x="438.86" y="88.57" width="7.43" height="7.43" fill="#a85cff"/><rect x="446.29" y="88.57" width="7.43" height="7.43" fill="#ffce3a"/><rect x="453.71" y="88.57" width="7.43" height="7.43" fill="#ffce3a"/><rect x="461.14" y="88.57" width="7.43" height="7.43" fill="#160406"/><rect x="379.43" y="96.00" width="7.43" height="7.43" fill="#160406"/><rect x="386.86" y="96.00" width="7.43" height="7.43" fill="#a85cff"/><rect x="394.29" y="96.00" width="7.43" height="7.43" fill="#a85cff"/><rect x="401.71" y="96.00" width="7.43" height="7.43" fill="#a85cff"/><rect x="409.14" y="96.00" width="7.43" height="7.43" fill="#a85cff"/><rect x="416.57" y="96.00" width="7.43" height="7.43" fill="#a85cff"/><rect x="424.00" y="96.00" width="7.43" height="7.43" fill="#a85cff"/><rect x="431.43" y="96.00" width="7.43" height="7.43" fill="#a85cff"/><rect x="438.86" y="96.00" width="7.43" height="7.43" fill="#a85cff"/><rect x="446.29" y="96.00" width="7.43" height="7.43" fill="#a85cff"/><rect x="453.71" y="96.00" width="7.43" height="7.43" fill="#a85cff"/><rect x="461.14" y="96.00" width="7.43" height="7.43" fill="#160406"/><rect x="379.43" y="103.43" width="7.43" height="7.43" fill="#160406"/><rect x="386.86" y="103.43" width="7.43" height="7.43" fill="#a85cff"/><rect x="394.29" y="103.43" width="7.43" height="7.43" fill="#5c328c"/><rect x="401.71" y="103.43" width="7.43" height="7.43" fill="#a85cff"/><rect x="409.14" y="103.43" width="7.43" height="7.43" fill="#a85cff"/><rect x="416.57" y="103.43" width="7.43" height="7.43" fill="#a85cff"/><rect x="424.00" y="103.43" width="7.43" height="7.43" fill="#a85cff"/><rect x="431.43" y="103.43" width="7.43" height="7.43" fill="#a85cff"/><rect x="438.86" y="103.43" width="7.43" height="7.43" fill="#a85cff"/><rect x="446.29" y="103.43" width="7.43" height="7.43" fill="#5c328c"/><rect x="453.71" y="103.43" width="7.43" height="7.43" fill="#a85cff"/><rect x="461.14" y="103.43" width="7.43" height="7.43" fill="#160406"/><rect x="379.43" y="110.86" width="7.43" height="7.43" fill="#160406"/><rect x="386.86" y="110.86" width="7.43" height="7.43" fill="#ece3c6"/><rect x="394.29" y="110.86" width="7.43" height="7.43" fill="#280810"/><rect x="401.71" y="110.86" width="7.43" height="7.43" fill="#ece3c6"/><rect x="409.14" y="110.86" width="7.43" height="7.43" fill="#280810"/><rect x="416.57" y="110.86" width="7.43" height="7.43" fill="#ece3c6"/><rect x="424.00" y="110.86" width="7.43" height="7.43" fill="#280810"/><rect x="431.43" y="110.86" width="7.43" height="7.43" fill="#ece3c6"/><rect x="438.86" y="110.86" width="7.43" height="7.43" fill="#280810"/><rect x="446.29" y="110.86" width="7.43" height="7.43" fill="#ece3c6"/><rect x="453.71" y="110.86" width="7.43" height="7.43" fill="#280810"/><rect x="461.14" y="110.86" width="7.43" height="7.43" fill="#160406"/><rect x="379.43" y="118.29" width="7.43" height="7.43" fill="#160406"/><rect x="386.86" y="118.29" width="7.43" height="7.43" fill="#280810"/><rect x="394.29" y="118.29" width="7.43" height="7.43" fill="#ece3c6"/><rect x="401.71" y="118.29" width="7.43" height="7.43" fill="#280810"/><rect x="409.14" y="118.29" width="7.43" height="7.43" fill="#ece3c6"/><rect x="416.57" y="118.29" width="7.43" height="7.43" fill="#280810"/><rect x="424.00" y="118.29" width="7.43" height="7.43" fill="#ece3c6"/><rect x="431.43" y="118.29" width="7.43" height="7.43" fill="#280810"/><rect x="438.86" y="118.29" width="7.43" height="7.43" fill="#ece3c6"/><rect x="446.29" y="118.29" width="7.43" height="7.43" fill="#280810"/><rect x="453.71" y="118.29" width="7.43" height="7.43" fill="#ece3c6"/><rect x="461.14" y="118.29" width="7.43" height="7.43" fill="#160406"/><rect x="379.43" y="125.71" width="7.43" height="7.43" fill="#160406"/><rect x="386.86" y="125.71" width="7.43" height="7.43" fill="#a85cff"/><rect x="394.29" y="125.71" width="7.43" height="7.43" fill="#5c328c"/><rect x="401.71" y="125.71" width="7.43" height="7.43" fill="#a85cff"/><rect x="409.14" y="125.71" width="7.43" height="7.43" fill="#a85cff"/><rect x="416.57" y="125.71" width="7.43" height="7.43" fill="#a85cff"/><rect x="424.00" y="125.71" width="7.43" height="7.43" fill="#a85cff"/><rect x="431.43" y="125.71" width="7.43" height="7.43" fill="#a85cff"/><rect x="438.86" y="125.71" width="7.43" height="7.43" fill="#a85cff"/><rect x="446.29" y="125.71" width="7.43" height="7.43" fill="#5c328c"/><rect x="453.71" y="125.71" width="7.43" height="7.43" fill="#a85cff"/><rect x="461.14" y="125.71" width="7.43" height="7.43" fill="#160406"/><rect x="386.86" y="133.14" width="7.43" height="7.43" fill="#160406"/><rect x="394.29" y="133.14" width="7.43" height="7.43" fill="#a85cff"/><rect x="401.71" y="133.14" width="7.43" height="7.43" fill="#a85cff"/><rect x="409.14" y="133.14" width="7.43" height="7.43" fill="#a85cff"/><rect x="416.57" y="133.14" width="7.43" height="7.43" fill="#a85cff"/><rect x="424.00" y="133.14" width="7.43" height="7.43" fill="#a85cff"/><rect x="431.43" y="133.14" width="7.43" height="7.43" fill="#a85cff"/><rect x="438.86" y="133.14" width="7.43" height="7.43" fill="#a85cff"/><rect x="446.29" y="133.14" width="7.43" height="7.43" fill="#a85cff"/><rect x="453.71" y="133.14" width="7.43" height="7.43" fill="#160406"/><rect x="394.29" y="140.57" width="7.43" height="7.43" fill="#160406"/><rect x="401.71" y="140.57" width="7.43" height="7.43" fill="#a85cff"/><rect x="409.14" y="140.57" width="7.43" height="7.43" fill="#160406"/><rect x="431.43" y="140.57" width="7.43" height="7.43" fill="#160406"/><rect x="438.86" y="140.57" width="7.43" height="7.43" fill="#a85cff"/><rect x="446.29" y="140.57" width="7.43" height="7.43" fill="#160406"/></g><ellipse cx="424" cy="245" rx="33" ry="6" fill="#000000" opacity="0.22"/><g><animateTransform attributeName="transform" type="rotate" values="0 424 200;360 424 200;360 424 200" keyTimes="0;0.1;1" dur="6s" repeatCount="indefinite"/><polygon points="424.0,160.0 389.4,180.0 424.0,186.4" fill="#f0463d" stroke="#260606" stroke-width="1.8" stroke-linejoin="round"/><polygon points="424.0,160.0 424.0,186.4 458.6,180.0" fill="#f0463d" stroke="#260606" stroke-width="1.8" stroke-linejoin="round"/><polygon points="389.4,180.0 401.6,212.8 424.0,186.4" fill="#e03a33" stroke="#260606" stroke-width="1.8" stroke-linejoin="round"/><polygon points="458.6,180.0 424.0,186.4 446.4,212.8" fill="#e03a33" stroke="#260606" stroke-width="1.8" stroke-linejoin="round"/><polygon points="389.4,180.0 389.4,220.0 401.6,212.8" fill="#bf2d27" stroke="#260606" stroke-width="1.8" stroke-linejoin="round"/><polygon points="458.6,180.0 446.4,212.8 458.6,220.0" fill="#bf2d27" stroke="#260606" stroke-width="1.8" stroke-linejoin="round"/><polygon points="389.4,220.0 424.0,240.0 401.6,212.8" fill="#8c201c" stroke="#260606" stroke-width="1.8" stroke-linejoin="round"/><polygon points="446.4,212.8 424.0,240.0 458.6,220.0" fill="#8c201c" stroke="#260606" stroke-width="1.8" stroke-linejoin="round"/><polygon points="401.6,212.8 424.0,240.0 446.4,212.8" fill="#6a1413" stroke="#260606" stroke-width="1.8" stroke-linejoin="round"/><polygon points="424.0,186.4 401.6,212.8 446.4,212.8" fill="#ff6f66" stroke="#260606" stroke-width="1.8" stroke-linejoin="round"/><polygon points="424.0,160.0 389.4,180.0 424.0,186.4" fill="#ffffff" opacity="0.18"/><polygon points="424.0,160.0 424.0,186.4 458.6,180.0" fill="#ffffff" opacity="0.09"/><text x="413.8" y="182.2" text-anchor="middle" font-family="'Segoe UI',Helvetica,Arial,sans-serif" font-size="10.8" font-weight="700" fill="#ffe2de">18</text><text x="434.2" y="182.2" text-anchor="middle" font-family="'Segoe UI',Helvetica,Arial,sans-serif" font-size="10.8" font-weight="700" fill="#ffe2de">4</text><text x="407.3" y="197.7" text-anchor="middle" font-family="'Segoe UI',Helvetica,Arial,sans-serif" font-size="10.8" font-weight="700" fill="#ffe2de">2</text><text x="440.7" y="197.7" text-anchor="middle" font-family="'Segoe UI',Helvetica,Arial,sans-serif" font-size="10.8" font-weight="700" fill="#ffe2de">14</text><text x="397.1" y="207.5" text-anchor="middle" font-family="'Segoe UI',Helvetica,Arial,sans-serif" font-size="10.8" font-weight="700" fill="#ffe2de">12</text><text x="450.9" y="207.5" text-anchor="middle" font-family="'Segoe UI',Helvetica,Arial,sans-serif" font-size="10.8" font-weight="700" fill="#ffe2de">6</text><text x="407.3" y="225.1" text-anchor="middle" font-family="'Segoe UI',Helvetica,Arial,sans-serif" font-size="10.8" font-weight="700" fill="#ffe2de">10</text><text x="440.7" y="225.1" text-anchor="middle" font-family="'Segoe UI',Helvetica,Arial,sans-serif" font-size="10.8" font-weight="700" fill="#ffe2de">16</text><text x="424.0" y="223.0" text-anchor="middle" font-family="'Segoe UI',Helvetica,Arial,sans-serif" font-size="10.8" font-weight="700" fill="#ffe2de">8</text><text x="424.0" y="210.4" text-anchor="middle" font-family="'Segoe UI',Helvetica,Arial,sans-serif" font-size="18.4" font-weight="800" fill="#ffffff">12</text></g><text x="424" y="252" text-anchor="middle" font-family="'Segoe UI',Helvetica,Arial,sans-serif" font-size="9.5" fill="#9fb0c4">rolagem do d20</text></svg>
