<svg xmlns="http://www.w3.org/2000/svg" xmlns:xlink="http://www.w3.org/1999/xlink" width="500" height="228" viewBox="0 0 500 228" role="img" aria-label="Encontro Paranormal"><rect x="0.5" y="0.5" width="499" height="227" rx="12" fill="#1c2530" stroke="#2d3f57"/><text x="24" y="32" font-family="'Segoe UI',Helvetica,Arial,sans-serif" font-size="16" font-weight="700" fill="#8aa6c8">Encontro Paranormal</text><line x1="24" y1="42" x2="476" y2="42" stroke="#2d3f57"/><circle cx="30" cy="60" r="6" fill="#e0352f"/><text x="44" y="65" font-family="'Segoe UI',Helvetica,Arial,sans-serif" font-size="15" font-weight="600" fill="#dfe6ee">Zumbi de Sangue</text><text x="384" y="65" text-anchor="end" font-family="'Segoe UI',Helvetica,Arial,sans-serif" font-size="11" fill="#9fb0c4">9/9 HP</text><rect x="24" y="74" width="360" height="11" rx="6" fill="#2a3a4d"/><rect x="24" y="74" width="360" height="11" rx="6" fill="#e0352f"/><text x="24" y="100" font-family="'Segoe UI',Helvetica,Arial,sans-serif" font-size="11" fill="#9fb0c4">Elemento: Sangue</text><text x="24" y="128" font-family="'Segoe UI',Helvetica,Arial,sans-serif" font-size="15" font-weight="600" fill="#dfe6ee">Agente da Ordem</text><text x="384" y="128" text-anchor="end" font-family="'Segoe UI',Helvetica,Arial,sans-serif" font-size="11" fill="#9fb0c4">20/20 HP</text><rect x="24" y="137" width="360" height="11" rx="6" fill="#2a3a4d"/><rect x="24" y="137" width="360" height="11" rx="6" fill="#56b886"/><text x="24" y="166" font-family="'Segoe UI',Helvetica,Arial,sans-serif" font-size="11" fill="#9fb0c4">Derrotadas: 0   ·   Recorde: 0   ·   Rituais: 3</text><text x="24" y="196" font-family="'Segoe UI',Helvetica,Arial,sans-serif" font-size="12.5" fill="#dfe6ee">Uma criatura surge das sombras. Boa sorte, Agente.</text><g><animateTransform attributeName="transform" type="translate" values="0 0;0 -3;0 0" dur="2.6s" repeatCount="indefinite"/><rect x="402.14" y="46.00" width="6.14" height="6.14" fill="#7b1d19"/><rect x="469.71" y="46.00" width="6.14" height="6.14" fill="#7b1d19"/><rect x="402.14" y="52.14" width="6.14" height="6.14" fill="#e0352f"/><rect x="469.71" y="52.14" width="6.14" height="6.14" fill="#e0352f"/><rect x="396.00" y="58.29" width="6.14" height="6.14" fill="#7b1d19"/><rect x="402.14" y="58.29" width="6.14" height="6.14" fill="#e0352f"/><rect x="408.29" y="58.29" width="6.14" height="6.14" fill="#160406"/><rect x="463.57" y="58.29" width="6.14" height="6.14" fill="#160406"/><rect x="469.71" y="58.29" width="6.14" height="6.14" fill="#e0352f"/><rect x="475.86" y="58.29" width="6.14" height="6.14" fill="#7b1d19"/><rect x="396.00" y="64.43" width="6.14" height="6.14" fill="#160406"/><rect x="402.14" y="64.43" width="6.14" height="6.14" fill="#e0352f"/><rect x="408.29" y="64.43" width="6.14" height="6.14" fill="#e0352f"/><rect x="414.43" y="64.43" width="6.14" height="6.14" fill="#160406"/><rect x="420.57" y="64.43" width="6.14" height="6.14" fill="#160406"/><rect x="426.71" y="64.43" width="6.14" height="6.14" fill="#160406"/><rect x="432.86" y="64.43" width="6.14" height="6.14" fill="#160406"/><rect x="439.00" y="64.43" width="6.14" height="6.14" fill="#160406"/><rect x="445.14" y="64.43" width="6.14" height="6.14" fill="#160406"/><rect x="451.29" y="64.43" width="6.14" height="6.14" fill="#160406"/><rect x="457.43" y="64.43" width="6.14" height="6.14" fill="#160406"/><rect x="463.57" y="64.43" width="6.14" height="6.14" fill="#e0352f"/><rect x="469.71" y="64.43" width="6.14" height="6.14" fill="#e0352f"/><rect x="475.86" y="64.43" width="6.14" height="6.14" fill="#160406"/><rect x="402.14" y="70.57" width="6.14" height="6.14" fill="#160406"/><rect x="408.29" y="70.57" width="6.14" height="6.14" fill="#e0352f"/><rect x="414.43" y="70.57" width="6.14" height="6.14" fill="#e0352f"/><rect x="420.57" y="70.57" width="6.14" height="6.14" fill="#e0352f"/><rect x="426.71" y="70.57" width="6.14" height="6.14" fill="#e0352f"/><rect x="432.86" y="70.57" width="6.14" height="6.14" fill="#e0352f"/><rect x="439.00" y="70.57" width="6.14" height="6.14" fill="#e0352f"/><rect x="445.14" y="70.57" width="6.14" height="6.14" fill="#e0352f"/><rect x="451.29" y="70.57" width="6.14" height="6.14" fill="#e0352f"/><rect x="457.43" y="70.57" width="6.14" height="6.14" fill="#e0352f"/><rect x="463.57" y="70.57" width="6.14" height="6.14" fill="#e0352f"/><rect x="469.71" y="70.57" width="6.14" height="6.14" fill="#160406"/><rect x="402.14" y="76.71" width="6.14" height="6.14" fill="#160406"/><rect x="408.29" y="76.71" width="6.14" height="6.14" fill="#e0352f"/><rect x="414.43" y="76.71" width="6.14" height="6.14" fill="#ed8f8c"/><rect x="420.57" y="76.71" width="6.14" height="6.14" fill="#e0352f"/><rect x="426.71" y="76.71" width="6.14" height="6.14" fill="#e0352f"/><rect x="432.86" y="76.71" width="6.14" height="6.14" fill="#e0352f"/><rect x="439.00" y="76.71" width="6.14" height="6.14" fill="#e0352f"/><rect x="445.14" y="76.71" width="6.14" height="6.14" fill="#e0352f"/><rect x="451.29" y="76.71" width="6.14" height="6.14" fill="#e0352f"/><rect x="457.43" y="76.71" width="6.14" height="6.14" fill="#ed8f8c"/><rect x="463.57" y="76.71" width="6.14" height="6.14" fill="#e0352f"/><rect x="469.71" y="76.71" width="6.14" height="6.14" fill="#160406"/><rect x="402.14" y="82.86" width="6.14" height="6.14" fill="#160406"/><rect x="408.29" y="82.86" width="6.14" height="6.14" fill="#ffce3a"/><rect x="414.43" y="82.86" width="6.14" height="6.14" fill="#ffce3a"/><rect x="420.57" y="82.86" width="6.14" height="6.14" fill="#e0352f"/><rect x="426.71" y="82.86" width="6.14" height="6.14" fill="#e0352f"/><rect x="432.86" y="82.86" width="6.14" height="6.14" fill="#e0352f"/><rect x="439.00" y="82.86" width="6.14" height="6.14" fill="#e0352f"/><rect x="445.14" y="82.86" width="6.14" height="6.14" fill="#e0352f"/><rect x="451.29" y="82.86" width="6.14" height="6.14" fill="#e0352f"/><rect x="457.43" y="82.86" width="6.14" height="6.14" fill="#ffce3a"/><rect x="463.57" y="82.86" width="6.14" height="6.14" fill="#ffce3a"/><rect x="469.71" y="82.86" width="6.14" height="6.14" fill="#160406"/><rect x="402.14" y="89.00" width="6.14" height="6.14" fill="#160406"/><rect x="408.29" y="89.00" width="6.14" height="6.14" fill="#e0352f"/><rect x="414.43" y="89.00" width="6.14" height="6.14" fill="#e0352f"/><rect x="420.57" y="89.00" width="6.14" height="6.14" fill="#e0352f"/><rect x="426.71" y="89.00" width="6.14" height="6.14" fill="#e0352f"/><rect x="432.86" y="89.00" width="6.14" height="6.14" fill="#e0352f"/><rect x="439.00" y="89.00" width="6.14" height="6.14" fill="#e0352f"/><rect x="445.14" y="89.00" width="6.14" height="6.14" fill="#e0352f"/><rect x="451.29" y="89.00" width="6.14" height="6.14" fill="#e0352f"/><rect x="457.43" y="89.00" width="6.14" height="6.14" fill="#e0352f"/><rect x="463.57" y="89.00" width="6.14" height="6.14" fill="#e0352f"/><rect x="469.71" y="89.00" width="6.14" height="6.14" fill="#160406"/><rect x="402.14" y="95.14" width="6.14" height="6.14" fill="#160406"/><rect x="408.29" y="95.14" width="6.14" height="6.14" fill="#e0352f"/><rect x="414.43" y="95.14" width="6.14" height="6.14" fill="#7b1d19"/><rect x="420.57" y="95.14" width="6.14" height="6.14" fill="#e0352f"/><rect x="426.71" y="95.14" width="6.14" height="6.14" fill="#e0352f"/><rect x="432.86" y="95.14" width="6.14" height="6.14" fill="#e0352f"/><rect x="439.00" y="95.14" width="6.14" height="6.14" fill="#e0352f"/><rect x="445.14" y="95.14" width="6.14" height="6.14" fill="#e0352f"/><rect x="451.29" y="95.14" width="6.14" height="6.14" fill="#e0352f"/><rect x="457.43" y="95.14" width="6.14" height="6.14" fill="#7b1d19"/><rect x="463.57" y="95.14" width="6.14" height="6.14" fill="#e0352f"/><rect x="469.71" y="95.14" width="6.14" height="6.14" fill="#160406"/><rect x="402.14" y="101.29" width="6.14" height="6.14" fill="#160406"/><rect x="408.29" y="101.29" width="6.14" height="6.14" fill="#ece3c6"/><rect x="414.43" y="101.29" width="6.14" height="6.14" fill="#280810"/><rect x="420.57" y="101.29" width="6.14" height="6.14" fill="#ece3c6"/><rect x="426.71" y="101.29" width="6.14" height="6.14" fill="#280810"/><rect x="432.86" y="101.29" width="6.14" height="6.14" fill="#ece3c6"/><rect x="439.00" y="101.29" width="6.14" height="6.14" fill="#280810"/><rect x="445.14" y="101.29" width="6.14" height="6.14" fill="#ece3c6"/><rect x="451.29" y="101.29" width="6.14" height="6.14" fill="#280810"/><rect x="457.43" y="101.29" width="6.14" height="6.14" fill="#ece3c6"/><rect x="463.57" y="101.29" width="6.14" height="6.14" fill="#280810"/><rect x="469.71" y="101.29" width="6.14" height="6.14" fill="#160406"/><rect x="402.14" y="107.43" width="6.14" height="6.14" fill="#160406"/><rect x="408.29" y="107.43" width="6.14" height="6.14" fill="#280810"/><rect x="414.43" y="107.43" width="6.14" height="6.14" fill="#ece3c6"/><rect x="420.57" y="107.43" width="6.14" height="6.14" fill="#280810"/><rect x="426.71" y="107.43" width="6.14" height="6.14" fill="#ece3c6"/><rect x="432.86" y="107.43" width="6.14" height="6.14" fill="#280810"/><rect x="439.00" y="107.43" width="6.14" height="6.14" fill="#ece3c6"/><rect x="445.14" y="107.43" width="6.14" height="6.14" fill="#280810"/><rect x="451.29" y="107.43" width="6.14" height="6.14" fill="#ece3c6"/><rect x="457.43" y="107.43" width="6.14" height="6.14" fill="#280810"/><rect x="463.57" y="107.43" width="6.14" height="6.14" fill="#ece3c6"/><rect x="469.71" y="107.43" width="6.14" height="6.14" fill="#160406"/><rect x="402.14" y="113.57" width="6.14" height="6.14" fill="#160406"/><rect x="408.29" y="113.57" width="6.14" height="6.14" fill="#e0352f"/><rect x="414.43" y="113.57" width="6.14" height="6.14" fill="#7b1d19"/><rect x="420.57" y="113.57" width="6.14" height="6.14" fill="#e0352f"/><rect x="426.71" y="113.57" width="6.14" height="6.14" fill="#e0352f"/><rect x="432.86" y="113.57" width="6.14" height="6.14" fill="#e0352f"/><rect x="439.00" y="113.57" width="6.14" height="6.14" fill="#e0352f"/><rect x="445.14" y="113.57" width="6.14" height="6.14" fill="#e0352f"/><rect x="451.29" y="113.57" width="6.14" height="6.14" fill="#e0352f"/><rect x="457.43" y="113.57" width="6.14" height="6.14" fill="#7b1d19"/><rect x="463.57" y="113.57" width="6.14" height="6.14" fill="#e0352f"/><rect x="469.71" y="113.57" width="6.14" height="6.14" fill="#160406"/><rect x="408.29" y="119.71" width="6.14" height="6.14" fill="#160406"/><rect x="414.43" y="119.71" width="6.14" height="6.14" fill="#e0352f"/><rect x="420.57" y="119.71" width="6.14" height="6.14" fill="#e0352f"/><rect x="426.71" y="119.71" width="6.14" height="6.14" fill="#e0352f"/><rect x="432.86" y="119.71" width="6.14" height="6.14" fill="#e0352f"/><rect x="439.00" y="119.71" width="6.14" height="6.14" fill="#e0352f"/><rect x="445.14" y="119.71" width="6.14" height="6.14" fill="#e0352f"/><rect x="451.29" y="119.71" width="6.14" height="6.14" fill="#e0352f"/><rect x="457.43" y="119.71" width="6.14" height="6.14" fill="#e0352f"/><rect x="463.57" y="119.71" width="6.14" height="6.14" fill="#160406"/><rect x="414.43" y="125.86" width="6.14" height="6.14" fill="#160406"/><rect x="420.57" y="125.86" width="6.14" height="6.14" fill="#e0352f"/><rect x="426.71" y="125.86" width="6.14" height="6.14" fill="#160406"/><rect x="445.14" y="125.86" width="6.14" height="6.14" fill="#160406"/><rect x="451.29" y="125.86" width="6.14" height="6.14" fill="#e0352f"/><rect x="457.43" y="125.86" width="6.14" height="6.14" fill="#160406"/></g><g><animateTransform attributeName="transform" type="rotate" from="0 446 176" to="360 446 176" dur="0.7s" repeatCount="1" fill="freeze"/><polygon points="446.0,149.0 422.6,162.5 446.0,166.8" fill="#cf3a33" stroke="#2a0707" stroke-width="1.3" stroke-linejoin="round"/><polygon points="446.0,149.0 446.0,166.8 469.4,162.5" fill="#cf3a33" stroke="#2a0707" stroke-width="1.3" stroke-linejoin="round"/><polygon points="422.6,162.5 430.9,184.6 446.0,166.8" fill="#e2453c" stroke="#2a0707" stroke-width="1.3" stroke-linejoin="round"/><polygon points="469.4,162.5 446.0,166.8 461.1,184.6" fill="#e2453c" stroke="#2a0707" stroke-width="1.3" stroke-linejoin="round"/><polygon points="422.6,162.5 422.6,189.5 430.9,184.6" fill="#b22e28" stroke="#2a0707" stroke-width="1.3" stroke-linejoin="round"/><polygon points="469.4,162.5 461.1,184.6 469.4,189.5" fill="#b22e28" stroke="#2a0707" stroke-width="1.3" stroke-linejoin="round"/><polygon points="422.6,189.5 446.0,203.0 430.9,184.6" fill="#921f1c" stroke="#2a0707" stroke-width="1.3" stroke-linejoin="round"/><polygon points="461.1,184.6 446.0,203.0 469.4,189.5" fill="#921f1c" stroke="#2a0707" stroke-width="1.3" stroke-linejoin="round"/><polygon points="430.9,184.6 446.0,203.0 461.1,184.6" fill="#7d1a18" stroke="#2a0707" stroke-width="1.3" stroke-linejoin="round"/><polygon points="446.0,166.8 430.9,184.6 461.1,184.6" fill="#f25a54" stroke="#2a0707" stroke-width="1.3" stroke-linejoin="round"/><text x="438.2" y="162.0" text-anchor="middle" font-family="'Segoe UI',Helvetica,Arial,sans-serif" font-size="7" font-weight="700" fill="#ffd9d4">18</text><text x="453.8" y="162.0" text-anchor="middle" font-family="'Segoe UI',Helvetica,Arial,sans-serif" font-size="7" font-weight="700" fill="#ffd9d4">4</text><text x="433.2" y="173.8" text-anchor="middle" font-family="'Segoe UI',Helvetica,Arial,sans-serif" font-size="7" font-weight="700" fill="#ffd9d4">2</text><text x="458.8" y="173.8" text-anchor="middle" font-family="'Segoe UI',Helvetica,Arial,sans-serif" font-size="7" font-weight="700" fill="#ffd9d4">14</text><text x="425.4" y="181.4" text-anchor="middle" font-family="'Segoe UI',Helvetica,Arial,sans-serif" font-size="7" font-weight="700" fill="#ffd9d4">12</text><text x="466.6" y="181.4" text-anchor="middle" font-family="'Segoe UI',Helvetica,Arial,sans-serif" font-size="7" font-weight="700" fill="#ffd9d4">6</text><text x="433.2" y="194.9" text-anchor="middle" font-family="'Segoe UI',Helvetica,Arial,sans-serif" font-size="7" font-weight="700" fill="#ffd9d4">10</text><text x="458.8" y="194.9" text-anchor="middle" font-family="'Segoe UI',Helvetica,Arial,sans-serif" font-size="7" font-weight="700" fill="#ffd9d4">16</text><text x="446.0" y="193.3" text-anchor="middle" font-family="'Segoe UI',Helvetica,Arial,sans-serif" font-size="7" font-weight="700" fill="#ffd9d4">8</text><text x="446.0" y="183.6" text-anchor="middle" font-family="'Segoe UI',Helvetica,Arial,sans-serif" font-size="14" font-weight="800" fill="#ffffff">20</text></g><text x="446" y="216" text-anchor="middle" font-family="'Segoe UI',Helvetica,Arial,sans-serif" font-size="9" fill="#9fb0c4">rolagem do d20</text></svg>
