<svg xmlns="http://www.w3.org/2000/svg" width="500" height="214" viewBox="0 0 500 214" role="img" aria-label="Encontro Paranormal"><rect x="0.5" y="0.5" width="499" height="213" rx="12" fill="#1c2530" stroke="#2d3f57"/><text x="24" y="32" font-family="'Segoe UI',Helvetica,Arial,sans-serif" font-size="16" font-weight="700" fill="#8aa6c8">Encontro Paranormal</text><line x1="24" y1="42" x2="476" y2="42" stroke="#2d3f57"/><circle cx="30" cy="60" r="6" fill="#46607c"/><text x="44" y="65" font-family="'Segoe UI',Helvetica,Arial,sans-serif" font-size="15" font-weight="600" fill="#dfe6ee">Sussurro do Medo</text><text x="384" y="65" text-anchor="end" font-family="'Segoe UI',Helvetica,Arial,sans-serif" font-size="11" fill="#9fb0c4">7/13 HP</text><rect x="24" y="74" width="360" height="11" rx="6" fill="#2a3a4d"/><rect x="24" y="74" width="194" height="11" rx="6" fill="#46607c"/><text x="24" y="100" font-family="'Segoe UI',Helvetica,Arial,sans-serif" font-size="11" fill="#9fb0c4">Elemento: Medo</text><text x="24" y="128" font-family="'Segoe UI',Helvetica,Arial,sans-serif" font-size="15" font-weight="600" fill="#dfe6ee">Agente da Ordem</text><text x="384" y="128" text-anchor="end" font-family="'Segoe UI',Helvetica,Arial,sans-serif" font-size="11" fill="#9fb0c4">16/20 HP</text><rect x="24" y="137" width="360" height="11" rx="6" fill="#2a3a4d"/><rect x="24" y="137" width="288" height="11" rx="6" fill="#56b886"/><text x="24" y="166" font-family="'Segoe UI',Helvetica,Arial,sans-serif" font-size="11" fill="#9fb0c4">Derrotadas: 0   ·   Recorde: 0   ·   Rituais: 3</text><text x="24" y="196" font-family="'Segoe UI',Helvetica,Arial,sans-serif" font-size="12.5" fill="#dfe6ee">Você atingiu Sussurro do Medo (6) a criatura revidou (4).</text><g><animateTransform attributeName="transform" type="translate" values="0 0;0 -3;0 0" dur="2.6s" repeatCount="indefinite"/><rect x="424" y="50" width="6" height="6" fill="#46607c"/><rect x="430" y="50" width="6" height="6" fill="#46607c"/><rect x="436" y="50" width="6" height="6" fill="#46607c"/><rect x="442" y="50" width="6" height="6" fill="#46607c"/><rect x="448" y="50" width="6" height="6" fill="#46607c"/><rect x="454" y="50" width="6" height="6" fill="#46607c"/><rect x="418" y="56" width="6" height="6" fill="#46607c"/><rect x="424" y="56" width="6" height="6" fill="#46607c"/><rect x="430" y="56" width="6" height="6" fill="#46607c"/><rect x="436" y="56" width="6" height="6" fill="#46607c"/><rect x="442" y="56" width="6" height="6" fill="#46607c"/><rect x="448" y="56" width="6" height="6" fill="#46607c"/><rect x="454" y="56" width="6" height="6" fill="#46607c"/><rect x="460" y="56" width="6" height="6" fill="#46607c"/><rect x="412" y="62" width="6" height="6" fill="#46607c"/><rect x="418" y="62" width="6" height="6" fill="#46607c"/><rect x="424" y="62" width="6" height="6" fill="#46607c"/><rect x="430" y="62" width="6" height="6" fill="#46607c"/><rect x="436" y="62" width="6" height="6" fill="#46607c"/><rect x="442" y="62" width="6" height="6" fill="#46607c"/><rect x="448" y="62" width="6" height="6" fill="#46607c"/><rect x="454" y="62" width="6" height="6" fill="#46607c"/><rect x="460" y="62" width="6" height="6" fill="#46607c"/><rect x="466" y="62" width="6" height="6" fill="#46607c"/><rect x="412" y="68" width="6" height="6" fill="#46607c"/><rect x="418" y="68" width="6" height="6" fill="#46607c"/><rect x="424" y="68" width="6" height="6" fill="#46607c"/><rect x="430" y="68" width="6" height="6" fill="#46607c"/><rect x="436" y="68" width="6" height="6" fill="#46607c"/><rect x="442" y="68" width="6" height="6" fill="#46607c"/><rect x="448" y="68" width="6" height="6" fill="#46607c"/><rect x="454" y="68" width="6" height="6" fill="#46607c"/><rect x="460" y="68" width="6" height="6" fill="#46607c"/><rect x="466" y="68" width="6" height="6" fill="#46607c"/><rect x="412" y="74" width="6" height="6" fill="#46607c"/><rect x="418" y="74" width="6" height="6" fill="#46607c"/><rect x="424" y="74" width="6" height="6" fill="#f4f4f2"/><rect x="430" y="74" width="6" height="6" fill="#46607c"/><rect x="436" y="74" width="6" height="6" fill="#46607c"/><rect x="442" y="74" width="6" height="6" fill="#46607c"/><rect x="448" y="74" width="6" height="6" fill="#46607c"/><rect x="454" y="74" width="6" height="6" fill="#f4f4f2"/><rect x="460" y="74" width="6" height="6" fill="#46607c"/><rect x="466" y="74" width="6" height="6" fill="#46607c"/><rect x="412" y="80" width="6" height="6" fill="#46607c"/><rect x="418" y="80" width="6" height="6" fill="#46607c"/><rect x="424" y="80" width="6" height="6" fill="#f4f4f2"/><rect x="430" y="80" width="6" height="6" fill="#46607c"/><rect x="436" y="80" width="6" height="6" fill="#46607c"/><rect x="442" y="80" width="6" height="6" fill="#46607c"/><rect x="448" y="80" width="6" height="6" fill="#46607c"/><rect x="454" y="80" width="6" height="6" fill="#f4f4f2"/><rect x="460" y="80" width="6" height="6" fill="#46607c"/><rect x="466" y="80" width="6" height="6" fill="#46607c"/><rect x="412" y="86" width="6" height="6" fill="#46607c"/><rect x="418" y="86" width="6" height="6" fill="#46607c"/><rect x="424" y="86" width="6" height="6" fill="#46607c"/><rect x="430" y="86" width="6" height="6" fill="#46607c"/><rect x="436" y="86" width="6" height="6" fill="#46607c"/><rect x="442" y="86" width="6" height="6" fill="#46607c"/><rect x="448" y="86" width="6" height="6" fill="#46607c"/><rect x="454" y="86" width="6" height="6" fill="#46607c"/><rect x="460" y="86" width="6" height="6" fill="#46607c"/><rect x="466" y="86" width="6" height="6" fill="#46607c"/><rect x="412" y="92" width="6" height="6" fill="#46607c"/><rect x="418" y="92" width="6" height="6" fill="#46607c"/><rect x="424" y="92" width="6" height="6" fill="#46607c"/><rect x="430" y="92" width="6" height="6" fill="#46607c"/><rect x="436" y="92" width="6" height="6" fill="#46607c"/><rect x="442" y="92" width="6" height="6" fill="#46607c"/><rect x="448" y="92" width="6" height="6" fill="#46607c"/><rect x="454" y="92" width="6" height="6" fill="#46607c"/><rect x="460" y="92" width="6" height="6" fill="#46607c"/><rect x="466" y="92" width="6" height="6" fill="#46607c"/><rect x="412" y="98" width="6" height="6" fill="#46607c"/><rect x="418" y="98" width="6" height="6" fill="#46607c"/><rect x="424" y="98" width="6" height="6" fill="#46607c"/><rect x="430" y="98" width="6" height="6" fill="#46607c"/><rect x="436" y="98" width="6" height="6" fill="#46607c"/><rect x="442" y="98" width="6" height="6" fill="#46607c"/><rect x="448" y="98" width="6" height="6" fill="#46607c"/><rect x="454" y="98" width="6" height="6" fill="#46607c"/><rect x="460" y="98" width="6" height="6" fill="#46607c"/><rect x="466" y="98" width="6" height="6" fill="#46607c"/><rect x="412" y="104" width="6" height="6" fill="#46607c"/><rect x="418" y="104" width="6" height="6" fill="#46607c"/><rect x="424" y="104" width="6" height="6" fill="#46607c"/><rect x="430" y="104" width="6" height="6" fill="#46607c"/><rect x="436" y="104" width="6" height="6" fill="#46607c"/><rect x="442" y="104" width="6" height="6" fill="#46607c"/><rect x="448" y="104" width="6" height="6" fill="#46607c"/><rect x="454" y="104" width="6" height="6" fill="#46607c"/><rect x="460" y="104" width="6" height="6" fill="#46607c"/><rect x="466" y="104" width="6" height="6" fill="#46607c"/><rect x="412" y="110" width="6" height="6" fill="#46607c"/><rect x="424" y="110" width="6" height="6" fill="#46607c"/><rect x="430" y="110" width="6" height="6" fill="#46607c"/><rect x="436" y="110" width="6" height="6" fill="#46607c"/><rect x="442" y="110" width="6" height="6" fill="#46607c"/><rect x="454" y="110" width="6" height="6" fill="#46607c"/><rect x="466" y="110" width="6" height="6" fill="#46607c"/></g><g><animateTransform attributeName="transform" type="rotate" from="0 446 150" to="360 446 150" dur="0.7s" repeatCount="1" fill="freeze"/><path d="M446.0,128.0 465.1,139.0 465.1,161.0 446.0,172.0 426.9,161.0 426.9,139.0 Z" fill="#3a4f6a" stroke="#9fb0c4" stroke-width="1.6" stroke-linejoin="round"/><path d="M446.0,136.8 434.6,157.5 457.4,157.5 Z" fill="#4A6FA5" stroke="#9fb0c4" stroke-width="1"/><text x="446" y="154.6" text-anchor="middle" font-family="'Segoe UI',Helvetica,Arial,sans-serif" font-size="13" font-weight="800" fill="#ffffff">20</text></g><text x="446" y="188" text-anchor="middle" font-family="'Segoe UI',Helvetica,Arial,sans-serif" font-size="9" fill="#9fb0c4">último d20</text></svg>
