<svg xmlns="http://www.w3.org/2000/svg" width="480" height="210" viewBox="0 0 480 210" role="img" aria-label="Linguagens mais usadas"><!--t:2026-09-11T11:03:55-2-->
  <defs><clipPath id="r"><rect x="24" y="66" width="432" height="14" rx="7"/></clipPath><linearGradient id="gloss" x1="0" y1="0" x2="0" y2="1"><stop offset="0%" stop-color="#ffffff" stop-opacity="0.32"/><stop offset="42%" stop-color="#ffffff" stop-opacity="0"/><stop offset="58%" stop-color="#000000" stop-opacity="0"/><stop offset="100%" stop-color="#000000" stop-opacity="0.22"/></linearGradient><linearGradient id="g0" x1="0" y1="0" x2="1" y2="0"><stop offset="0%" stop-color="#4338ca"/><stop offset="20%" stop-color="#4338CA"/><stop offset="80%" stop-color="#4338CA"/><stop offset="100%" stop-color="#3f67da"/></linearGradient><linearGradient id="g1" x1="0" y1="0" x2="1" y2="0"><stop offset="0%" stop-color="#3c8ee8"/><stop offset="20%" stop-color="#38BDF8"/><stop offset="80%" stop-color="#38BDF8"/><stop offset="100%" stop-color="#559bf7"/></linearGradient><linearGradient id="g2" x1="0" y1="0" x2="1" y2="0"><stop offset="0%" stop-color="#6e7ef7"/><stop offset="20%" stop-color="#8B5CF6"/><stop offset="80%" stop-color="#8B5CF6"/><stop offset="100%" stop-color="#ac7aa3"/></linearGradient><linearGradient id="g3" x1="0" y1="0" x2="1" y2="0"><stop offset="0%" stop-color="#c9955b"/><stop offset="20%" stop-color="#EAB308"/><stop offset="80%" stop-color="#EAB308"/><stop offset="100%" stop-color="#ec8c1d"/></linearGradient><linearGradient id="g4" x1="0" y1="0" x2="1" y2="0"><stop offset="0%" stop-color="#ed6b2f"/><stop offset="20%" stop-color="#EF4444"/><stop offset="80%" stop-color="#EF4444"/><stop offset="100%" stop-color="#ee4562"/></linearGradient><linearGradient id="g5" x1="0" y1="0" x2="1" y2="0"><stop offset="0%" stop-color="#ed477b"/><stop offset="20%" stop-color="#EC4899"/><stop offset="80%" stop-color="#EC4899"/><stop offset="100%" stop-color="#a06f9e"/></linearGradient><linearGradient id="g6" x1="0" y1="0" x2="1" y2="0"><stop offset="0%" stop-color="#6091a1"/><stop offset="20%" stop-color="#14B8A6"/><stop offset="80%" stop-color="#14B8A6"/><stop offset="100%" stop-color="#63af70"/></linearGradient><linearGradient id="g7" x1="0" y1="0" x2="1" y2="0"><stop offset="0%" stop-color="#a6a741"/><stop offset="20%" stop-color="#F59E0B"/><stop offset="80%" stop-color="#F59E0B"/><stop offset="100%" stop-color="#d3a048"/></linearGradient><linearGradient id="g8" x1="0" y1="0" x2="1" y2="0"><stop offset="0%" stop-color="#b6a17b"/><stop offset="20%" stop-color="#94A3B8"/><stop offset="80%" stop-color="#94A3B8"/><stop offset="100%" stop-color="#94a3b8"/></linearGradient></defs>
  <rect x="0.5" y="0.5" width="479" height="209" rx="10" fill="#F4F4F2" stroke="#DDE1E6"/>
  <text x="24" y="38" font-family="'Segoe UI',Helvetica,Arial,sans-serif" font-size="16" font-weight="700" fill="#36567D">Linguagens de programação &#183; todos os repos</text>
  <line x1="24" y1="50" x2="456" y2="50" stroke="#DDE1E6"/>
  <g clip-path="url(#r)"><rect x="24.0" y="66" width="219.7" height="14" fill="url(#g0)"/><rect x="24.0" y="66" width="219.7" height="14" fill="url(#gloss)"/><rect x="245.7" y="66" width="98.1" height="14" fill="url(#g1)"/><rect x="245.7" y="66" width="98.1" height="14" fill="url(#gloss)"/><rect x="345.8" y="66" width="54.6" height="14" fill="url(#g2)"/><rect x="345.8" y="66" width="54.6" height="14" fill="url(#gloss)"/><rect x="402.4" y="66" width="26.9" height="14" fill="url(#g3)"/><rect x="402.4" y="66" width="26.9" height="14" fill="url(#gloss)"/><rect x="431.3" y="66" width="16.2" height="14" fill="url(#g4)"/><rect x="431.3" y="66" width="16.2" height="14" fill="url(#gloss)"/><rect x="449.5" y="66" width="2.8" height="14" fill="url(#g5)"/><rect x="449.5" y="66" width="2.8" height="14" fill="url(#gloss)"/><rect x="454.3" y="66" width="2.0" height="14" fill="url(#g6)"/><rect x="454.3" y="66" width="2.0" height="14" fill="url(#gloss)"/><rect x="455.9" y="66" width="2.0" height="14" fill="url(#g7)"/><rect x="455.9" y="66" width="2.0" height="14" fill="url(#gloss)"/><rect x="456.0" y="66" width="2.0" height="14" fill="url(#g8)"/><rect x="456.0" y="66" width="2.0" height="14" fill="url(#gloss)"/></g>
  <circle cx="28" cy="100" r="5" fill="#4338CA" stroke="#322a98" stroke-width="0.75"/><text x="40" y="104" font-family="'Segoe UI',Helvetica,Arial,sans-serif" font-size="13" fill="#5A6B7B">Python 51.3%</text><circle cx="258" cy="100" r="5" fill="#38BDF8" stroke="#2a8eba" stroke-width="0.75"/><text x="270" y="104" font-family="'Segoe UI',Helvetica,Arial,sans-serif" font-size="13" fill="#5A6B7B">TypeScript 23.2%</text><circle cx="28" cy="122" r="5" fill="#8B5CF6" stroke="#6845b8" stroke-width="0.75"/><text x="40" y="126" font-family="'Segoe UI',Helvetica,Arial,sans-serif" font-size="13" fill="#5A6B7B">PHP 13.1%</text><circle cx="258" cy="122" r="5" fill="#EAB308" stroke="#b08606" stroke-width="0.75"/><text x="270" y="126" font-family="'Segoe UI',Helvetica,Arial,sans-serif" font-size="13" fill="#5A6B7B">JavaScript 6.7%</text><circle cx="28" cy="144" r="5" fill="#EF4444" stroke="#b33333" stroke-width="0.75"/><text x="40" y="148" font-family="'Segoe UI',Helvetica,Arial,sans-serif" font-size="13" fill="#5A6B7B">Blade 4.2%</text><circle cx="258" cy="144" r="5" fill="#EC4899" stroke="#b13673" stroke-width="0.75"/><text x="270" y="148" font-family="'Segoe UI',Helvetica,Arial,sans-serif" font-size="13" fill="#5A6B7B">PowerShell 1.1%</text><circle cx="28" cy="166" r="5" fill="#14B8A6" stroke="#0f8a7c" stroke-width="0.75"/><text x="40" y="170" font-family="'Segoe UI',Helvetica,Arial,sans-serif" font-size="13" fill="#5A6B7B">Shell 0.4%</text><circle cx="258" cy="166" r="5" fill="#F59E0B" stroke="#b87608" stroke-width="0.75"/><text x="270" y="170" font-family="'Segoe UI',Helvetica,Arial,sans-serif" font-size="13" fill="#5A6B7B">Batchfile 0.0%</text><circle cx="28" cy="188" r="5" fill="#94A3B8" stroke="#6f7a8a" stroke-width="0.75"/><text x="40" y="192" font-family="'Segoe UI',Helvetica,Arial,sans-serif" font-size="13" fill="#5A6B7B">Outros 0.0%</text>
</svg>
