<svg xmlns="http://www.w3.org/2000/svg" width="480" height="210" viewBox="0 0 480 210" role="img" aria-label="Linguagens mais usadas">
  <defs><clipPath id="r"><rect x="24" y="66" width="432" height="14" rx="7"/></clipPath><linearGradient id="gloss" x1="0" y1="0" x2="0" y2="1"><stop offset="0%" stop-color="#ffffff" stop-opacity="0.32"/><stop offset="42%" stop-color="#ffffff" stop-opacity="0"/><stop offset="58%" stop-color="#000000" stop-opacity="0"/><stop offset="100%" stop-color="#000000" stop-opacity="0.22"/></linearGradient><linearGradient id="g0" x1="0" y1="0" x2="1" y2="0"><stop offset="0%" stop-color="#3776ab"/><stop offset="20%" stop-color="#3776AB"/><stop offset="80%" stop-color="#3776AB"/><stop offset="100%" stop-color="#4d78ae"/></linearGradient><linearGradient id="g1" x1="0" y1="0" x2="1" y2="0"><stop offset="0%" stop-color="#6179b1"/><stop offset="20%" stop-color="#777BB4"/><stop offset="80%" stop-color="#777BB4"/><stop offset="100%" stop-color="#9d6c82"/></linearGradient><linearGradient id="g2" x1="0" y1="0" x2="1" y2="0"><stop offset="0%" stop-color="#bd5e58"/><stop offset="20%" stop-color="#E34F26"/><stop offset="80%" stop-color="#E34F26"/><stop offset="100%" stop-color="#a55d5e"/></linearGradient><linearGradient id="g3" x1="0" y1="0" x2="1" y2="0"><stop offset="0%" stop-color="#6f6a8e"/><stop offset="20%" stop-color="#3178C6"/><stop offset="80%" stop-color="#3178C6"/><stop offset="100%" stop-color="#3e63ac"/></linearGradient><linearGradient id="g4" x1="0" y1="0" x2="1" y2="0"><stop offset="0%" stop-color="#495296"/><stop offset="20%" stop-color="#563D7C"/><stop offset="80%" stop-color="#563D7C"/><stop offset="100%" stop-color="#8e4467"/></linearGradient><linearGradient id="g5" x1="0" y1="0" x2="1" y2="0"><stop offset="0%" stop-color="#bf4b54"/><stop offset="20%" stop-color="#F7523F"/><stop offset="80%" stop-color="#F7523F"/><stop offset="100%" stop-color="#f78333"/></linearGradient><linearGradient id="g6" x1="0" y1="0" x2="1" y2="0"><stop offset="0%" stop-color="#f7ae2a"/><stop offset="20%" stop-color="#F7DF1E"/><stop offset="80%" stop-color="#F7DF1E"/><stop offset="100%" stop-color="#bec46c"/></linearGradient><linearGradient id="g7" x1="0" y1="0" x2="1" y2="0"><stop offset="0%" stop-color="#8cacb0"/><stop offset="20%" stop-color="#5391FE"/><stop offset="80%" stop-color="#5391FE"/><stop offset="100%" stop-color="#6a97e6"/></linearGradient><linearGradient id="g8" x1="0" y1="0" x2="1" y2="0"><stop offset="0%" stop-color="#7d9dd0"/><stop offset="20%" stop-color="#94A3B8"/><stop offset="80%" stop-color="#94A3B8"/><stop offset="100%" stop-color="#94a3b8"/></linearGradient></defs>
  <rect x="0.5" y="0.5" width="479" height="209" rx="10" fill="#F4F4F2" stroke="#DDE1E6"/>
  <text x="24" y="38" font-family="'Segoe UI',Helvetica,Arial,sans-serif" font-size="16" font-weight="700" fill="#36567D">Linguagens mais usadas &#183; todos os repos</text>
  <line x1="24" y1="50" x2="456" y2="50" stroke="#DDE1E6"/>
  <g clip-path="url(#r)"><rect x="24.0" y="66" width="195.3" height="14" fill="url(#g0)"/><rect x="24.0" y="66" width="195.3" height="14" fill="url(#gloss)"/><rect x="221.3" y="66" width="89.8" height="14" fill="url(#g1)"/><rect x="221.3" y="66" width="89.8" height="14" fill="url(#gloss)"/><rect x="313.2" y="66" width="34.3" height="14" fill="url(#g2)"/><rect x="313.2" y="66" width="34.3" height="14" fill="url(#gloss)"/><rect x="349.4" y="66" width="27.8" height="14" fill="url(#g3)"/><rect x="349.4" y="66" width="27.8" height="14" fill="url(#gloss)"/><rect x="379.2" y="66" width="26.7" height="14" fill="url(#g4)"/><rect x="379.2" y="66" width="26.7" height="14" fill="url(#gloss)"/><rect x="407.9" y="66" width="21.9" height="14" fill="url(#g5)"/><rect x="407.9" y="66" width="21.9" height="14" fill="url(#gloss)"/><rect x="431.8" y="66" width="8.6" height="14" fill="url(#g6)"/><rect x="431.8" y="66" width="8.6" height="14" fill="url(#gloss)"/><rect x="442.4" y="66" width="8.2" height="14" fill="url(#g7)"/><rect x="442.4" y="66" width="8.2" height="14" fill="url(#gloss)"/><rect x="452.6" y="66" width="3.4" height="14" fill="url(#g8)"/><rect x="452.6" y="66" width="3.4" height="14" fill="url(#gloss)"/></g>
  <circle cx="28" cy="100" r="5" fill="#3776AB" stroke="#295880" stroke-width="0.75"/><text x="40" y="104" font-family="'Segoe UI',Helvetica,Arial,sans-serif" font-size="13" fill="#5A6B7B">Python 45.7%</text><circle cx="258" cy="100" r="5" fill="#777BB4" stroke="#595c87" stroke-width="0.75"/><text x="270" y="104" font-family="'Segoe UI',Helvetica,Arial,sans-serif" font-size="13" fill="#5A6B7B">PHP 21.3%</text><circle cx="28" cy="122" r="5" fill="#E34F26" stroke="#aa3b1c" stroke-width="0.75"/><text x="40" y="126" font-family="'Segoe UI',Helvetica,Arial,sans-serif" font-size="13" fill="#5A6B7B">HTML 8.4%</text><circle cx="258" cy="122" r="5" fill="#3178C6" stroke="#255a94" stroke-width="0.75"/><text x="270" y="126" font-family="'Segoe UI',Helvetica,Arial,sans-serif" font-size="13" fill="#5A6B7B">TypeScript 6.9%</text><circle cx="28" cy="144" r="5" fill="#563D7C" stroke="#402e5d" stroke-width="0.75"/><text x="40" y="148" font-family="'Segoe UI',Helvetica,Arial,sans-serif" font-size="13" fill="#5A6B7B">CSS 6.6%</text><circle cx="258" cy="144" r="5" fill="#F7523F" stroke="#b93e2f" stroke-width="0.75"/><text x="270" y="148" font-family="'Segoe UI',Helvetica,Arial,sans-serif" font-size="13" fill="#5A6B7B">Blade 5.5%</text><circle cx="28" cy="166" r="5" fill="#F7DF1E" stroke="#b9a716" stroke-width="0.75"/><text x="40" y="170" font-family="'Segoe UI',Helvetica,Arial,sans-serif" font-size="13" fill="#5A6B7B">JavaScript 2.5%</text><circle cx="258" cy="166" r="5" fill="#5391FE" stroke="#3e6dbe" stroke-width="0.75"/><text x="270" y="170" font-family="'Segoe UI',Helvetica,Arial,sans-serif" font-size="13" fill="#5A6B7B">PowerShell 2.4%</text><circle cx="28" cy="188" r="5" fill="#94A3B8" stroke="#6f7a8a" stroke-width="0.75"/><text x="40" y="192" font-family="'Segoe UI',Helvetica,Arial,sans-serif" font-size="13" fill="#5A6B7B">Outros 0.8%</text>
</svg>
