<svg xmlns="http://www.w3.org/2000/svg" width="480" height="210" viewBox="0 0 480 210" role="img" aria-label="Linguagens mais usadas">
  <defs><clipPath id="r"><rect x="24" y="66" width="432" height="14" rx="7"/></clipPath></defs>
  <rect x="0.5" y="0.5" width="479" height="209" rx="10" fill="#F4F4F2" stroke="#DDE1E6"/>
  <text x="24" y="38" font-family="'Segoe UI',Helvetica,Arial,sans-serif" font-size="16" font-weight="700" fill="#36567D">Linguagens mais usadas &#183; todos os repos</text>
  <line x1="24" y1="50" x2="456" y2="50" stroke="#DDE1E6"/>
  <g clip-path="url(#r)"><rect x="24.0" y="66" width="195.3" height="14" fill="#3B82F6"/><rect x="221.3" y="66" width="89.8" height="14" fill="#F97316"/><rect x="313.1" y="66" width="34.3" height="14" fill="#EC4899"/><rect x="349.4" y="66" width="27.8" height="14" fill="#22C55E"/><rect x="379.2" y="66" width="26.7" height="14" fill="#EAB308"/><rect x="407.9" y="66" width="21.9" height="14" fill="#A855F7"/><rect x="431.8" y="66" width="8.6" height="14" fill="#EF4444"/><rect x="442.4" y="66" width="8.2" height="14" fill="#14B8A6"/><rect x="452.6" y="66" width="3.4" height="14" fill="#94A3B8"/></g>
  <circle cx="28" cy="100" r="5" fill="#3B82F6"/><text x="40" y="104" font-family="'Segoe UI',Helvetica,Arial,sans-serif" font-size="13" fill="#5A6B7B">Python 45.7%</text><circle cx="258" cy="100" r="5" fill="#F97316"/><text x="270" y="104" font-family="'Segoe UI',Helvetica,Arial,sans-serif" font-size="13" fill="#5A6B7B">PHP 21.3%</text><circle cx="28" cy="122" r="5" fill="#EC4899"/><text x="40" y="126" font-family="'Segoe UI',Helvetica,Arial,sans-serif" font-size="13" fill="#5A6B7B">HTML 8.4%</text><circle cx="258" cy="122" r="5" fill="#22C55E"/><text x="270" y="126" font-family="'Segoe UI',Helvetica,Arial,sans-serif" font-size="13" fill="#5A6B7B">TypeScript 6.9%</text><circle cx="28" cy="144" r="5" fill="#EAB308"/><text x="40" y="148" font-family="'Segoe UI',Helvetica,Arial,sans-serif" font-size="13" fill="#5A6B7B">CSS 6.6%</text><circle cx="258" cy="144" r="5" fill="#A855F7"/><text x="270" y="148" font-family="'Segoe UI',Helvetica,Arial,sans-serif" font-size="13" fill="#5A6B7B">Blade 5.5%</text><circle cx="28" cy="166" r="5" fill="#EF4444"/><text x="40" y="170" font-family="'Segoe UI',Helvetica,Arial,sans-serif" font-size="13" fill="#5A6B7B">JavaScript 2.5%</text><circle cx="258" cy="166" r="5" fill="#14B8A6"/><text x="270" y="170" font-family="'Segoe UI',Helvetica,Arial,sans-serif" font-size="13" fill="#5A6B7B">PowerShell 2.4%</text><circle cx="28" cy="188" r="5" fill="#94A3B8"/><text x="40" y="192" font-family="'Segoe UI',Helvetica,Arial,sans-serif" font-size="13" fill="#5A6B7B">Outros 0.8%</text>
</svg>
