<svg xmlns="http://www.w3.org/2000/svg" width="480" height="210" viewBox="0 0 480 210" role="img" aria-label="Linguagens mais usadas">
  <defs>
    <linearGradient id="lg" x1="0" y1="0" x2="1" y2="0"><stop offset="0%" stop-color="#38BDF8"/><stop offset="35%" stop-color="#5488D8"/><stop offset="66%" stop-color="#7C6BE0"/><stop offset="100%" stop-color="#A855F7"/></linearGradient>
    <clipPath id="r"><rect x="24" y="66" width="432" height="14" rx="7"/></clipPath>
  </defs>
  <rect x="0.5" y="0.5" width="479" height="209" rx="10" fill="#F4F4F2" stroke="#DDE1E6"/>
  <text x="24" y="38" font-family="'Segoe UI',Helvetica,Arial,sans-serif" font-size="16" font-weight="700" fill="#36567D">Linguagens mais usadas &#183; todos os repos</text>
  <line x1="24" y1="50" x2="456" y2="50" stroke="#DDE1E6"/>
  <g clip-path="url(#r)"><rect x="24" y="66" width="432" height="14" fill="url(#lg)"/><rect x="220.5" y="66" width="1.5" height="14" fill="#F4F4F2" opacity="0.5"/><rect x="312.4" y="66" width="1.5" height="14" fill="#F4F4F2" opacity="0.5"/><rect x="348.7" y="66" width="1.5" height="14" fill="#F4F4F2" opacity="0.5"/><rect x="378.5" y="66" width="1.5" height="14" fill="#F4F4F2" opacity="0.5"/><rect x="407.2" y="66" width="1.5" height="14" fill="#F4F4F2" opacity="0.5"/><rect x="431.0" y="66" width="1.5" height="14" fill="#F4F4F2" opacity="0.5"/><rect x="441.7" y="66" width="1.5" height="14" fill="#F4F4F2" opacity="0.5"/><rect x="451.9" y="66" width="1.5" height="14" fill="#F4F4F2" opacity="0.5"/></g>
  <circle cx="28" cy="100" r="5" fill="#4a9ae3"/><text x="40" y="104" font-family="'Segoe UI',Helvetica,Arial,sans-serif" font-size="13" fill="#5A6B7B">Python 45.7%</text><circle cx="258" cy="100" r="5" fill="#6f74dd"/><text x="270" y="104" font-family="'Segoe UI',Helvetica,Arial,sans-serif" font-size="13" fill="#5A6B7B">PHP 21.3%</text><circle cx="28" cy="122" r="5" fill="#8368e3"/><text x="40" y="126" font-family="'Segoe UI',Helvetica,Arial,sans-serif" font-size="13" fill="#5A6B7B">HTML 8.4%</text><circle cx="258" cy="122" r="5" fill="#8d63e9"/><text x="270" y="126" font-family="'Segoe UI',Helvetica,Arial,sans-serif" font-size="13" fill="#5A6B7B">TypeScript 6.9%</text><circle cx="28" cy="144" r="5" fill="#955eed"/><text x="40" y="148" font-family="'Segoe UI',Helvetica,Arial,sans-serif" font-size="13" fill="#5A6B7B">CSS 6.6%</text><circle cx="258" cy="144" r="5" fill="#9d5af1"/><text x="270" y="148" font-family="'Segoe UI',Helvetica,Arial,sans-serif" font-size="13" fill="#5A6B7B">Blade 5.5%</text><circle cx="28" cy="166" r="5" fill="#a258f4"/><text x="40" y="170" font-family="'Segoe UI',Helvetica,Arial,sans-serif" font-size="13" fill="#5A6B7B">JavaScript 2.5%</text><circle cx="258" cy="166" r="5" fill="#a556f6"/><text x="270" y="170" font-family="'Segoe UI',Helvetica,Arial,sans-serif" font-size="13" fill="#5A6B7B">PowerShell 2.4%</text><circle cx="28" cy="188" r="5" fill="#a755f7"/><text x="40" y="192" font-family="'Segoe UI',Helvetica,Arial,sans-serif" font-size="13" fill="#5A6B7B">Outros 0.8%</text>
</svg>
