<svg xmlns="http://www.w3.org/2000/svg" width="480" height="168" viewBox="0 0 480 168" role="img" aria-label="Linguagens mais usadas">
  <rect x="0.5" y="0.5" width="479" height="167" rx="10" fill="#1c2530" stroke="#2d3f57"/>
  <text x="24" y="38" font-family="'Segoe UI',Helvetica,Arial,sans-serif" font-size="16" font-weight="700" fill="#8aa6c8">Linguagens mais usadas &#183; todos os repos</text>
  <line x1="24" y1="50" x2="456" y2="50" stroke="#2d3f57"/>
  <clipPath id="r"><rect x="24" y="66" width="432" height="14" rx="7"/></clipPath>
  <g clip-path="url(#r)"><rect x="24.0" y="66" width="183.4" height="14" fill="#aebccd"/><rect x="207.4" y="66" width="100.5" height="14" fill="#8aa6c8"/><rect x="307.9" y="66" width="34.7" height="14" fill="#6E86A8"/><rect x="342.6" y="66" width="32.6" height="14" fill="#5a78a0"/><rect x="375.2" y="66" width="28.9" height="14" fill="#46618a"/><rect x="404.1" y="66" width="51.9" height="14" fill="#36567D"/></g>
  <circle cx="28" cy="100" r="5" fill="#aebccd"/><text x="40" y="104" font-family="'Segoe UI',Helvetica,Arial,sans-serif" font-size="13" fill="#9fb0c4">Python 42.4%</text><circle cx="258" cy="100" r="5" fill="#8aa6c8"/><text x="270" y="104" font-family="'Segoe UI',Helvetica,Arial,sans-serif" font-size="13" fill="#9fb0c4">PHP 23.3%</text><circle cx="28" cy="122" r="5" fill="#6E86A8"/><text x="40" y="126" font-family="'Segoe UI',Helvetica,Arial,sans-serif" font-size="13" fill="#9fb0c4">HTML 8.0%</text><circle cx="258" cy="122" r="5" fill="#5a78a0"/><text x="270" y="126" font-family="'Segoe UI',Helvetica,Arial,sans-serif" font-size="13" fill="#9fb0c4">TypeScript 7.6%</text><circle cx="28" cy="144" r="5" fill="#46618a"/><text x="40" y="148" font-family="'Segoe UI',Helvetica,Arial,sans-serif" font-size="13" fill="#9fb0c4">CSS 6.7%</text><circle cx="258" cy="144" r="5" fill="#36567D"/><text x="270" y="148" font-family="'Segoe UI',Helvetica,Arial,sans-serif" font-size="13" fill="#9fb0c4">Outros 12.0%</text>
</svg>
