<svg xmlns="http://www.w3.org/2000/svg" width="480" height="210" viewBox="0 0 480 210" role="img" aria-label="Linguagens mais usadas">
  <defs><clipPath id="r"><rect x="24" y="66" width="432" height="14" rx="7"/></clipPath><linearGradient id="g0" x1="0" y1="0" x2="0" y2="1"><stop offset="0%" stop-color="#7ba5c8"/><stop offset="50%" stop-color="#3776AB"/><stop offset="100%" stop-color="#2c5e89"/></linearGradient><linearGradient id="g1" x1="0" y1="0" x2="0" y2="1"><stop offset="0%" stop-color="#a5a8ce"/><stop offset="50%" stop-color="#777BB4"/><stop offset="100%" stop-color="#5f6290"/></linearGradient><linearGradient id="g2" x1="0" y1="0" x2="0" y2="1"><stop offset="0%" stop-color="#ed8b70"/><stop offset="50%" stop-color="#E34F26"/><stop offset="100%" stop-color="#b63f1e"/></linearGradient><linearGradient id="g3" x1="0" y1="0" x2="0" y2="1"><stop offset="0%" stop-color="#77a6d9"/><stop offset="50%" stop-color="#3178C6"/><stop offset="100%" stop-color="#27609e"/></linearGradient><linearGradient id="g4" x1="0" y1="0" x2="0" y2="1"><stop offset="0%" stop-color="#8f7fa9"/><stop offset="50%" stop-color="#563D7C"/><stop offset="100%" stop-color="#453163"/></linearGradient><linearGradient id="g5" x1="0" y1="0" x2="0" y2="1"><stop offset="0%" stop-color="#fa8d80"/><stop offset="50%" stop-color="#F7523F"/><stop offset="100%" stop-color="#c64232"/></linearGradient><linearGradient id="g6" x1="0" y1="0" x2="0" y2="1"><stop offset="0%" stop-color="#faea6a"/><stop offset="50%" stop-color="#F7DF1E"/><stop offset="100%" stop-color="#c6b218"/></linearGradient><linearGradient id="g7" x1="0" y1="0" x2="0" y2="1"><stop offset="0%" stop-color="#8db6fe"/><stop offset="50%" stop-color="#5391FE"/><stop offset="100%" stop-color="#4274cb"/></linearGradient><linearGradient id="g8" x1="0" y1="0" x2="0" y2="1"><stop offset="0%" stop-color="#b8c2d0"/><stop offset="50%" stop-color="#94A3B8"/><stop offset="100%" stop-color="#768293"/></linearGradient></defs>
  <rect x="0.5" y="0.5" width="479" height="209" rx="10" fill="#F4F4F2" stroke="#DDE1E6"/>
  <text x="24" y="38" font-family="'Segoe UI',Helvetica,Arial,sans-serif" font-size="16" font-weight="700" fill="#36567D">Linguagens mais usadas &#183; todos os repos</text>
  <line x1="24" y1="50" x2="456" y2="50" stroke="#DDE1E6"/>
  <g clip-path="url(#r)"><rect x="24.0" y="66" width="195.3" height="14" fill="url(#g0)"/><rect x="221.3" y="66" width="89.8" height="14" fill="url(#g1)"/><rect x="313.1" y="66" width="34.3" height="14" fill="url(#g2)"/><rect x="349.4" y="66" width="27.8" height="14" fill="url(#g3)"/><rect x="379.2" y="66" width="26.7" height="14" fill="url(#g4)"/><rect x="407.9" y="66" width="21.9" height="14" fill="url(#g5)"/><rect x="431.8" y="66" width="8.6" height="14" fill="url(#g6)"/><rect x="442.4" y="66" width="8.2" height="14" fill="url(#g7)"/><rect x="452.6" y="66" width="3.4" height="14" fill="url(#g8)"/><rect x="24" y="66" width="432" height="5.9" fill="#ffffff" opacity="0.12"/></g>
  <circle cx="28" cy="100" r="5" fill="#3776AB" stroke="#295880" stroke-width="0.75"/><text x="40" y="104" font-family="'Segoe UI',Helvetica,Arial,sans-serif" font-size="13" fill="#5A6B7B">Python 45.7%</text><circle cx="258" cy="100" r="5" fill="#777BB4" stroke="#595c87" stroke-width="0.75"/><text x="270" y="104" font-family="'Segoe UI',Helvetica,Arial,sans-serif" font-size="13" fill="#5A6B7B">PHP 21.3%</text><circle cx="28" cy="122" r="5" fill="#E34F26" stroke="#aa3b1c" stroke-width="0.75"/><text x="40" y="126" font-family="'Segoe UI',Helvetica,Arial,sans-serif" font-size="13" fill="#5A6B7B">HTML 8.4%</text><circle cx="258" cy="122" r="5" fill="#3178C6" stroke="#255a94" stroke-width="0.75"/><text x="270" y="126" font-family="'Segoe UI',Helvetica,Arial,sans-serif" font-size="13" fill="#5A6B7B">TypeScript 6.9%</text><circle cx="28" cy="144" r="5" fill="#563D7C" stroke="#402e5d" stroke-width="0.75"/><text x="40" y="148" font-family="'Segoe UI',Helvetica,Arial,sans-serif" font-size="13" fill="#5A6B7B">CSS 6.6%</text><circle cx="258" cy="144" r="5" fill="#F7523F" stroke="#b93e2f" stroke-width="0.75"/><text x="270" y="148" font-family="'Segoe UI',Helvetica,Arial,sans-serif" font-size="13" fill="#5A6B7B">Blade 5.5%</text><circle cx="28" cy="166" r="5" fill="#F7DF1E" stroke="#b9a716" stroke-width="0.75"/><text x="40" y="170" font-family="'Segoe UI',Helvetica,Arial,sans-serif" font-size="13" fill="#5A6B7B">JavaScript 2.5%</text><circle cx="258" cy="166" r="5" fill="#5391FE" stroke="#3e6dbe" stroke-width="0.75"/><text x="270" y="170" font-family="'Segoe UI',Helvetica,Arial,sans-serif" font-size="13" fill="#5A6B7B">PowerShell 2.4%</text><circle cx="28" cy="188" r="5" fill="#94A3B8" stroke="#6f7a8a" stroke-width="0.75"/><text x="40" y="192" font-family="'Segoe UI',Helvetica,Arial,sans-serif" font-size="13" fill="#5A6B7B">Outros 0.8%</text>
</svg>
