<svg xmlns="http://www.w3.org/2000/svg" width="480" height="168" viewBox="0 0 480 168" role="img" aria-label="Linguagens mais usadas">
  <rect x="0.5" y="0.5" width="479" height="167" rx="10" fill="#1c2530" stroke="#2d3f57"/>
  <text x="24" y="38" font-family="'Segoe UI',Helvetica,Arial,sans-serif" font-size="16" font-weight="700" fill="#8aa6c8">Linguagens mais usadas &#183; todos os repos</text>
  <line x1="24" y1="50" x2="456" y2="50" stroke="#2d3f57"/>
  <clipPath id="r"><rect x="24" y="66" width="432" height="14" rx="7"/></clipPath>
  <g clip-path="url(#r)"><rect x="24.0" y="66" width="258.8" height="14" fill="#aebccd"/><rect x="282.8" y="66" width="48.8" height="14" fill="#8aa6c8"/><rect x="331.6" y="66" width="48.2" height="14" fill="#6E86A8"/><rect x="379.8" y="66" width="38.3" height="14" fill="#5a78a0"/><rect x="418.1" y="66" width="15.7" height="14" fill="#46618a"/><rect x="433.9" y="66" width="22.1" height="14" fill="#36567D"/></g>
  <circle cx="28" cy="100" r="5" fill="#aebccd"/><text x="40" y="104" font-family="'Segoe UI',Helvetica,Arial,sans-serif" font-size="13" fill="#9fb0c4">Python 59.9%</text><circle cx="258" cy="100" r="5" fill="#8aa6c8"/><text x="270" y="104" font-family="'Segoe UI',Helvetica,Arial,sans-serif" font-size="13" fill="#9fb0c4">HTML 11.3%</text><circle cx="28" cy="122" r="5" fill="#6E86A8"/><text x="40" y="126" font-family="'Segoe UI',Helvetica,Arial,sans-serif" font-size="13" fill="#9fb0c4">PHP 11.2%</text><circle cx="258" cy="122" r="5" fill="#5a78a0"/><text x="270" y="126" font-family="'Segoe UI',Helvetica,Arial,sans-serif" font-size="13" fill="#9fb0c4">CSS 8.9%</text><circle cx="28" cy="144" r="5" fill="#46618a"/><text x="40" y="148" font-family="'Segoe UI',Helvetica,Arial,sans-serif" font-size="13" fill="#9fb0c4">PowerShell 3.6%</text><circle cx="258" cy="144" r="5" fill="#36567D"/><text x="270" y="148" font-family="'Segoe UI',Helvetica,Arial,sans-serif" font-size="13" fill="#9fb0c4">Outros 5.1%</text>
</svg>
