<svg xmlns="http://www.w3.org/2000/svg" width="480" height="168" viewBox="0 0 480 168" role="img" aria-label="Linguagens mais usadas">
  <rect x="0.5" y="0.5" width="479" height="167" rx="10" fill="#F4F4F2" stroke="#DDE1E6"/>
  <text x="24" y="38" font-family="'Segoe UI',Helvetica,Arial,sans-serif" font-size="16" font-weight="700" fill="#36567D">Linguagens mais usadas &#183; todos os repos</text>
  <line x1="24" y1="50" x2="456" y2="50" stroke="#DDE1E6"/>
  <clipPath id="r"><rect x="24" y="66" width="432" height="14" rx="7"/></clipPath>
  <g clip-path="url(#r)"><rect x="24.0" y="66" width="191.1" height="14" fill="#36567D"/><rect x="215.1" y="66" width="95.7" height="14" fill="#4A6FA5"/><rect x="310.7" y="66" width="35.0" height="14" fill="#6E86A8"/><rect x="345.7" y="66" width="31.0" height="14" fill="#9aabc6"/><rect x="376.7" y="66" width="29.0" height="14" fill="#b9c4d6"/><rect x="405.7" y="66" width="50.3" height="14" fill="#d2dae6"/></g>
  <circle cx="28" cy="100" r="5" fill="#36567D"/><text x="40" y="104" font-family="'Segoe UI',Helvetica,Arial,sans-serif" font-size="13" fill="#5A6B7B">Python 44.2%</text><circle cx="258" cy="100" r="5" fill="#4A6FA5"/><text x="270" y="104" font-family="'Segoe UI',Helvetica,Arial,sans-serif" font-size="13" fill="#5A6B7B">PHP 22.1%</text><circle cx="28" cy="122" r="5" fill="#6E86A8"/><text x="40" y="126" font-family="'Segoe UI',Helvetica,Arial,sans-serif" font-size="13" fill="#5A6B7B">HTML 8.1%</text><circle cx="258" cy="122" r="5" fill="#9aabc6"/><text x="270" y="126" font-family="'Segoe UI',Helvetica,Arial,sans-serif" font-size="13" fill="#5A6B7B">TypeScript 7.2%</text><circle cx="28" cy="144" r="5" fill="#b9c4d6"/><text x="40" y="148" font-family="'Segoe UI',Helvetica,Arial,sans-serif" font-size="13" fill="#5A6B7B">CSS 6.7%</text><circle cx="258" cy="144" r="5" fill="#d2dae6"/><text x="270" y="148" font-family="'Segoe UI',Helvetica,Arial,sans-serif" font-size="13" fill="#5A6B7B">Outros 11.6%</text>
</svg>
