<svg xmlns="http://www.w3.org/2000/svg" width="480" height="210" viewBox="0 0 480 210" role="img" aria-label="Linguagens mais usadas">
  <defs>
    <linearGradient id="lg" x1="0" y1="0" x2="1" y2="0"><stop offset="0%" stop-color="#FF5C5C"/><stop offset="20%" stop-color="#FFB13D"/><stop offset="40%" stop-color="#FFE24D"/><stop offset="58%" stop-color="#4ADE80"/><stop offset="78%" stop-color="#38BDF8"/><stop offset="100%" stop-color="#A855F7"/></linearGradient>
    <clipPath id="r"><rect x="24" y="66" width="432" height="14" rx="7"/></clipPath>
  </defs>
  <rect x="0.5" y="0.5" width="479" height="209" rx="10" fill="#1c2530" stroke="#2d3f57"/>
  <text x="24" y="38" font-family="'Segoe UI',Helvetica,Arial,sans-serif" font-size="16" font-weight="700" fill="#8aa6c8">Linguagens mais usadas &#183; todos os repos</text>
  <line x1="24" y1="50" x2="456" y2="50" stroke="#2d3f57"/>
  <g clip-path="url(#r)"><rect x="24" y="66" width="432" height="14" fill="url(#lg)"/><rect x="220.5" y="66" width="1.5" height="14" fill="#1c2530" opacity="0.5"/><rect x="312.4" y="66" width="1.5" height="14" fill="#1c2530" opacity="0.5"/><rect x="348.7" y="66" width="1.5" height="14" fill="#1c2530" opacity="0.5"/><rect x="378.5" y="66" width="1.5" height="14" fill="#1c2530" opacity="0.5"/><rect x="407.2" y="66" width="1.5" height="14" fill="#1c2530" opacity="0.5"/><rect x="431.0" y="66" width="1.5" height="14" fill="#1c2530" opacity="0.5"/><rect x="441.7" y="66" width="1.5" height="14" fill="#1c2530" opacity="0.5"/><rect x="451.9" y="66" width="1.5" height="14" fill="#1c2530" opacity="0.5"/></g>
  <circle cx="28" cy="100" r="5" fill="#ffb83f"/><text x="40" y="104" font-family="'Segoe UI',Helvetica,Arial,sans-serif" font-size="13" fill="#9fb0c4">Python 45.7%</text><circle cx="258" cy="100" r="5" fill="#5bde7b"/><text x="270" y="104" font-family="'Segoe UI',Helvetica,Arial,sans-serif" font-size="13" fill="#9fb0c4">PHP 21.3%</text><circle cx="28" cy="122" r="5" fill="#3ec8cf"/><text x="40" y="126" font-family="'Segoe UI',Helvetica,Arial,sans-serif" font-size="13" fill="#9fb0c4">HTML 8.4%</text><circle cx="258" cy="122" r="5" fill="#3cb9f8"/><text x="270" y="126" font-family="'Segoe UI',Helvetica,Arial,sans-serif" font-size="13" fill="#9fb0c4">TypeScript 6.9%</text><circle cx="28" cy="144" r="5" fill="#5e99f8"/><text x="40" y="148" font-family="'Segoe UI',Helvetica,Arial,sans-serif" font-size="13" fill="#9fb0c4">CSS 6.6%</text><circle cx="258" cy="144" r="5" fill="#7d7df7"/><text x="270" y="148" font-family="'Segoe UI',Helvetica,Arial,sans-serif" font-size="13" fill="#9fb0c4">Blade 5.5%</text><circle cx="28" cy="166" r="5" fill="#926af7"/><text x="40" y="170" font-family="'Segoe UI',Helvetica,Arial,sans-serif" font-size="13" fill="#9fb0c4">JavaScript 2.5%</text><circle cx="258" cy="166" r="5" fill="#9e5ef7"/><text x="270" y="170" font-family="'Segoe UI',Helvetica,Arial,sans-serif" font-size="13" fill="#9fb0c4">PowerShell 2.4%</text><circle cx="28" cy="188" r="5" fill="#a657f7"/><text x="40" y="192" font-family="'Segoe UI',Helvetica,Arial,sans-serif" font-size="13" fill="#9fb0c4">Outros 0.8%</text>
</svg>
