<svg xmlns="http://www.w3.org/2000/svg" width="480" height="210" viewBox="0 0 480 210" role="img" aria-label="Linguagens mais usadas">
  <defs><clipPath id="r"><rect x="24" y="66" width="432" height="14" rx="7"/></clipPath></defs>
  <rect x="0.5" y="0.5" width="479" height="209" rx="10" fill="#1c2530" stroke="#2d3f57"/>
  <text x="24" y="38" font-family="'Segoe UI',Helvetica,Arial,sans-serif" font-size="16" font-weight="700" fill="#8aa6c8">Linguagens mais usadas &#183; todos os repos</text>
  <line x1="24" y1="50" x2="456" y2="50" stroke="#2d3f57"/>
  <g clip-path="url(#r)"><rect x="24.0" y="66" width="195.3" height="14" fill="#4E79A7"/><rect x="221.3" y="66" width="89.8" height="14" fill="#F28E2B"/><rect x="313.1" y="66" width="34.3" height="14" fill="#E15759"/><rect x="349.4" y="66" width="27.8" height="14" fill="#59A14F"/><rect x="379.2" y="66" width="26.7" height="14" fill="#EDC948"/><rect x="407.9" y="66" width="21.9" height="14" fill="#B07AA1"/><rect x="431.8" y="66" width="8.6" height="14" fill="#76B7B2"/><rect x="442.4" y="66" width="8.2" height="14" fill="#FF9DA7"/><rect x="452.6" y="66" width="3.4" height="14" fill="#BAB0AC"/></g>
  <circle cx="28" cy="100" r="5" fill="#4E79A7"/><text x="40" y="104" font-family="'Segoe UI',Helvetica,Arial,sans-serif" font-size="13" fill="#9fb0c4">Python 45.7%</text><circle cx="258" cy="100" r="5" fill="#F28E2B"/><text x="270" y="104" font-family="'Segoe UI',Helvetica,Arial,sans-serif" font-size="13" fill="#9fb0c4">PHP 21.3%</text><circle cx="28" cy="122" r="5" fill="#E15759"/><text x="40" y="126" font-family="'Segoe UI',Helvetica,Arial,sans-serif" font-size="13" fill="#9fb0c4">HTML 8.4%</text><circle cx="258" cy="122" r="5" fill="#59A14F"/><text x="270" y="126" font-family="'Segoe UI',Helvetica,Arial,sans-serif" font-size="13" fill="#9fb0c4">TypeScript 6.9%</text><circle cx="28" cy="144" r="5" fill="#EDC948"/><text x="40" y="148" font-family="'Segoe UI',Helvetica,Arial,sans-serif" font-size="13" fill="#9fb0c4">CSS 6.6%</text><circle cx="258" cy="144" r="5" fill="#B07AA1"/><text x="270" y="148" font-family="'Segoe UI',Helvetica,Arial,sans-serif" font-size="13" fill="#9fb0c4">Blade 5.5%</text><circle cx="28" cy="166" r="5" fill="#76B7B2"/><text x="40" y="170" font-family="'Segoe UI',Helvetica,Arial,sans-serif" font-size="13" fill="#9fb0c4">JavaScript 2.5%</text><circle cx="258" cy="166" r="5" fill="#FF9DA7"/><text x="270" y="170" font-family="'Segoe UI',Helvetica,Arial,sans-serif" font-size="13" fill="#9fb0c4">PowerShell 2.4%</text><circle cx="28" cy="188" r="5" fill="#BAB0AC"/><text x="40" y="192" font-family="'Segoe UI',Helvetica,Arial,sans-serif" font-size="13" fill="#9fb0c4">Outros 0.8%</text>
</svg>
