<svg xmlns="http://www.w3.org/2000/svg" width="90" height="22" viewBox="0 0 90 22" role="img" aria-label="Privado"><g transform="translate(0.5,0.5)"><rect width="89" height="21" rx="8" fill="#22303f" stroke="#3a4f6a"/><g transform="translate(13,2.69) scale(0.6508)"><path fill="#c3ced9" d="M12 2a5 5 0 0 0-5 5v3H6a2 2 0 0 0-2 2v8a2 2 0 0 0 2 2h12a2 2 0 0 0 2-2v-8a2 2 0 0 0-2-2h-1V7a5 5 0 0 0-5-5m0 2a3 3 0 0 1 3 3v3H9V7a3 3 0 0 1 3-3"/></g><text x="37" y="14" text-anchor="start" font-family="'Segoe UI',Helvetica,Arial,sans-serif" font-size="11" font-weight="600" fill="#eef2f7">Privado</text></g></svg>
