<svg xmlns="http://www.w3.org/2000/svg" width="325" height="68" viewBox="0 0 325 68" role="img"><g transform="translate(0.5,0.5)"><rect width="100" height="29" rx="8" fill="#4A6FA5"/><g transform="translate(13,4.56) scale(0.8283)"><path d="M14.25.18l.9.2.73.26.59.3.45.32.34.34.25.34.16.33.1.3.04.26.02.2-.01.13V8.5l-.05.63-.13.55-.21.46-.26.38-.3.31-.33.25-.35.19-.35.14-.33.1-.3.07-.26.04-.21.02H8.77l-.69.05-.59.14-.5.22-.41.27-.33.32-.27.35-.2.36-.15.37-.1.35-.07.32-.04.27-.02.21v3.06H3.17l-.21-.03-.28-.07-.32-.12-.35-.18-.36-.26-.36-.36-.35-.46-.32-.59-.28-.73-.21-.88-.14-1.05-.05-1.23.06-1.22.16-1.04.24-.87.32-.71.36-.57.4-.44.42-.33.42-.24.4-.16.36-.1.32-.05.24-.01h.16l.06.01h8.16v-.83H6.18l-.01-2.75-.02-.37.05-.34.11-.31.17-.28.25-.26.31-.23.38-.2.44-.18.51-.15.58-.12.64-.1.71-.06.77-.04.84-.02 1.27.05zm-6.3 1.98l-.23.33-.08.41.08.41.23.34.33.22.41.09.41-.09.33-.22.23-.34.08-.41-.08-.41-.23-.33-.33-.22-.41-.09-.41.09zm13.09 3.95l.28.06.32.12.35.18.36.27.36.35.35.47.32.59.28.73.21.88.14 1.04.05 1.23-.06 1.23-.16 1.04-.24.86-.32.71-.36.57-.4.45-.42.33-.42.24-.4.16-.36.09-.32.05-.24.02-.16-.01h-8.22v.82h5.84l.01 2.76.02.36-.05.34-.11.31-.17.29-.25.25-.31.24-.38.2-.44.17-.51.15-.58.13-.64.09-.71.07-.77.04-.84.01-1.27-.04-1.07-.14-.9-.2-.73-.25-.59-.3-.45-.33-.34-.34-.25-.34-.16-.33-.1-.3-.04-.25-.02-.2.01-.13v-5.34l.05-.64.13-.54.21-.46.26-.38.3-.32.33-.24.35-.2.35-.14.33-.1.3-.06.26-.04.21-.02.13-.01h5.84l.69-.05.59-.14.5-.21.41-.28.33-.32.27-.35.2-.36.15-.36.1-.35.07-.32.04-.28.02-.21V6.07h2.09l.14.01zm-6.47 14.25l-.23.33-.08.41.08.41.23.33.33.23.41.08.41-.08.33-.23.23-.33.08-.41-.08-.41-.23-.33-.33-.23-.41-.08-.41.08z" fill="#ffffff"/></g><text x="41" y="19" text-anchor="start" font-family="'Segoe UI',Helvetica,Arial,sans-serif" font-size="14" font-weight="600" fill="#ffffff">Python</text></g><g transform="translate(108.5,0.5)"><rect width="108" height="29" rx="8" fill="#4A6FA5"/><g transform="translate(13,4.56) scale(0.8283)"><path d="M12 .0387C5.3729.0384.0003 5.3931 0 11.9988c-.001 6.6066 5.372 11.9628 12 11.9625 6.628.0003 12.001-5.3559 12-11.9625-.0003-6.6057-5.3729-11.9604-12-11.96m-.829 5.4153h7.55l-7.5805 5.3284h5.1828L5.279 18.5436q2.9466-6.5444 5.892-13.0896" fill="#ffffff"/></g><text x="41" y="19" text-anchor="start" font-family="'Segoe UI',Helvetica,Arial,sans-serif" font-size="14" font-weight="600" fill="#ffffff">FastAPI</text></g><g transform="translate(224.5,0.5)"><rect width="100" height="29" rx="8" fill="#4A6FA5"/><g transform="translate(13,4.56) scale(0.8283)"><path d="M22.282 9.821a6 6 0 0 0-.516-4.91a6.05 6.05 0 0 0-6.51-2.9A6.065 6.065 0 0 0 4.981 4.18a6 6 0 0 0-3.998 2.9a6.05 6.05 0 0 0 .743 7.097a5.98 5.98 0 0 0 .51 4.911a6.05 6.05 0 0 0 6.515 2.9A6 6 0 0 0 13.26 24a6.06 6.06 0 0 0 5.772-4.206a6 6 0 0 0 3.997-2.9a6.06 6.06 0 0 0-.747-7.073M13.26 22.43a4.48 4.48 0 0 1-2.876-1.04l.141-.081l4.779-2.758a.8.8 0 0 0 .392-.681v-6.737l2.02 1.168a.07.07 0 0 1 .038.052v5.583a4.504 4.504 0 0 1-4.494 4.494M3.6 18.304a4.47 4.47 0 0 1-.535-3.014l.142.085l4.783 2.759a.77.77 0 0 0 .78 0l5.843-3.369v2.332a.08.08 0 0 1-.033.062L9.74 19.95a4.5 4.5 0 0 1-6.14-1.646M2.34 7.896a4.5 4.5 0 0 1 2.366-1.973V11.6a.77.77 0 0 0 .388.677l5.815 3.354l-2.02 1.168a.08.08 0 0 1-.071 0l-4.83-2.786A4.504 4.504 0 0 1 2.34 7.872zm16.597 3.855l-5.833-3.387L15.119 7.2a.08.08 0 0 1 .071 0l4.83 2.791a4.494 4.494 0 0 1-.676 8.105v-5.678a.79.79 0 0 0-.407-.667m2.01-3.023l-.141-.085l-4.774-2.782a.78.78 0 0 0-.785 0L9.409 9.23V6.897a.07.07 0 0 1 .028-.061l4.83-2.787a4.5 4.5 0 0 1 6.68 4.66zm-12.64 4.135l-2.02-1.164a.08.08 0 0 1-.038-.057V6.075a4.5 4.5 0 0 1 7.375-3.453l-.142.08L8.704 5.46a.8.8 0 0 0-.393.681zm1.097-2.365l2.602-1.5l2.607 1.5v2.999l-2.597 1.5l-2.607-1.5Z" fill="#ffffff"/></g><text x="41" y="19" text-anchor="start" font-family="'Segoe UI',Helvetica,Arial,sans-serif" font-size="14" font-weight="600" fill="#ffffff">OpenAI</text></g><g transform="translate(0.5,38.5)"><rect width="112" height="29" rx="8" fill="#4A6FA5"/><g transform="translate(13,4.56) scale(0.0690)"><path d="M108.634 254.436c9.08 0 16.44 7.361 16.44 16.442s-7.36 16.44-16.44 16.44s-16.442-7.36-16.442-16.44s7.361-16.442 16.442-16.442m91.216-29.998l16.247 4.814L203.2 272.78a8.47 8.47 0 0 1-8.7 6.046l-3.983-.273l-.098.08l-41.39-2.904l1.152-16.906l27.808 1.887l-18.205-26.262l13.926-9.656l18.229 26.295zm-176.837-30.09l16.903 1.197l-1.98 27.804L64.15 205.12l9.677 13.91l-26.248 18.248l26.792 7.895l-4.79 16.255l-43.732-12.885a8.47 8.47 0 0 1-6.058-8.726zM132.15 170.67l30.508 36.832l-13.75 11.389l-18.156-21.92l-5.886 33.702l-17.587-3.074l5.892-33.755l-24.442 14.412l-9.063-15.383l41.079-24.2a8.93 8.93 0 0 1 11.405 1.997m85.354-24.71l15.239-8.292l22.2 40.805a8.675 8.675 0 0 1-1.926 10.69l-3.141 2.714l-32.05 27.893l-11.386-13.09l21.548-18.747l-32.095-5.781l3.078-17.074l32.073 5.779zM37.782 103.298l11.48 13.008l-21.251 18.743l32.156 5.614l-2.98 17.091l-32.192-5.618l13.827 24.998l-15.18 8.398l-22.558-40.776a8.675 8.675 0 0 1 1.85-10.703zm108.694-13.42l30.404 36.734l-13.753 11.384l-18.152-21.93l-5.886 33.712l-17.587-3.074l5.872-33.624l-24.349 14.274l-9.027-15.403l37.4-21.929l.038-.142l.165.021l3.485-2.032a8.93 8.93 0 0 1 11.39 2.01m39.18-18.065l6.65-16.024l43.012 17.85a8.675 8.675 0 0 1 5.218 9.517l-.716 3.982l-7.345 41.78l-17.086-3.01l4.924-27.968l-28.537 15.772l-8.386-15.188l28.591-15.784zm-81.939-31.577l.74 17.334l-28.414 1.214l21.43 24.49l-13.056 11.424L62.95 70.173l-5.001 28l-17.078-3.054l8.184-45.759a8.674 8.674 0 0 1 8.17-7.139l4.02-.18l.09-.065zm58.121-36.965l30.267 36.965l-13.814 11.31l-17.964-21.943l-6.059 33.668l-17.57-3.162l6.068-33.743l-24.526 14.34l-9.007-15.415L150.428 1.22a8.93 8.93 0 0 1 11.41 2.052" fill="#ffffff"/></g><text x="39" y="19" text-anchor="start" font-family="'Segoe UI',Helvetica,Arial,sans-serif" font-size="14" font-weight="600" fill="#ffffff">Pinecone</text></g></svg>
