<svg xmlns="http://www.w3.org/2000/svg" width="458" height="76" viewBox="0 0 458 76" role="img"><g transform="translate(0.5,0.5)"><rect width="100" height="33" rx="8" fill="#22303f" stroke="#3a4f6a"/><g transform="translate(13,6.60) scale(0.0777)"><defs><linearGradient id="ic1_SVGg39WleeP" x1="12.959%" x2="79.639%" y1="12.039%" y2="78.201%"><stop offset="0%" stop-color="#387eb8"/><stop offset="100%" stop-color="#366994"/></linearGradient><linearGradient id="ic1_SVGlXoRkc4T" x1="19.128%" x2="90.742%" y1="20.579%" y2="88.429%"><stop offset="0%" stop-color="#ffe052"/><stop offset="100%" stop-color="#ffc331"/></linearGradient></defs><path fill="url(#ic1_SVGg39WleeP)" d="M126.916.072c-64.832 0-60.784 28.115-60.784 28.115l.072 29.128h61.868v8.745H41.631S.145 61.355.145 126.77c0 65.417 36.21 63.097 36.21 63.097h21.61v-30.356s-1.165-36.21 35.632-36.21h61.362s34.475.557 34.475-33.319V33.97S194.67.072 126.916.072M92.802 19.66a11.12 11.12 0 0 1 11.13 11.13a11.12 11.12 0 0 1-11.13 11.13a11.12 11.12 0 0 1-11.13-11.13a11.12 11.12 0 0 1 11.13-11.13"/><path fill="url(#ic1_SVGlXoRkc4T)" d="M128.757 254.126c64.832 0 60.784-28.115 60.784-28.115l-.072-29.127H127.6v-8.745h86.441s41.486 4.705 41.486-60.712c0-65.416-36.21-63.096-36.21-63.096h-21.61v30.355s1.165 36.21-35.632 36.21h-61.362s-34.475-.557-34.475 33.32v56.013s-5.235 33.897 62.518 33.897m34.114-19.586a11.12 11.12 0 0 1-11.13-11.13a11.12 11.12 0 0 1 11.13-11.131a11.12 11.12 0 0 1 11.13 11.13a11.12 11.12 0 0 1-11.13 11.13"/></g><text x="41" y="21" text-anchor="start" font-family="'Segoe UI',Helvetica,Arial,sans-serif" font-size="14" font-weight="600" fill="#eef2f7">Python</text></g><g transform="translate(108.5,0.5)"><rect width="127" height="33" rx="8" fill="#22303f" stroke="#3a4f6a"/><g transform="translate(13,6.56) scale(0.0777)"><path fill="#3178c6" d="M20 0h216c11.046 0 20 8.954 20 20v216c0 11.046-8.954 20-20 20H20c-11.046 0-20-8.954-20-20V20C0 8.954 8.954 0 20 0"/><path fill="#fff" d="M150.518 200.475v27.62q6.738 3.453 15.938 5.179T185.849 235q9.934 0 18.874-1.899t15.678-6.257q6.738-4.359 10.669-11.394q3.93-7.033 3.93-17.391q0-7.51-2.246-13.163a30.8 30.8 0 0 0-6.479-10.055q-4.232-4.402-10.149-7.898t-13.347-6.602q-5.442-2.245-9.761-4.359t-7.342-4.316q-3.024-2.2-4.665-4.661t-1.641-5.567q0-2.848 1.468-5.135q1.469-2.288 4.147-3.927t6.565-2.547q3.887-.906 8.638-.906q3.456 0 7.299.518q3.844.517 7.732 1.597a54 54 0 0 1 7.558 2.719a41.7 41.7 0 0 1 6.781 3.797v-25.807q-6.306-2.417-13.778-3.582T198.633 107q-9.847 0-18.658 2.115q-8.811 2.114-15.506 6.602q-6.694 4.49-10.582 11.437Q150 134.102 150 143.769q0 12.342 7.127 21.06t21.638 14.759a292 292 0 0 1 10.625 4.575q4.924 2.244 8.509 4.66t5.658 5.265t2.073 6.474a9.9 9.9 0 0 1-1.296 4.963q-1.295 2.287-3.93 3.97t-6.565 2.632t-9.2.95q-8.983 0-17.794-3.151t-16.327-9.451m-46.036-68.733H140V109H41v22.742h35.345V233h28.137z"/></g><text x="41" y="21" text-anchor="start" font-family="'Segoe UI',Helvetica,Arial,sans-serif" font-size="14" font-weight="600" fill="#eef2f7">TypeScript</text></g><g transform="translate(243.5,0.5)"><rect width="124" height="33" rx="8" fill="#22303f" stroke="#3a4f6a"/><g transform="translate(13,6.56) scale(0.0777)"><path fill="#f7df1e" d="M0 0h256v256H0z"/><path d="m67.312 213.932l19.59-11.856c3.78 6.701 7.218 12.371 15.465 12.371c7.905 0 12.89-3.092 12.89-15.12v-81.798h24.057v82.138c0 24.917-14.606 36.259-35.916 36.259c-19.245 0-30.416-9.967-36.087-21.996m85.07-2.576l19.588-11.341c5.157 8.421 11.859 14.607 23.715 14.607c9.969 0 16.325-4.984 16.325-11.858c0-8.248-6.53-11.17-17.528-15.98l-6.013-2.58c-17.357-7.387-28.87-16.667-28.87-36.257c0-18.044 13.747-31.792 35.228-31.792c15.294 0 26.292 5.328 34.196 19.247l-18.732 12.03c-4.125-7.389-8.591-10.31-15.465-10.31c-7.046 0-11.514 4.468-11.514 10.31c0 7.217 4.468 10.14 14.778 14.608l6.014 2.577c20.45 8.765 31.963 17.7 31.963 37.804c0 21.654-17.012 33.51-39.867 33.51c-22.339 0-36.774-10.654-43.819-24.574"/></g><text x="41" y="21" text-anchor="start" font-family="'Segoe UI',Helvetica,Arial,sans-serif" font-size="14" font-weight="600" fill="#eef2f7">JavaScript</text></g><g transform="translate(375.5,0.5)"><rect width="82" height="33" rx="8" fill="#22303f" stroke="#3a4f6a"/><g transform="translate(13,11.26) scale(0.0777)"><defs><radialGradient id="ic4_SVGCUqixdHg" cx=".837" cy="-125.811" r="363.057" gradientTransform="translate(76.464 81.918)scale(.463)" gradientUnits="userSpaceOnUse"><stop offset="0" stop-color="#fff"/><stop offset=".5" stop-color="#4c6b97"/><stop offset="1" stop-color="#231f20"/></radialGradient></defs><ellipse cx="128" cy="67.3" fill="url(#ic4_SVGCUqixdHg)" rx="128" ry="67.3"/><ellipse cx="128" cy="67.3" fill="#6181b6" rx="123" ry="62.3"/><path fill="#fff" d="m152.9 87.5l6.1-31.4c1.4-7.1.2-12.4-3.4-15.7c-3.5-3.2-9.5-4.8-18.3-4.8h-10.6l3-15.6c.1-.6 0-1.2-.4-1.7s-.9-.7-1.5-.7h-14.6c-1 0-1.8.7-2 1.6l-6.5 33.3c-.6-3.8-2-7-4.4-9.6c-4.3-4.9-11-7.4-20.1-7.4H52.1c-1 0-1.8.7-2 1.6L37 104.7c-.1.6 0 1.2.4 1.7s.9.7 1.5.7h14.7c1 0 1.8-.7 2-1.6l3.2-16.3h10.9c5.7 0 10.6-.6 14.3-1.8q5.85-1.95 10.5-6.3c2.5-2.3 4.6-4.9 6.2-7.7l-2.6 13.5c-.1.6 0 1.2.4 1.7s.9.7 1.5.7h14.6c1 0 1.8-.7 2-1.6l7.2-37h10c4.3 0 5.5.8 5.9 1.2c.3.3.9 1.5.2 5.2L134.1 87c-.1.6 0 1.2.4 1.7s.9.7 1.5.7h15c.9-.3 1.7-1 1.9-1.9m-67.6-26c-.9 4.7-2.6 8.1-5.1 10s-6.6 2.9-12 2.9h-6.5l4.7-24.2h8.4c6.2 0 8.7 1.3 9.7 2.4c1.3 1.6 1.6 4.7.8 8.9m130-18.6c-4.3-4.9-11-7.4-20.1-7.4h-28.3c-1 0-1.8.7-2 1.6l-13.1 67.5c-.1.6 0 1.2.4 1.7s.9.7 1.5.7h14.7c1 0 1.8-.7 2-1.6l3.2-16.3h10.9c5.7 0 10.6-.6 14.3-1.8q5.85-1.95 10.5-6.3c2.6-2.4 4.8-5.1 6.4-8s2.8-6.1 3.5-9.6c1.7-8.7.4-15.5-3.9-20.5M200 61.5c-.9 4.7-2.6 8.1-5.1 10s-6.6 2.9-12 2.9h-6.5l4.7-24.2h8.4c6.2 0 8.7 1.3 9.7 2.4c1.4 1.6 1.7 4.7.8 8.9"/><path fill="#000004" d="M74.8 48.2c5.6 0 9.3 1 11.2 3.1s2.3 5.6 1.3 10.6c-1 5.2-3 9-5.9 11.2q-4.35 3.3-13.2 3.3h-8.9l5.5-28.2zM39 105h14.7l3.5-17.9h12.6c5.6 0 10.1-.6 13.7-1.8s6.8-3.1 9.8-5.9q3.75-3.45 6-7.5c1.5-2.7 2.6-5.7 3.2-9c1.6-8 .4-14.2-3.5-18.7s-10.1-6.7-18.6-6.7H52.1zm74.3-85.4h14.6l-3.5 17.9h13c8.2 0 13.8 1.4 16.9 4.3s4 7.5 2.8 13.9L151 87.1h-14.8l5.8-29.9c.7-3.4.4-5.7-.7-6.9s-3.6-1.9-7.3-1.9h-11.7l-7.5 38.7h-14.6zm76.2 28.6c5.6 0 9.3 1 11.2 3.1s2.3 5.6 1.3 10.6c-1 5.2-3 9-5.9 11.2q-4.35 3.3-13.2 3.3H174l5.5-28.2zM153.7 105h14.7l3.5-17.9h12.6c5.6 0 10.1-.6 13.7-1.8s6.8-3.1 9.8-5.9q3.75-3.45 6-7.5c1.5-2.7 2.6-5.7 3.2-9c1.6-8 .4-14.2-3.5-18.7s-10.1-6.7-18.6-6.7h-28.3z"/></g><text x="41" y="21" text-anchor="start" font-family="'Segoe UI',Helvetica,Arial,sans-serif" font-size="14" font-weight="600" fill="#eef2f7">PHP</text></g><g transform="translate(0.5,42.5)"><rect width="126" height="33" rx="8" fill="#22303f" stroke="#3a4f6a"/><g transform="translate(13,6.56) scale(0.8283)"><path d="M23.181 2.974c.568 0 .923.463.792 1.035l-3.659 15.982c-.13.572-.697 1.035-1.265 1.035H.819c-.568 0-.923-.463-.792-1.035L3.686 4.009c.13-.572.697-1.035 1.265-1.035zm-8.375 9.346c.251-.394.227-.905-.09-1.243L9.122 5.125c-.38-.404-1.037-.407-1.466-.003c-.429.402-.468 1.056-.088 1.46l4.662 4.96v.11l-7.42 5.374c-.45.327-.533.977-.187 1.453s.991.597 1.44.27l8.229-5.91c.28-.196.438-.365.514-.52zm-2.796 4.399a.93.93 0 0 0-.934.923c0 .51.418.923.934.923h4.433a.93.93 0 0 0 .934-.923a.93.93 0 0 0-.934-.923z" fill="#5391FE"/></g><text x="41" y="21" text-anchor="start" font-family="'Segoe UI',Helvetica,Arial,sans-serif" font-size="14" font-weight="600" fill="#eef2f7">PowerShell</text></g><g transform="translate(134.5,42.5)"><rect width="90" height="33" rx="8" fill="#22303f" stroke="#3a4f6a"/><g transform="translate(13,6.56) scale(0.0551)"><path fill="#e44d26" d="m255.555 70.766l-23.241 260.36l-104.47 28.962l-104.182-28.922L.445 70.766z"/><path fill="#f16529" d="m128 337.95l84.417-23.403l19.86-222.49H128z"/><path fill="#ebebeb" d="M82.82 155.932H128v-31.937H47.917l.764 8.568l7.85 88.01H128v-31.937H85.739zm7.198 80.61h-32.06l4.474 50.146l65.421 18.16l.147-.04V271.58l-.14.037l-35.568-9.604z"/><path d="M24.18 0h16.23v16.035h14.847V0h16.231v48.558h-16.23v-16.26H40.411v16.26h-16.23V0M92.83 16.103H78.544V0h44.814v16.103h-14.295v32.455h-16.23V16.103zM130.47 0h16.923l10.41 17.062L168.203 0h16.93v48.558h-16.164V24.49l-11.166 17.265h-.28L146.35 24.49v24.068h-15.88zm62.74 0h16.235v32.508h22.824v16.05h-39.06z"/><path fill="#fff" d="M127.89 220.573h39.327l-3.708 41.42l-35.62 9.614v33.226l65.473-18.145l.48-5.396l7.506-84.08l.779-8.576H127.89zm0-64.719v.078h77.143l.64-7.178l1.456-16.191l.763-8.568H127.89z"/></g><text x="35" y="21" text-anchor="start" font-family="'Segoe UI',Helvetica,Arial,sans-serif" font-size="14" font-weight="600" fill="#eef2f7">HTML</text></g><g transform="translate(232.5,42.5)"><rect width="77" height="33" rx="8" fill="#22303f" stroke="#3a4f6a"/><g transform="translate(13,6.56) scale(0.0551)"><path fill="#264DE4" d="M127.844 360.088L23.662 331.166L.445 70.766h255.11l-23.241 260.36z"/><path fill="#2965F1" d="m212.417 314.547l19.86-222.49H128V337.95z"/><path fill="#EBEBEB" d="m53.669 188.636l2.862 31.937H128v-31.937zm-5.752-64.641l2.903 31.937H128v-31.937zM128 271.58l-.14.037l-35.568-9.604l-2.274-25.471h-32.06l4.474 50.146l65.421 18.16l.147-.04z"/><path d="M60.484 0h38.68v16.176H76.66v16.176h22.506v16.175H60.484zm46.417 0h38.681v14.066h-22.505v2.813h22.505v32.352h-38.68V34.46h22.505v-2.813H106.9zm46.418 0H192v14.066h-22.505v2.813H192v32.352h-38.681V34.46h22.505v-2.813H153.32z"/><path fill="#FFF" d="m202.127 188.636l5.765-64.641H127.89v31.937h45.002l-2.906 32.704H127.89v31.937h39.327l-3.708 41.42l-35.62 9.614v33.226l65.473-18.145l.48-5.396l7.506-84.08z"/></g><text x="35" y="21" text-anchor="start" font-family="'Segoe UI',Helvetica,Arial,sans-serif" font-size="14" font-weight="600" fill="#eef2f7">CSS</text></g></svg>
