<svg xmlns="http://www.w3.org/2000/svg" width="510" height="106" viewBox="0 0 510 106" role="img"><g transform="translate(0,0)"><rect width="90" height="30" rx="8" fill="#4A6FA5"/><g transform="translate(13,5.90) scale(0.7583)"><path d="M14.23 12.004a2.236 2.236 0 0 1-2.235 2.236 2.236 2.236 0 0 1-2.236-2.236 2.236 2.236 0 0 1 2.235-2.236 2.236 2.236 0 0 1 2.236 2.236zm2.648-10.69c-1.346 0-3.107.96-4.888 2.622-1.78-1.653-3.542-2.602-4.887-2.602-.41 0-.783.093-1.106.278-1.375.793-1.683 3.264-.973 6.365C1.98 8.917 0 10.42 0 12.004c0 1.59 1.99 3.097 5.043 4.03-.704 3.113-.39 5.588.988 6.38.32.187.69.275 1.102.275 1.345 0 3.107-.96 4.888-2.624 1.78 1.654 3.542 2.603 4.887 2.603.41 0 .783-.09 1.106-.275 1.374-.792 1.683-3.263.973-6.365C22.02 15.096 24 13.59 24 12.004c0-1.59-1.99-3.097-5.043-4.032.704-3.11.39-5.587-.988-6.38-.318-.184-.688-.277-1.092-.278zm-.005 1.09v.006c.225 0 .406.044.558.127.666.382.955 1.835.73 3.704-.054.46-.142.945-.25 1.44-.96-.236-2.006-.417-3.107-.534-.66-.905-1.345-1.727-2.035-2.447 1.592-1.48 3.087-2.292 4.105-2.295zm-9.77.02c1.012 0 2.514.808 4.11 2.28-.686.72-1.37 1.537-2.02 2.442-1.107.117-2.154.298-3.113.538-.112-.49-.195-.964-.254-1.42-.23-1.868.054-3.32.714-3.707.19-.09.4-.127.563-.132zm4.882 3.05c.455.468.91.992 1.36 1.564-.44-.02-.89-.034-1.345-.034-.46 0-.915.01-1.36.034.44-.572.895-1.096 1.345-1.565zM12 8.1c.74 0 1.477.034 2.202.093.406.582.802 1.203 1.183 1.86.372.64.71 1.29 1.018 1.946-.308.655-.646 1.31-1.013 1.95-.38.66-.773 1.288-1.18 1.87-.728.063-1.466.098-2.21.098-.74 0-1.477-.035-2.202-.093-.406-.582-.802-1.204-1.183-1.86-.372-.64-.71-1.29-1.018-1.946.303-.657.646-1.313 1.013-1.954.38-.66.773-1.286 1.18-1.868.728-.064 1.466-.098 2.21-.098zm-3.635.254c-.24.377-.48.763-.704 1.16-.225.39-.435.782-.635 1.174-.265-.656-.49-1.31-.676-1.947.64-.15 1.315-.283 2.015-.386zm7.26 0c.695.103 1.365.23 2.006.387-.18.632-.405 1.282-.66 1.933-.2-.39-.41-.783-.64-1.174-.225-.392-.465-.774-.705-1.146zm3.063.675c.484.15.944.317 1.375.498 1.732.74 2.852 1.708 2.852 2.476-.005.768-1.125 1.74-2.857 2.475-.42.18-.88.342-1.355.493-.28-.958-.646-1.956-1.1-2.98.45-1.017.81-2.01 1.085-2.964zm-13.395.004c.278.96.645 1.957 1.1 2.98-.45 1.017-.812 2.01-1.086 2.964-.484-.15-.944-.318-1.37-.5-1.732-.737-2.852-1.706-2.852-2.474 0-.768 1.12-1.742 2.852-2.476.42-.18.88-.342 1.356-.494zm11.678 4.28c.265.657.49 1.312.676 1.948-.64.157-1.316.29-2.016.39.24-.375.48-.762.705-1.158.225-.39.435-.788.636-1.18zm-9.945.02c.2.392.41.783.64 1.175.23.39.465.772.705 1.143-.695-.102-1.365-.23-2.006-.386.18-.63.406-1.282.66-1.933zM17.92 16.32c.112.493.2.968.254 1.423.23 1.868-.054 3.32-.714 3.708-.147.09-.338.128-.563.128-1.012 0-2.514-.807-4.11-2.28.686-.72 1.37-1.536 2.02-2.44 1.107-.118 2.154-.3 3.113-.54zm-11.83.01c.96.234 2.006.415 3.107.532.66.905 1.345 1.727 2.035 2.446-1.595 1.483-3.092 2.295-4.11 2.295-.22-.005-.406-.05-.553-.132-.666-.38-.955-1.834-.73-3.703.054-.46.142-.944.25-1.438zm4.56.64c.44.02.89.034 1.345.034.46 0 .915-.01 1.36-.034-.44.572-.895 1.095-1.345 1.565-.455-.47-.91-.993-1.36-1.565z" fill="#ffffff"/></g><text x="38" y="20" text-anchor="start" font-family="'Segoe UI',Helvetica,Arial,sans-serif" font-size="14" font-weight="600" fill="#ffffff">React</text></g><g transform="translate(98,0)"><rect width="78" height="30" rx="8" fill="#4A6FA5"/><g transform="translate(13,5.90) scale(0.7583)"><path d="M13.056 23.238a.57.57 0 0 1-1.02-.355v-5.202c0-.63-.512-1.143-1.144-1.143H5.148a.57.57 0 0 1-.464-.903l3.777-5.29c.54-.753 0-1.804-.93-1.804H.57a.574.574 0 0 1-.543-.746.6.6 0 0 1 .08-.157L5.008.78a.57.57 0 0 1 .467-.24h14.589a.57.57 0 0 1 .466.903l-3.778 5.29c-.54.755 0 1.806.93 1.806h5.745c.238 0 .424.138.513.322a.56.56 0 0 1-.063.603z" fill="#ffffff"/></g><text x="38" y="20" text-anchor="start" font-family="'Segoe UI',Helvetica,Arial,sans-serif" font-size="14" font-weight="600" fill="#ffffff">Vite</text></g><g transform="translate(184,0)"><rect width="105" height="30" rx="8" fill="#4A6FA5"/><g transform="translate(13,5.90) scale(0.7583)"><path d="M12 .0387C5.3729.0384.0003 5.3931 0 11.9988c-.001 6.6066 5.372 11.9628 12 11.9625 6.628.0003 12.001-5.3559 12-11.9625-.0003-6.6057-5.3729-11.9604-12-11.96m-.829 5.4153h7.55l-7.5805 5.3284h5.1828L5.279 18.5436q2.9466-6.5444 5.892-13.0896" fill="#ffffff"/></g><text x="38" y="20" text-anchor="start" font-family="'Segoe UI',Helvetica,Arial,sans-serif" font-size="14" font-weight="600" fill="#ffffff">FastAPI</text></g><g transform="translate(297,0)"><rect width="107" height="30" rx="8" fill="#4A6FA5"/><g transform="translate(13,5.90) scale(0.7583)"><path d="M12.005 0L4.952 7.053a9.865 9.865 0 000 14.022 9.866 9.866 0 0014.022 0c3.984-3.9 3.986-10.205.085-14.023l-1.744 1.743c2.904 2.905 2.904 7.634 0 10.538s-7.634 2.904-10.538 0-2.904-7.634 0-10.538l4.647-4.646.582-.665zm3.568 3.899a1.327 1.327 0 00-1.327 1.327 1.327 1.327 0 001.327 1.328A1.327 1.327 0 0016.9 5.226 1.327 1.327 0 0015.573 3.9z" fill="#ffffff"/></g><text x="38" y="20" text-anchor="start" font-family="'Segoe UI',Helvetica,Arial,sans-serif" font-size="14" font-weight="600" fill="#ffffff">PyTorch</text></g><g transform="translate(412,0)"><rect width="98" height="30" rx="8" fill="#4A6FA5"/><g transform="translate(13,5.90) scale(0.7583)"><path d="M22.282 9.821a6 6 0 0 0-.516-4.91a6.05 6.05 0 0 0-6.51-2.9A6.065 6.065 0 0 0 4.981 4.18a6 6 0 0 0-3.998 2.9a6.05 6.05 0 0 0 .743 7.097a5.98 5.98 0 0 0 .51 4.911a6.05 6.05 0 0 0 6.515 2.9A6 6 0 0 0 13.26 24a6.06 6.06 0 0 0 5.772-4.206a6 6 0 0 0 3.997-2.9a6.06 6.06 0 0 0-.747-7.073M13.26 22.43a4.48 4.48 0 0 1-2.876-1.04l.141-.081l4.779-2.758a.8.8 0 0 0 .392-.681v-6.737l2.02 1.168a.07.07 0 0 1 .038.052v5.583a4.504 4.504 0 0 1-4.494 4.494M3.6 18.304a4.47 4.47 0 0 1-.535-3.014l.142.085l4.783 2.759a.77.77 0 0 0 .78 0l5.843-3.369v2.332a.08.08 0 0 1-.033.062L9.74 19.95a4.5 4.5 0 0 1-6.14-1.646M2.34 7.896a4.5 4.5 0 0 1 2.366-1.973V11.6a.77.77 0 0 0 .388.677l5.815 3.354l-2.02 1.168a.08.08 0 0 1-.071 0l-4.83-2.786A4.504 4.504 0 0 1 2.34 7.872zm16.597 3.855l-5.833-3.387L15.119 7.2a.08.08 0 0 1 .071 0l4.83 2.791a4.494 4.494 0 0 1-.676 8.105v-5.678a.79.79 0 0 0-.407-.667m2.01-3.023l-.141-.085l-4.774-2.782a.78.78 0 0 0-.785 0L9.409 9.23V6.897a.07.07 0 0 1 .028-.061l4.83-2.787a4.5 4.5 0 0 1 6.68 4.66zm-12.64 4.135l-2.02-1.164a.08.08 0 0 1-.038-.057V6.075a4.5 4.5 0 0 1 7.375-3.453l-.142.08L8.704 5.46a.8.8 0 0 0-.393.681zm1.097-2.365l2.602-1.5l2.607 1.5v2.999l-2.597 1.5l-2.607-1.5Z" fill="#ffffff"/></g><text x="38" y="20" text-anchor="start" font-family="'Segoe UI',Helvetica,Arial,sans-serif" font-size="14" font-weight="600" fill="#ffffff">OpenAI</text></g><g transform="translate(0,38)"><rect width="111" height="30" rx="8" fill="#4A6FA5"/><g transform="translate(13,5.90) scale(0.0632)"><path d="M108.634 254.436c9.08 0 16.44 7.361 16.44 16.442s-7.36 16.44-16.44 16.44s-16.442-7.36-16.442-16.44s7.361-16.442 16.442-16.442m91.216-29.998l16.247 4.814L203.2 272.78a8.47 8.47 0 0 1-8.7 6.046l-3.983-.273l-.098.08l-41.39-2.904l1.152-16.906l27.808 1.887l-18.205-26.262l13.926-9.656l18.229 26.295zm-176.837-30.09l16.903 1.197l-1.98 27.804L64.15 205.12l9.677 13.91l-26.248 18.248l26.792 7.895l-4.79 16.255l-43.732-12.885a8.47 8.47 0 0 1-6.058-8.726zM132.15 170.67l30.508 36.832l-13.75 11.389l-18.156-21.92l-5.886 33.702l-17.587-3.074l5.892-33.755l-24.442 14.412l-9.063-15.383l41.079-24.2a8.93 8.93 0 0 1 11.405 1.997m85.354-24.71l15.239-8.292l22.2 40.805a8.675 8.675 0 0 1-1.926 10.69l-3.141 2.714l-32.05 27.893l-11.386-13.09l21.548-18.747l-32.095-5.781l3.078-17.074l32.073 5.779zM37.782 103.298l11.48 13.008l-21.251 18.743l32.156 5.614l-2.98 17.091l-32.192-5.618l13.827 24.998l-15.18 8.398l-22.558-40.776a8.675 8.675 0 0 1 1.85-10.703zm108.694-13.42l30.404 36.734l-13.753 11.384l-18.152-21.93l-5.886 33.712l-17.587-3.074l5.872-33.624l-24.349 14.274l-9.027-15.403l37.4-21.929l.038-.142l.165.021l3.485-2.032a8.93 8.93 0 0 1 11.39 2.01m39.18-18.065l6.65-16.024l43.012 17.85a8.675 8.675 0 0 1 5.218 9.517l-.716 3.982l-7.345 41.78l-17.086-3.01l4.924-27.968l-28.537 15.772l-8.386-15.188l28.591-15.784zm-81.939-31.577l.74 17.334l-28.414 1.214l21.43 24.49l-13.056 11.424L62.95 70.173l-5.001 28l-17.078-3.054l8.184-45.759a8.674 8.674 0 0 1 8.17-7.139l4.02-.18l.09-.065zm58.121-36.965l30.267 36.965l-13.814 11.31l-17.964-21.943l-6.059 33.668l-17.57-3.162l6.068-33.743l-24.526 14.34l-9.007-15.415L150.428 1.22a8.93 8.93 0 0 1 11.41 2.052" fill="#ffffff"/></g><text x="38" y="20" text-anchor="start" font-family="'Segoe UI',Helvetica,Arial,sans-serif" font-size="14" font-weight="600" fill="#ffffff">Pinecone</text></g><g transform="translate(119,38)"><rect width="142" height="30" rx="8" fill="#4A6FA5"/><g transform="translate(13,5.90) scale(0.7583)"><path d="M12.025 1.13c-5.77 0-10.449 4.647-10.449 10.378 0 1.112.178 2.181.503 3.185.064-.222.203-.444.416-.577a.96.96 0 0 1 .524-.15c.293 0 .584.124.84.284.278.173.48.408.71.694.226.282.458.611.684.951v-.014c.017-.324.106-.622.264-.874s.403-.487.762-.543c.3-.047.596.06.787.203s.31.313.4.467c.15.257.212.468.233.542.01.026.653 1.552 1.657 2.54.616.605 1.01 1.223 1.082 1.912.055.537-.096 1.059-.38 1.572.637.121 1.294.187 1.967.187.657 0 1.298-.063 1.921-.178-.287-.517-.44-1.041-.384-1.581.07-.69.465-1.307 1.081-1.913 1.004-.987 1.647-2.513 1.657-2.539.021-.074.083-.285.233-.542.09-.154.208-.323.4-.467a1.08 1.08 0 0 1 .787-.203c.359.056.604.29.762.543s.247.55.265.874v.015c.225-.34.457-.67.683-.952.23-.286.432-.52.71-.694.257-.16.547-.284.84-.285a.97.97 0 0 1 .524.151c.228.143.373.388.43.625l.006.04a10.3 10.3 0 0 0 .534-3.273c0-5.731-4.678-10.378-10.449-10.378M8.327 6.583a1.5 1.5 0 0 1 .713.174 1.487 1.487 0 0 1 .617 2.013c-.183.343-.762-.214-1.102-.094-.38.134-.532.914-.917.71a1.487 1.487 0 0 1 .69-2.803m7.486 0a1.487 1.487 0 0 1 .689 2.803c-.385.204-.536-.576-.916-.71-.34-.12-.92.437-1.103.094a1.487 1.487 0 0 1 .617-2.013 1.5 1.5 0 0 1 .713-.174m-10.68 1.55a.96.96 0 1 1 0 1.921.96.96 0 0 1 0-1.92m13.838 0a.96.96 0 1 1 0 1.92.96.96 0 0 1 0-1.92M8.489 11.458c.588.01 1.965 1.157 3.572 1.164 1.607-.007 2.984-1.155 3.572-1.164.196-.003.305.12.305.454 0 .886-.424 2.328-1.563 3.202-.22-.756-1.396-1.366-1.63-1.32q-.011.001-.02.006l-.044.026-.01.008-.03.024q-.018.017-.035.036l-.032.04a1 1 0 0 0-.058.09l-.014.025q-.049.088-.11.19a1 1 0 0 1-.083.116 1.2 1.2 0 0 1-.173.18q-.035.029-.075.058a1.3 1.3 0 0 1-.251-.243 1 1 0 0 1-.076-.107c-.124-.193-.177-.363-.337-.444-.034-.016-.104-.008-.2.022q-.094.03-.216.087-.06.028-.125.063l-.13.074q-.067.04-.136.086a3 3 0 0 0-.135.096 3 3 0 0 0-.26.219 2 2 0 0 0-.12.121 2 2 0 0 0-.106.128l-.002.002a2 2 0 0 0-.09.132l-.001.001a1.2 1.2 0 0 0-.105.212q-.013.036-.024.073c-1.139-.875-1.563-2.317-1.563-3.203 0-.334.109-.457.305-.454m.836 10.354c.824-1.19.766-2.082-.365-3.194-1.13-1.112-1.789-2.738-1.789-2.738s-.246-.945-.806-.858-.97 1.499.202 2.362c1.173.864-.233 1.45-.685.64-.45-.812-1.683-2.896-2.322-3.295s-1.089-.175-.938.647 2.822 2.813 2.562 3.244-1.176-.506-1.176-.506-2.866-2.567-3.49-1.898.473 1.23 2.037 2.16c1.564.932 1.686 1.178 1.464 1.53s-3.675-2.511-4-1.297c-.323 1.214 3.524 1.567 3.287 2.405-.238.839-2.71-1.587-3.216-.642-.506.946 3.49 2.056 3.522 2.064 1.29.33 4.568 1.028 5.713-.624m5.349 0c-.824-1.19-.766-2.082.365-3.194 1.13-1.112 1.789-2.738 1.789-2.738s.246-.945.806-.858.97 1.499-.202 2.362c-1.173.864.233 1.45.685.64.451-.812 1.683-2.896 2.322-3.295s1.089-.175.938.647-2.822 2.813-2.562 3.244 1.176-.506 1.176-.506 2.866-2.567 3.49-1.898-.473 1.23-2.037 2.16c-1.564.932-1.686 1.178-1.464 1.53s3.675-2.511 4-1.297c.323 1.214-3.524 1.567-3.287 2.405.238.839 2.71-1.587 3.216-.642.506.946-3.49 2.056-3.522 2.064-1.29.33-4.568 1.028-5.713-.624" fill="#ffffff"/></g><text x="38" y="20" text-anchor="start" font-family="'Segoe UI',Helvetica,Arial,sans-serif" font-size="14" font-weight="600" fill="#ffffff">Hugging Face</text></g><g transform="translate(269,38)"><rect width="100" height="30" rx="8" fill="#4A6FA5"/><g transform="translate(13,5.90) scale(0.7583)"><path d="M.113 10.27A13.026 13.026 0 000 11.48h18.23c-.064-.125-.15-.237-.235-.347-3.117-4.027-4.793-3.677-7.19-3.78-.8-.034-1.34-.048-4.524-.048-1.704 0-3.555.005-5.358.01-.234.63-.459 1.24-.567 1.737h9.342v1.216H.113v.002zm18.26 2.426H.009c.02.326.05.645.094.961h16.955c.754 0 1.179-.429 1.315-.96zm-17.318 4.28s2.81 6.902 10.93 7.024c4.855 0 9.027-2.883 10.92-7.024H1.056zM11.988 0C7.5 0 3.593 2.466 1.531 6.108l4.75-.005v-.002c3.71 0 3.849.016 4.573.047l.448.016c1.563.052 3.485.22 4.996 1.364.82.621 2.007 1.99 2.712 2.965.654.902.842 1.94.396 2.934-.408.914-1.289 1.458-2.353 1.458H.391s.099.42.249.886h22.748A12.026 12.026 0 0024 12.005C24 5.377 18.621 0 11.988 0z" fill="#ffffff"/></g><text x="38" y="20" text-anchor="start" font-family="'Segoe UI',Helvetica,Arial,sans-serif" font-size="14" font-weight="600" fill="#ffffff">Railway</text></g><g transform="translate(377,38)"><rect width="80" height="30" rx="8" fill="#4A6FA5"/><g transform="translate(13,5.90) scale(0.5687)"><path d="M4.574 5.463c.262.4 2.5-1.608 4.454-1.161c2.061.472 4.014 3.724 4.848 13.7a40 40 0 0 1 3.541 3.61q.53.614 1.013 1.22a12 12 0 0 1 .229-1.4a12.3 12.3 0 0 1 1.981-4.4A19.15 19.15 0 0 0 17.272 7.9c-1.03-1.445-4.6-6.478-8.546-5.843c-2.544.408-4.426 2.997-4.152 3.406" fill="#ffffff"/><path d="M24.4 30a69 69 0 0 1-.5-6.449c-.094-3.232.1-4.541.9-5.756c.193-.295 1.288-1.975 2.58-1.863c1.466.128 2.213 2.414 2.362 2.337c.175-.09-.36-3.543-2.532-4.431c-2.6-1.063-6.312 2.07-7.8 5.154a12.2 12.2 0 0 0-.857 2.81a32.6 32.6 0 0 0-.71 8.2Z" fill="#ffffff"/><path d="M2.238 13.935c.145-.447 2.468-.259 4.54.293c2.5.666 7 2.344 11.651 8.606A12.54 12.54 0 0 1 20.279 30h-9.893a22 22 0 0 0-.175-4.62a14.9 14.9 0 0 0-2.459-7.158c-2.311-3.063-5.697-3.722-5.514-4.287" fill="#ffffff"/><path d="M17.3 21.323a1.753 1.753 0 1 1-.513-1.24a1.75 1.75 0 0 1 .513 1.24m4.675 0a1.753 1.753 0 1 1-.513-1.24a1.75 1.75 0 0 1 .513 1.24" fill="#ffffff"/></g><text x="38" y="20" text-anchor="start" font-family="'Segoe UI',Helvetica,Arial,sans-serif" font-size="14" font-weight="600" fill="#ffffff">Twig</text></g><g transform="translate(0,76)"><rect width="67" height="30" rx="8" fill="#4A6FA5"/><g transform="translate(13,5.90) scale(0.7583)"><path d="m0 .1058.0504 11.9496.0403 9.5597c.0055 1.3199 1.08 2.3854 2.4 2.3798l9.5596-.0403 5.9749-.0252.6075-.0026c1.316-.0056 2.3799-1.0963 2.3799-2.4123h1.0946v2.3894L24 23.9042 23.8992.005 12.9056.0513l.0463 9.5245v5.9637h-1.9583L11.04 9.584 10.9936.0594Z" fill="#ffffff"/></g><text x="38" y="20" text-anchor="start" font-family="'Segoe UI',Helvetica,Arial,sans-serif" font-size="14" font-weight="600" fill="#ffffff">uv</text></g><g transform="translate(75,76)"><rect width="119" height="30" rx="8" fill="#4A6FA5"/><g transform="translate(13,5.90) scale(0.7583)"><path d="M23.996 7.462c-.056.837-.257 2.135-.716 3.85c-.995 3.715-4.27 10.874-10.42 9.227c-6.15-1.65-5.407-9.487-4.412-13.201c.46-1.716.934-2.94 1.305-3.694c.42-.853.846-.289 1.815.523c.684.573 2.41 1.791 5.011 2.488s4.706.506 5.583.352c1.245-.219 1.897-.494 1.834.455m-9.807 3.863s-.127-1.819-1.773-2.286c-1.644-.467-2.613 1.04-2.613 1.04Zm4.058 4.539l-7.769-2.172s.446 2.306 3.338 3.153c2.862.836 4.43-.98 4.43-.981Zm2.701-2.51s-.13-1.818-1.773-2.286c-1.644-.469-2.612 1.038-2.612 1.038ZM8.57 18.23c-4.749 1.279-7.261-4.224-8.021-7.08C.197 9.831.044 8.832.003 8.188c-.047-.73.455-.52 1.415-.354c.677.118 2.3.261 4.308-.28a11.3 11.3 0 0 0 2.41-.956q-.087.295-.17.61c-.433 1.618-.827 4.055-.632 6.426c-1.976.732-2.267 2.423-2.267 2.423l2.524-.715c.227 1.002.6 1.987 1.15 2.838zm-4.188-6.298c1.265-.333 1.363-1.631 1.363-1.631l-3.374.888s.745 1.076 2.01.743Z" fill="#ffffff"/></g><text x="38" y="20" text-anchor="start" font-family="'Segoe UI',Helvetica,Arial,sans-serif" font-size="14" font-weight="600" fill="#ffffff">Playwright</text></g><g transform="translate(202,76)"><rect width="71" height="30" rx="8" fill="#4A6FA5"/><g transform="translate(13,5.90) scale(0.7583)"><path d="M13.09 23.549a1.54 1.54 0 0 1-2.18 0L.451 13.089a1.54 1.54 0 0 1 0-2.179l7.191-7.19 2.733 2.733a1.85 1.85 0 0 0 .964 2.326v6.66a1.849 1.849 0 1 0 1.54 0V8.957l2.508 2.508a1.85 1.85 0 1 0 1.09-1.09l-2.634-2.634a1.85 1.85 0 0 0-2.378-2.377L8.73 2.63 10.91.451a1.54 1.54 0 0 1 2.179 0l10.459 10.46a1.54 1.54 0 0 1 0 2.179z" fill="#ffffff"/></g><text x="38" y="20" text-anchor="start" font-family="'Segoe UI',Helvetica,Arial,sans-serif" font-size="14" font-weight="600" fill="#ffffff">Git</text></g><g transform="translate(281,76)"><rect width="109" height="30" rx="8" fill="#4A6FA5"/><g transform="translate(13,5.90) scale(0.0711)"><path d="M180.828 252.605a15.87 15.87 0 0 0 12.65-.486l52.501-25.262a15.94 15.94 0 0 0 9.025-14.364V41.197a15.94 15.94 0 0 0-9.025-14.363l-52.5-25.263a15.88 15.88 0 0 0-18.115 3.084L74.857 96.35l-43.78-33.232a10.614 10.614 0 0 0-13.56.603L3.476 76.494c-4.63 4.211-4.635 11.495-.012 15.713l37.967 34.638l-37.967 34.637c-4.623 4.219-4.618 11.502.012 15.714l14.041 12.772a10.614 10.614 0 0 0 13.56.604l43.78-33.233l100.507 91.695a15.85 15.85 0 0 0 5.464 3.571m10.464-183.649l-76.262 57.889l76.262 57.888z" fill="#ffffff"/><path d="M246.135 26.873L193.593 1.575a15.885 15.885 0 0 0-18.123 3.08L3.466 161.482c-4.626 4.219-4.62 11.502.012 15.714l14.05 12.772a10.625 10.625 0 0 0 13.569.604L238.229 33.436c6.949-5.271 16.93-.315 16.93 8.407v-.61a15.94 15.94 0 0 0-9.024-14.36" fill="#ffffff"/><path d="m246.135 226.816l-52.542 25.298a15.89 15.89 0 0 1-18.123-3.08L3.466 92.207c-4.626-4.218-4.62-11.502.012-15.713l14.05-12.773a10.625 10.625 0 0 1 13.569-.603l207.132 157.135c6.949 5.271 16.93.315 16.93-8.408v.611a15.94 15.94 0 0 1-9.024 14.36" fill="#ffffff"/><path d="M193.428 252.134a15.89 15.89 0 0 1-18.125-3.083c5.881 5.88 15.938 1.715 15.938-6.603V11.273c0-8.318-10.057-12.483-15.938-6.602a15.89 15.89 0 0 1 18.125-3.084l52.533 25.263a15.94 15.94 0 0 1 9.03 14.363V212.51c0 6.125-3.51 11.709-9.03 14.363z" fill="#ffffff"/><path d="M180.828 252.605a15.87 15.87 0 0 0 12.65-.486l52.5-25.263a15.94 15.94 0 0 0 9.026-14.363V41.197a15.94 15.94 0 0 0-9.025-14.363L193.477 1.57a15.88 15.88 0 0 0-18.114 3.084L74.857 96.35l-43.78-33.232a10.614 10.614 0 0 0-13.56.603L3.476 76.494c-4.63 4.211-4.635 11.495-.012 15.713l37.967 34.638l-37.967 34.637c-4.623 4.219-4.618 11.502.012 15.714l14.041 12.772a10.614 10.614 0 0 0 13.56.604l43.78-33.233l100.506 91.695a15.9 15.9 0 0 0 5.465 3.571m10.464-183.65l-76.262 57.89l76.262 57.888z" fill="#ffffff"/></g><text x="38" y="20" text-anchor="start" font-family="'Segoe UI',Helvetica,Arial,sans-serif" font-size="14" font-weight="600" fill="#ffffff">VS Code</text></g><g transform="translate(398,76)"><rect width="96" height="30" rx="8" fill="#4A6FA5"/><g transform="translate(13,5.90) scale(0.7583)"><path d="m4.7144 15.9555 4.7174-2.6471.079-.2307-.079-.1275h-.2307l-.7893-.0486-2.6956-.0729-2.3375-.0971-2.2646-.1214-.5707-.1215-.5343-.7042.0546-.3522.4797-.3218.686.0608 1.5179.1032 2.2767.1578 1.6514.0972 2.4468.255h.3886l.0546-.1579-.1336-.0971-.1032-.0972L6.973 9.8356l-2.55-1.6879-1.3356-.9714-.7225-.4918-.3643-.4614-.1578-1.0078.6557-.7225.8803.0607.2246.0607.8925.686 1.9064 1.4754 2.4893 1.8336.3643.3035.1457-.1032.0182-.0728-.164-.2733-1.3539-2.4467-1.445-2.4893-.6435-1.032-.17-.6194c-.0607-.255-.1032-.4674-.1032-.7285L6.287.1335 6.6997 0l.9957.1336.419.3642.6192 1.4147 1.0018 2.2282 1.5543 3.0296.4553.8985.2429.8318.091.255h.1579v-.1457l.1275-1.706.2368-2.0947.2307-2.6957.0789-.7589.3764-.9107.7468-.4918.5828.2793.4797.686-.0668.4433-.2853 1.8517-.5586 2.9021-.3643 1.9429h.2125l.2429-.2429.9835-1.3053 1.6514-2.0643.7286-.8196.85-.9046.5464-.4311h1.0321l.759 1.1293-.34 1.1657-1.0625 1.3478-.8804 1.1414-1.2628 1.7-.7893 1.36.0729.1093.1882-.0183 2.8535-.607 1.5421-.2794 1.8396-.3157.8318.3886.091.3946-.3278.8075-1.967.4857-2.3072.4614-3.4364.8136-.0425.0304.0486.0607 1.5482.1457.6618.0364h1.621l3.0175.2247.7892.522.4736.6376-.079.4857-1.2142.6193-1.6393-.3886-3.825-.9107-1.3113-.3279h-.1822v.1093l1.0929 1.0686 2.0035 1.8092 2.5075 2.3314.1275.5768-.3218.4554-.34-.0486-2.2039-1.6575-.85-.7468-1.9246-1.621h-.1275v.17l.4432.6496 2.3436 3.5214.1214 1.0807-.17.3521-.6071.2125-.6679-.1214-1.3721-1.9246L14.38 17.959l-1.1414-1.9428-.1397.079-.674 7.2552-.3156.3703-.7286.2793-.6071-.4614-.3218-.7468.3218-1.4753.3886-1.9246.3157-1.53.2853-1.9004.17-.6314-.0121-.0425-.1397.0182-1.4328 1.9672-2.1796 2.9446-1.7243 1.8456-.4128.164-.7164-.3704.0667-.6618.4008-.5889 2.386-3.0357 1.4389-1.882.929-1.0868-.0062-.1579h-.0546l-6.3385 4.1164-1.1293.1457-.4857-.4554.0608-.7467.2307-.2429 1.9064-1.3114Z" fill="#ffffff"/></g><text x="38" y="20" text-anchor="start" font-family="'Segoe UI',Helvetica,Arial,sans-serif" font-size="14" font-weight="600" fill="#ffffff">Claude</text></g></svg>
