<svg xmlns="http://www.w3.org/2000/svg" width="477" height="106" viewBox="0 0 477 106" role="img"><g transform="translate(0,0)"><rect width="64" height="30" rx="8" fill="#4A6FA5"/><text x="32" y="20" text-anchor="middle" font-family="'Segoe UI',Helvetica,Arial,sans-serif" font-size="14" font-weight="600" fill="#ffffff">React</text></g><g transform="translate(72,0)"><rect width="53" height="30" rx="8" fill="#4A6FA5"/><text x="26" y="20" text-anchor="middle" font-family="'Segoe UI',Helvetica,Arial,sans-serif" font-size="14" font-weight="600" fill="#ffffff">Vite</text></g><g transform="translate(133,0)"><rect width="80" height="30" rx="8" fill="#4A6FA5"/><text x="40" y="20" text-anchor="middle" font-family="'Segoe UI',Helvetica,Arial,sans-serif" font-size="14" font-weight="600" fill="#ffffff">FastAPI</text></g><g transform="translate(221,0)"><rect width="82" height="30" rx="8" fill="#4A6FA5"/><text x="41" y="20" text-anchor="middle" font-family="'Segoe UI',Helvetica,Arial,sans-serif" font-size="14" font-weight="600" fill="#ffffff">PyTorch</text></g><g transform="translate(311,0)"><rect width="72" height="30" rx="8" fill="#4A6FA5"/><text x="36" y="20" text-anchor="middle" font-family="'Segoe UI',Helvetica,Arial,sans-serif" font-size="14" font-weight="600" fill="#ffffff">OpenAI</text></g><g transform="translate(391,0)"><rect width="86" height="30" rx="8" fill="#4A6FA5"/><text x="43" y="20" text-anchor="middle" font-family="'Segoe UI',Helvetica,Arial,sans-serif" font-size="14" font-weight="600" fill="#ffffff">Pinecone</text></g><g transform="translate(0,38)"><rect width="117" height="30" rx="8" fill="#4A6FA5"/><text x="58" y="20" text-anchor="middle" font-family="'Segoe UI',Helvetica,Arial,sans-serif" font-size="14" font-weight="600" fill="#ffffff">Hugging Face</text></g><g transform="translate(125,38)"><rect width="75" height="30" rx="8" fill="#4A6FA5"/><text x="38" y="20" text-anchor="middle" font-family="'Segoe UI',Helvetica,Arial,sans-serif" font-size="14" font-weight="600" fill="#ffffff">Railway</text></g><g transform="translate(208,38)"><rect width="55" height="30" rx="8" fill="#4A6FA5"/><text x="28" y="20" text-anchor="middle" font-family="'Segoe UI',Helvetica,Arial,sans-serif" font-size="14" font-weight="600" fill="#ffffff">Twig</text></g><g transform="translate(271,38)"><rect width="41" height="30" rx="8" fill="#4A6FA5"/><text x="20" y="20" text-anchor="middle" font-family="'Segoe UI',Helvetica,Arial,sans-serif" font-size="14" font-weight="600" fill="#ffffff">uv</text></g><g transform="translate(320,38)"><rect width="94" height="30" rx="8" fill="#4A6FA5"/><text x="47" y="20" text-anchor="middle" font-family="'Segoe UI',Helvetica,Arial,sans-serif" font-size="14" font-weight="600" fill="#ffffff">Playwright</text></g><g transform="translate(422,38)"><rect width="46" height="30" rx="8" fill="#4A6FA5"/><text x="23" y="20" text-anchor="middle" font-family="'Segoe UI',Helvetica,Arial,sans-serif" font-size="14" font-weight="600" fill="#ffffff">Git</text></g><g transform="translate(0,76)"><rect width="84" height="30" rx="8" fill="#4A6FA5"/><text x="42" y="20" text-anchor="middle" font-family="'Segoe UI',Helvetica,Arial,sans-serif" font-size="14" font-weight="600" fill="#ffffff">VS Code</text></g><g transform="translate(92,76)"><rect width="71" height="30" rx="8" fill="#4A6FA5"/><text x="36" y="20" text-anchor="middle" font-family="'Segoe UI',Helvetica,Arial,sans-serif" font-size="14" font-weight="600" fill="#ffffff">Claude</text></g></svg>
