<svg xmlns="http://www.w3.org/2000/svg" width="520" height="76" viewBox="0 0 520 76" role="img"><g transform="translate(0.5,0.5)"><rect width="92" height="33" rx="8" fill="#22303f" stroke="#3a4f6a"/><g transform="translate(13,7.65) scale(0.0777)"><path fill="#00d8ff" d="M210.483 73.824a172 172 0 0 0-8.24-2.597c.465-1.9.893-3.777 1.273-5.621c6.238-30.281 2.16-54.676-11.769-62.708c-13.355-7.7-35.196.329-57.254 19.526a171 171 0 0 0-6.375 5.848a156 156 0 0 0-4.241-3.917C100.759 3.829 77.587-4.822 63.673 3.233C50.33 10.957 46.379 33.89 51.995 62.588a171 171 0 0 0 1.892 8.48c-3.28.932-6.445 1.924-9.474 2.98C17.309 83.498 0 98.307 0 113.668c0 15.865 18.582 31.778 46.812 41.427a146 146 0 0 0 6.921 2.165a168 168 0 0 0-2.01 9.138c-5.354 28.2-1.173 50.591 12.134 58.266c13.744 7.926 36.812-.22 59.273-19.855a146 146 0 0 0 5.342-4.923a168 168 0 0 0 6.92 6.314c21.758 18.722 43.246 26.282 56.54 18.586c13.731-7.949 18.194-32.003 12.4-61.268a145 145 0 0 0-1.535-6.842c1.62-.48 3.21-.974 4.76-1.488c29.348-9.723 48.443-25.443 48.443-41.52c0-15.417-17.868-30.326-45.517-39.844m-6.365 70.984q-2.102.694-4.3 1.345c-3.24-10.257-7.612-21.163-12.963-32.432c5.106-11 9.31-21.767 12.459-31.957c2.619.758 5.16 1.557 7.61 2.4c23.69 8.156 38.14 20.213 38.14 29.504c0 9.896-15.606 22.743-40.946 31.14m-10.514 20.834c2.562 12.94 2.927 24.64 1.23 33.787c-1.524 8.219-4.59 13.698-8.382 15.893c-8.067 4.67-25.32-1.4-43.927-17.412a157 157 0 0 1-6.437-5.87c7.214-7.889 14.423-17.06 21.459-27.246c12.376-1.098 24.068-2.894 34.671-5.345q.785 3.162 1.386 6.193M87.276 214.515c-7.882 2.783-14.16 2.863-17.955.675c-8.075-4.657-11.432-22.636-6.853-46.752a157 157 0 0 1 1.869-8.499c10.486 2.32 22.093 3.988 34.498 4.994c7.084 9.967 14.501 19.128 21.976 27.15a135 135 0 0 1-4.877 4.492c-9.933 8.682-19.886 14.842-28.658 17.94M50.35 144.747c-12.483-4.267-22.792-9.812-29.858-15.863c-6.35-5.437-9.555-10.836-9.555-15.216c0-9.322 13.897-21.212 37.076-29.293c2.813-.98 5.757-1.905 8.812-2.773c3.204 10.42 7.406 21.315 12.477 32.332c-5.137 11.18-9.399 22.249-12.634 32.792a135 135 0 0 1-6.318-1.979m12.378-84.26c-4.811-24.587-1.616-43.134 6.425-47.789c8.564-4.958 27.502 2.111 47.463 19.835a144 144 0 0 1 3.841 3.545c-7.438 7.987-14.787 17.08-21.808 26.988c-12.04 1.116-23.565 2.908-34.161 5.309a160 160 0 0 1-1.76-7.887m110.427 27.268a348 348 0 0 0-7.785-12.803c8.168 1.033 15.994 2.404 23.343 4.08c-2.206 7.072-4.956 14.465-8.193 22.045a381 381 0 0 0-7.365-13.322m-45.032-43.861c5.044 5.465 10.096 11.566 15.065 18.186a322 322 0 0 0-30.257-.006c4.974-6.559 10.069-12.652 15.192-18.18M82.802 87.83a323 323 0 0 0-7.227 13.238c-3.184-7.553-5.909-14.98-8.134-22.152c7.304-1.634 15.093-2.97 23.209-3.984a322 322 0 0 0-7.848 12.897m8.081 65.352c-8.385-.936-16.291-2.203-23.593-3.793c2.26-7.3 5.045-14.885 8.298-22.6a321 321 0 0 0 7.257 13.246c2.594 4.48 5.28 8.868 8.038 13.147m37.542 31.03c-5.184-5.592-10.354-11.779-15.403-18.433c4.902.192 9.899.29 14.978.29c5.218 0 10.376-.117 15.453-.343c-4.985 6.774-10.018 12.97-15.028 18.486m52.198-57.817c3.422 7.8 6.306 15.345 8.596 22.52c-7.422 1.694-15.436 3.058-23.88 4.071a382 382 0 0 0 7.859-13.026a347 347 0 0 0 7.425-13.565m-16.898 8.101a359 359 0 0 1-12.281 19.815a329 329 0 0 1-23.444.823c-7.967 0-15.716-.248-23.178-.732a310 310 0 0 1-12.513-19.846h.001a307 307 0 0 1-10.923-20.627a310 310 0 0 1 10.89-20.637l-.001.001a307 307 0 0 1 12.413-19.761c7.613-.576 15.42-.876 23.31-.876H128c7.926 0 15.743.303 23.354.883a329 329 0 0 1 12.335 19.695a359 359 0 0 1 11.036 20.54a330 330 0 0 1-11 20.722m22.56-122.124c8.572 4.944 11.906 24.881 6.52 51.026q-.518 2.504-1.15 5.09c-10.622-2.452-22.155-4.275-34.23-5.408c-7.034-10.017-14.323-19.124-21.64-27.008a161 161 0 0 1 5.888-5.4c18.9-16.447 36.564-22.941 44.612-18.3M128 90.808c12.625 0 22.86 10.235 22.86 22.86s-10.235 22.86-22.86 22.86s-22.86-10.235-22.86-22.86s10.235-22.86 22.86-22.86"/></g><text x="41" y="21" text-anchor="start" font-family="'Segoe UI',Helvetica,Arial,sans-serif" font-size="14" font-weight="600" fill="#eef2f7">React</text></g><g transform="translate(100.5,0.5)"><rect width="81" height="33" rx="8" fill="#22303f" stroke="#3a4f6a"/><g transform="translate(13,6.56) scale(0.0774)"><defs><linearGradient id="ic8_SVGmrugVdcL" x1="-.828%" x2="57.636%" y1="7.652%" y2="78.411%"><stop offset="0%" stop-color="#41D1FF"/><stop offset="100%" stop-color="#BD34FE"/></linearGradient><linearGradient id="ic8_SVGqn4NsbfA" x1="43.376%" x2="50.316%" y1="2.242%" y2="89.03%"><stop offset="0%" stop-color="#FFEA83"/><stop offset="8.333%" stop-color="#FFDD35"/><stop offset="100%" stop-color="#FFA800"/></linearGradient></defs><path fill="url(#ic8_SVGmrugVdcL)" d="M255.153 37.938L134.897 252.976c-2.483 4.44-8.862 4.466-11.382.048L.875 37.958c-2.746-4.814 1.371-10.646 6.827-9.67l120.385 21.517a6.5 6.5 0 0 0 2.322-.004l117.867-21.483c5.438-.991 9.574 4.796 6.877 9.62"/><path fill="url(#ic8_SVGqn4NsbfA)" d="M185.432.063L96.44 17.501a3.27 3.27 0 0 0-2.634 3.014l-5.474 92.456a3.268 3.268 0 0 0 3.997 3.378l24.777-5.718c2.318-.535 4.413 1.507 3.936 3.838l-7.361 36.047c-.495 2.426 1.782 4.5 4.151 3.78l15.304-4.649c2.372-.72 4.652 1.36 4.15 3.788l-11.698 56.621c-.732 3.542 3.979 5.473 5.943 2.437l1.313-2.028l72.516-144.72c1.215-2.423-.88-5.186-3.54-4.672l-25.505 4.922c-2.396.462-4.435-1.77-3.759-4.114l16.646-57.705c.677-2.35-1.37-4.583-3.769-4.113"/></g><text x="41" y="21" text-anchor="start" font-family="'Segoe UI',Helvetica,Arial,sans-serif" font-size="14" font-weight="600" fill="#eef2f7">Vite</text></g><g transform="translate(189.5,0.5)"><rect width="108" height="33" rx="8" fill="#22303f" stroke="#3a4f6a"/><g transform="translate(13,6.56) scale(0.0777)"><path fill="#009688" d="M128 0C57.33 0 0 57.33 0 128s57.33 128 128 128s128-57.33 128-128S198.67 0 128 0m-6.67 230.605v-80.288H76.699l64.128-124.922v80.288h42.966z"/></g><text x="41" y="21" text-anchor="start" font-family="'Segoe UI',Helvetica,Arial,sans-serif" font-size="14" font-weight="600" fill="#eef2f7">FastAPI</text></g><g transform="translate(305.5,0.5)"><rect width="106" height="33" rx="8" fill="#22303f" stroke="#3a4f6a"/><g transform="translate(13,6.56) scale(0.0641)"><path fill="#ee4c2c" d="M127.825 0v45.053l-69.224 69.222c-36.229 36.744-36.225 95.853.012 133.264l1.109 1.127c37.02 37.719 97.79 37.719 135.509 0c37.341-36.65 37.715-96.577 1.12-134.37l-1.12-1.14l23.05-23.05c50.292 50.292 50.292 130.969 0 181.61c-49.244 50.292-130.27 50.292-180.562 0c-49.79-49.789-50.287-129.7-1.494-180.092l1.494-1.518zm45.403 50.99c9.258 0 16.764 7.506 16.764 16.764c0 9.259-7.506 16.764-16.764 16.764c-9.259 0-16.764-7.505-16.764-16.764c0-9.258 7.505-16.764 16.764-16.764"/></g><text x="37" y="21" text-anchor="start" font-family="'Segoe UI',Helvetica,Arial,sans-serif" font-size="14" font-weight="600" fill="#eef2f7">PyTorch</text></g><g transform="translate(419.5,0.5)"><rect width="100" height="33" rx="8" fill="#22303f" stroke="#3a4f6a"/><g transform="translate(13,6.56) scale(0.0765)"><path d="M239.184 106.203a64.72 64.72 0 0 0-5.576-53.103C219.452 28.459 191 15.784 163.213 21.74A65.586 65.586 0 0 0 52.096 45.22a64.72 64.72 0 0 0-43.23 31.36c-14.31 24.602-11.061 55.634 8.033 76.74a64.67 64.67 0 0 0 5.525 53.102c14.174 24.65 42.644 37.324 70.446 31.36a64.72 64.72 0 0 0 48.754 21.744c28.481.025 53.714-18.361 62.414-45.481a64.77 64.77 0 0 0 43.229-31.36c14.137-24.558 10.875-55.423-8.083-76.483m-97.56 136.338a48.4 48.4 0 0 1-31.105-11.255l1.535-.87l51.67-29.825a8.6 8.6 0 0 0 4.247-7.367v-72.85l21.845 12.636c.218.111.37.32.409.563v60.367c-.056 26.818-21.783 48.545-48.601 48.601M37.158 197.93a48.35 48.35 0 0 1-5.781-32.589l1.534.921l51.722 29.826a8.34 8.34 0 0 0 8.441 0l63.181-36.425v25.221a.87.87 0 0 1-.358.665l-52.335 30.184c-23.257 13.398-52.97 5.431-66.404-17.803M23.549 85.38a48.5 48.5 0 0 1 25.58-21.333v61.39a8.29 8.29 0 0 0 4.195 7.316l62.874 36.272l-21.845 12.636a.82.82 0 0 1-.767 0L41.353 151.53c-23.211-13.454-31.171-43.144-17.804-66.405zm179.466 41.695l-63.08-36.63L161.73 77.86a.82.82 0 0 1 .768 0l52.233 30.184a48.6 48.6 0 0 1-7.316 87.635v-61.391a8.54 8.54 0 0 0-4.4-7.213m21.742-32.69l-1.535-.922l-51.619-30.081a8.39 8.39 0 0 0-8.492 0L99.98 99.808V74.587a.72.72 0 0 1 .307-.665l52.233-30.133a48.652 48.652 0 0 1 72.236 50.391zM88.061 139.097l-21.845-12.585a.87.87 0 0 1-.41-.614V65.685a48.652 48.652 0 0 1 79.757-37.346l-1.535.87l-51.67 29.825a8.6 8.6 0 0 0-4.246 7.367zm11.868-25.58L128.067 97.3l28.188 16.218v32.434l-28.086 16.218l-28.188-16.218z"/></g><text x="41" y="21" text-anchor="start" font-family="'Segoe UI',Helvetica,Arial,sans-serif" font-size="14" font-weight="600" fill="#eef2f7">OpenAI</text></g><g transform="translate(82.0,42.5)"><rect width="112" height="33" rx="8" fill="#22303f" stroke="#3a4f6a"/><g transform="translate(13,6.56) scale(0.0690)"><path fill="#201d1e" d="M108.634 254.436c9.08 0 16.44 7.361 16.44 16.442s-7.36 16.44-16.44 16.44s-16.442-7.36-16.442-16.44s7.361-16.442 16.442-16.442m91.216-29.998l16.247 4.814L203.2 272.78a8.47 8.47 0 0 1-8.7 6.046l-3.983-.273l-.098.08l-41.39-2.904l1.152-16.906l27.808 1.887l-18.205-26.262l13.926-9.656l18.229 26.295zm-176.837-30.09l16.903 1.197l-1.98 27.804L64.15 205.12l9.677 13.91l-26.248 18.248l26.792 7.895l-4.79 16.255l-43.732-12.885a8.47 8.47 0 0 1-6.058-8.726zM132.15 170.67l30.508 36.832l-13.75 11.389l-18.156-21.92l-5.886 33.702l-17.587-3.074l5.892-33.755l-24.442 14.412l-9.063-15.383l41.079-24.2a8.93 8.93 0 0 1 11.405 1.997m85.354-24.71l15.239-8.292l22.2 40.805a8.675 8.675 0 0 1-1.926 10.69l-3.141 2.714l-32.05 27.893l-11.386-13.09l21.548-18.747l-32.095-5.781l3.078-17.074l32.073 5.779zM37.782 103.298l11.48 13.008l-21.251 18.743l32.156 5.614l-2.98 17.091l-32.192-5.618l13.827 24.998l-15.18 8.398l-22.558-40.776a8.675 8.675 0 0 1 1.85-10.703zm108.694-13.42l30.404 36.734l-13.753 11.384l-18.152-21.93l-5.886 33.712l-17.587-3.074l5.872-33.624l-24.349 14.274l-9.027-15.403l37.4-21.929l.038-.142l.165.021l3.485-2.032a8.93 8.93 0 0 1 11.39 2.01m39.18-18.065l6.65-16.024l43.012 17.85a8.675 8.675 0 0 1 5.218 9.517l-.716 3.982l-7.345 41.78l-17.086-3.01l4.924-27.968l-28.537 15.772l-8.386-15.188l28.591-15.784zm-81.939-31.577l.74 17.334l-28.414 1.214l21.43 24.49l-13.056 11.424L62.95 70.173l-5.001 28l-17.078-3.054l8.184-45.759a8.674 8.674 0 0 1 8.17-7.139l4.02-.18l.09-.065zm58.121-36.965l30.267 36.965l-13.814 11.31l-17.964-21.943l-6.059 33.668l-17.57-3.162l6.068-33.743l-24.526 14.34l-9.007-15.415L150.428 1.22a8.93 8.93 0 0 1 11.41 2.052"/></g><text x="39" y="21" text-anchor="start" font-family="'Segoe UI',Helvetica,Arial,sans-serif" font-size="14" font-weight="600" fill="#eef2f7">Pinecone</text></g><g transform="translate(202.0,42.5)"><rect width="145" height="33" rx="8" fill="#22303f" stroke="#3a4f6a"/><g transform="translate(13,7.26) scale(0.0777)"><path fill="#fff" d="M255.138 174.711a23.6 23.6 0 0 0-3.2-7.075q.468-1.713.707-3.47c1.029-7.428-1.545-14.232-6.4-19.49c-2.629-2.874-5.446-4.771-8.431-5.936a112.6 112.6 0 0 0 2.956-25.57c0-3.93-.223-7.78-.595-11.574a136 136 0 0 0-.705-5.67a113 113 0 0 0-3.794-16.42a114 114 0 0 0-3.795-10.41a114 114 0 0 0-7.51-14.605a102 102 0 0 0-6.1-9.026a86 86 0 0 0-3.361-4.283a112 112 0 0 0-11.229-11.793a86 86 0 0 0-4.119-3.556a102 102 0 0 0-4.256-3.363a120 120 0 0 0-9.028-6.1C169.148 5.968 149.06 0 127.582 0C65.069 0 14.403 50.666 14.403 113.178a112.6 112.6 0 0 0 3.01 25.88c-2.685 1.166-5.26 2.982-7.645 5.611c-4.853 5.26-7.428 12.037-6.398 19.466c.155 1.181.392 2.35.705 3.498a23.6 23.6 0 0 0-3.2 7.078c-1.491 5.67-1 10.782.895 15.265c-2.06 5.856-1.545 12.09 1.139 17.514c1.951 3.959 4.745 7.02 8.187 9.759c4.093 3.253 9.217 6.019 15.4 8.67c7.374 3.145 16.372 6.1 20.461 7.184c10.573 2.738 20.71 4.473 30.989 4.557c14.643.136 27.247-3.307 36.272-12.116c4.434.543 8.896.815 13.362.814c4.72-.01 9.435-.308 14.121-.89c9.005 8.865 21.654 12.34 36.347 12.2c10.273-.082 20.41-1.817 30.951-4.56c4.12-1.083 13.114-4.038 20.498-7.181c6.181-2.658 11.304-5.422 15.426-8.672c3.416-2.737 6.206-5.8 8.16-9.759c2.71-5.42 3.199-11.656 1.165-17.514c1.878-4.479 2.366-9.603.875-15.265zm-10.49 14.88c2.077 3.94 2.21 8.395.377 12.541c-2.78 6.288-9.683 11.239-23.096 16.558c-8.337 3.307-15.973 5.42-16.035 5.44c-11.028 2.86-21.007 4.313-29.634 4.313c-14.295 0-24.935-3.945-31.685-11.736a106.3 106.3 0 0 1-34.494.195c-6.755 7.662-17.328 11.54-31.511 11.54c-8.635 0-18.608-1.451-29.634-4.312c-.068-.02-7.7-2.133-16.035-5.44c-13.412-5.317-20.311-10.265-23.096-16.558c-1.833-4.148-1.7-8.601.377-12.542q.289-.549.618-1.068a15.9 15.9 0 0 1-2.148-12.855c.825-3.135 2.53-5.743 4.845-7.616a15.9 15.9 0 0 1-2.15-5.994c-.666-4.617.865-9.227 4.313-12.99c2.684-2.925 6.479-4.534 10.682-4.534h.111a105 105 0 0 1-4.764-31.375C21.689 55.146 68.725 8.11 126.738 8.11c58.025 0 105.049 47.036 105.049 105.048a105 105 0 0 1-4.797 31.45q.76-.076 1.492-.077c4.201 0 7.997 1.609 10.68 4.534c3.447 3.755 4.982 8.37 4.314 12.99a15.9 15.9 0 0 1-2.15 5.995c2.314 1.872 4.02 4.48 4.845 7.616a15.94 15.94 0 0 1-2.148 12.855c.22.34.428.699.618 1.064z"/><path fill="#ff9d00" d="M243.95 188.509a15.94 15.94 0 0 0 2.149-12.856c-.826-3.135-2.531-5.743-4.846-7.616a15.9 15.9 0 0 0 2.15-5.994c.667-4.616-.864-9.227-4.312-12.99c-2.684-2.924-6.48-4.534-10.682-4.534q-.731 0-1.491.076a105 105 0 0 0 4.788-31.449c0-58.012-47.037-105.049-105.05-105.049S21.609 55.121 21.609 113.146a105 105 0 0 0 4.764 31.374h-.111c-4.202 0-7.997 1.61-10.68 4.535c-3.446 3.755-4.98 8.368-4.314 12.99a15.9 15.9 0 0 0 2.15 5.993c-2.314 1.874-4.02 4.482-4.844 7.618a15.92 15.92 0 0 0 2.15 12.857a14 14 0 0 0-.617 1.067c-2.076 3.942-2.21 8.396-.377 12.543c2.778 6.286 9.683 11.239 23.096 16.557c8.337 3.307 15.973 5.42 16.035 5.44c11.028 2.86 21.007 4.314 29.634 4.314c14.183 0 24.761-3.878 31.51-11.542a106.3 106.3 0 0 0 34.495-.195c6.746 7.791 17.39 11.737 31.685 11.737c8.634 0 18.608-1.453 29.634-4.313c.067-.02 7.7-2.134 16.035-5.441c13.413-5.315 20.311-10.269 23.096-16.557c1.833-4.148 1.7-8.602-.377-12.543q-.287-.554-.619-1.067zm-138.722 16.383a42 42 0 0 1-1.868 2.977c-1.747 2.557-4.044 4.51-6.709 5.963c-5.098 2.778-11.548 3.75-18.098 3.75c-10.352 0-20.97-2.423-26.912-3.966c-.292-.076-36.458-10.293-31.884-18.994c.77-1.462 2.04-2.046 3.636-2.046c6.448 0 18.185 9.601 23.232 9.601c1.126 0 1.922-.48 2.246-1.65c2.15-7.714-32.679-10.955-29.745-22.127c.518-1.976 1.921-2.778 3.896-2.778c8.524-.001 27.658 14.991 31.66 14.991c.308 0 .528-.09.647-.278l.052-.086c1.877-3.101.8-5.356-12.067-13.238l-1.236-.752c-14.158-8.571-24.102-13.723-18.446-19.876c.65-.711 1.57-1.026 2.69-1.026c1.33 0 2.937.445 4.707 1.19c7.478 3.153 17.837 11.754 22.176 15.5a168 168 0 0 1 2.028 1.79s5.482 5.7 8.797 5.7c.763 0 1.41-.299 1.849-1.043c2.351-3.963-21.828-22.288-23.195-29.846c-.924-5.123.648-7.718 3.558-7.718c1.383 0 3.07.588 4.934 1.77c5.78 3.67 16.943 22.847 21.032 30.306c1.37 2.5 3.708 3.557 5.815 3.557c4.18 0 7.448-4.155.383-9.436c-10.62-7.946-6.893-20.932-1.825-21.728q.325-.05.653-.052c4.609 0 6.642 7.943 6.642 7.943s5.958 14.966 16.197 25.196c9.29 9.284 10.586 16.905 5.175 26.402zm33.102 1.753l-.53.063l-.907.104q-.714.074-1.43.14l-.468.043l-.425.036l-.605.049q-.334.025-.668.047l-.666.045l-.147.008l-.524.031l-.223.012l-.621.03l-.723.03l-.656.023l-.438.012h-.22c-.138 0-.273.008-.41.01h-.217q-.204-.002-.41.007l-.555.006h-.778q-.915 0-1.826-.018l-.492-.01c-.14 0-.28-.008-.42-.012l-.52-.016l-.649-.025l-.583-.025l-.151-.006l-.556-.03q-.231-.012-.461-.026l-.36-.021a99 99 0 0 1-1.353-.096l-.473-.037l-.596-.051l-.698-.065q-.584-.054-1.167-.12h-.018c5.68-12.678 2.808-24.512-8.672-35.973c-7.528-7.517-12.542-18.62-13.574-21.057c-2.103-7.215-7.67-15.24-16.917-15.24q-1.174.003-2.334.186c-4.05.636-7.59 2.968-10.117 6.476c-2.728-3.394-5.382-6.093-7.781-7.618c-3.617-2.292-7.226-3.456-10.744-3.456c-4.388 0-8.312 1.802-11.047 5.072l-.068.083l-.154-.648l-.006-.027a92 92 0 0 1-1.31-6.727c0-.017 0-.031-.008-.046l-.077-.511l-.122-.83q-.049-.346-.094-.688q-.046-.344-.09-.689a70 70 0 0 1-.16-1.347l-.007-.056a97 97 0 0 1-.289-3.032l-.043-.585q-.02-.24-.034-.485c0-.037-.005-.076-.007-.11l-.041-.65q-.022-.352-.039-.704l-.035-.705l-.025-.615l-.007-.187l-.019-.57l-.013-.481c0-.193-.01-.387-.013-.58l-.01-.608c-.002-.202 0-.404-.005-.606c-.006-.204 0-.407 0-.61c0-52.022 42.176-94.198 94.21-94.198s94.21 42.176 94.21 94.197v1.217q-.001.306-.01.608c0 .17-.007.335-.012.504q-.001.226-.012.445c0 .19-.011.379-.017.569v.016l-.051 1.238l-.008.137l-.032.616l-.03.489a98 98 0 0 1-.271 3.47v.015q-.03.326-.066.65l-.166 1.51l-.064.507l-.078.594q-.042.326-.088.65l-.105.725l-.087.57l-.102.645q-.051.323-.11.644c-.043.214-.075.428-.112.643q-.111.641-.235 1.28q-.248 1.274-.521 2.541q-.069.315-.142.632c-2.651-2.577-6.161-3.98-10.035-3.98c-3.514 0-7.126 1.162-10.742 3.455c-2.4 1.524-5.052 4.224-7.783 7.619c-2.53-3.51-6.07-5.84-10.116-6.478a15 15 0 0 0-2.334-.184c-9.247 0-14.817 8.021-16.918 15.24c-1.043 2.437-6.052 13.536-13.586 21.07c-11.47 11.433-14.37 23.22-8.773 35.836zm97.255-25.37l-.037.11q-.038.106-.08.211a6.5 6.5 0 0 1-.55 1.026q-.311.465-.683.884c-.057.064-.112.128-.176.191q-.132.143-.272.282c-1.675 1.66-4.226 3.113-7.11 4.448q-.489.222-.993.444l-.333.147a66 66 0 0 1-1.362.58l-.694.287c-1.622.667-3.284 1.303-4.906 1.932l-.692.268l-.686.268q-.682.267-1.35.534l-.66.266l-.647.266l-.32.133q-.316.133-.626.266c-4.77 2.046-8.201 4.128-7.48 6.712q.03.11.067.21q.097.288.262.542q.098.154.223.285c.847.88 2.39.74 4.335.042q.238-.085.483-.183q.166-.064.334-.131l.168-.071c.445-.19.916-.4 1.398-.63c.12-.055.243-.11.364-.174c2.378-1.163 5.074-2.73 7.75-4.156q.616-.331 1.23-.646a57 57 0 0 1 2.025-1c2.533-1.192 4.914-2.037 6.83-2.037c.897 0 1.691.184 2.351.607l.11.073a3.6 3.6 0 0 1 1.023 1.101q.08.129.15.264c.946 1.795.154 3.656-1.698 5.48c-1.779 1.75-4.546 3.466-7.692 5.056q-.349.178-.704.35c-9.36 4.597-21.616 8.059-21.79 8.102c-3.267.847-7.938 1.96-13.201 2.791l-.78.12l-.126.02q-1.79.267-3.59.473l-.11.011a84 84 0 0 1-6.66.505h-.034q-1.208.044-2.416.043h-.927a59 59 0 0 1-3.68-.166q-.042.002-.088-.007a47 47 0 0 1-3.56-.42l-.9-.151q-.206-.037-.409-.077l-.032-.007a35 35 0 0 1-1.288-.27c-.247-.057-.496-.113-.74-.178l-.147-.039q-.182-.046-.36-.094l-.067-.018l-.384-.11l-.416-.122l-.05-.015l-.362-.11l-.407-.131q-.167-.058-.335-.112l-.245-.086q-.354-.124-.703-.259l-.221-.085l-.183-.074q-.528-.212-1.05-.445l-.23-.11l-.039-.018q-.123-.058-.245-.112a21 21 0 0 1-.477-.237l-.047-.024l-.23-.12a19 19 0 0 1-1.195-.679l-.214-.13c-.11-.068-.211-.136-.317-.204l-.278-.185a10 10 0 0 1-.3-.207l-.179-.127a17 17 0 0 1-.557-.416q-.145-.114-.288-.223q-.318-.255-.625-.525l-.009-.008q-.3-.26-.585-.534l-.01-.013q-.15-.14-.294-.287t-.286-.293q-.142-.149-.28-.304q-.134-.145-.264-.294l-.03-.034a19 19 0 0 1-1.258-1.634l-.154-.228q-.153-.226-.302-.453l-.293-.452a38 38 0 0 1-.712-1.145q-.122-.204-.24-.406q-.064-.11-.125-.222c-.04-.078-.09-.156-.133-.234l-.07-.123l-.043-.081a13 13 0 0 1-.246-.451q-.053-.1-.11-.2l-.113-.213l-.11-.212l-.214-.432l-.102-.212q-.109-.23-.212-.454q-.043-.092-.081-.183a14 14 0 0 1-.273-.63c-.058-.14-.111-.28-.169-.419q-.24-.615-.448-1.243q-.063-.185-.118-.372q-.134-.423-.243-.854a16 16 0 0 1-.232-1.011q-.064-.3-.11-.605q-.051-.3-.087-.599a16 16 0 0 1-.108-1.193c0-.066-.006-.133-.007-.199q-.01-.197-.011-.395c-.07-5.31 2.619-10.418 8.365-16.16c10.235-10.226 16.197-25.196 16.197-25.196s.16-.628.495-1.53q.167-.45.351-.893q.21-.5.453-.985l.047-.095q.311-.619.678-1.206c.056-.09.11-.181.175-.27q.272-.407.577-.789q.235-.293.498-.563c.594-.611 1.272-1.111 2.039-1.378l.097-.031q.096-.031.194-.06q.116-.03.23-.055l.036-.006a4 4 0 0 1 .49-.066h.015c.086 0 .172-.009.26-.009q.33.003.657.053c.922.145 1.8.695 2.557 1.542l.101.12q.37.433.67.92q.222.36.422.756c.053.112.104.214.155.324q.038.083.074.167q.074.166.141.34c.26.666.461 1.354.603 2.055q.226 1.137.262 2.297q.015.509 0 1.03q-.008.198-.022.398a14.9 14.9 0 0 1-.956 4.316c-.053.137-.112.276-.166.415a15 15 0 0 1-.929 1.855q-.3.51-.648 1.014l-.141.201a17 17 0 0 1-1.829 2.148q-.99.99-2.112 1.829a17 17 0 0 0-2.1 1.834c-1.869 1.962-2.304 3.691-1.884 5.002q.075.223.176.434c.155.305.356.584.598.828l.065.066q.103.1.214.19l.075.061a4.3 4.3 0 0 0 .573.372c.057.03.11.062.176.092q.413.204.858.33l.082.02l.11.03l.098.024l.103.022l.103.021l.098.016q.111.02.221.035l.073.01l.128.014l.08.007l.13.01h.077l.136.006h.432l.123-.006l.142-.009l.172-.016l.162-.02c.036 0 .073-.01.11-.016a6.3 6.3 0 0 0 1.973-.631a6.5 6.5 0 0 0 1.44-.993l.176-.167q.043-.04.082-.082a6 6 0 0 0 .484-.543a7.5 7.5 0 0 0 .707-1.068a283 283 0 0 1 7.646-13.064l.365-.586l.37-.586q.278-.445.555-.88l.188-.291l.374-.583q.753-1.165 1.513-2.306l.379-.567a134 134 0 0 1 2.271-3.265l.375-.515a68 68 0 0 1 2.552-3.308l.352-.42c.057-.07.11-.14.174-.208l.345-.399c.057-.065.111-.13.171-.193l.333-.377l.168-.182q.243-.262.492-.52c.112-.11.215-.222.323-.325a13 13 0 0 1 2.075-1.724l.173-.11l.175-.112q.168-.105.34-.2c2.94-1.667 5.373-1.79 6.773-.39c.849.848 1.317 2.254 1.293 4.21q.002.128-.008.262v.097q-.002.133-.014.27c0 .11-.013.222-.024.332c-.012.112-.017.197-.028.295q-.002.043-.01.086l-.03.262c0 .027 0 .053-.012.08q-.019.179-.051.354a5 5 0 0 1-.052.324l-.031.186a5 5 0 0 1-.126.523q-.143.481-.35.94q-.09.202-.188.397q-.202.404-.453.832q-.124.212-.26.431l-.14.222q-.212.333-.444.674q-.23.342-.497.695q-.345.471-.728.956l-.194.245a67 67 0 0 1-1.684 2.014l-.457.516l-.232.26q-.475.532-.956 1.056l-.246.266c-.163.177-.333.356-.496.533q-.251.27-.505.539l-.512.539l-.518.54q-.26.273-.522.544l-1.056 1.088c-5.04 5.17-10.352 10.322-12.149 13.536q-.18.315-.326.645c-.255.585-.361 1.084-.29 1.488q.037.201.14.377q.153.264.367.481q.097.098.208.18c.37.264.817.4 1.27.386h.143l.145-.01l.147-.018l.12-.017q.024-.002.049-.009l.11-.021l.03-.007l.122-.027l.174-.044l.155-.046q.152-.047.309-.105q.337-.12.66-.274q.082-.038.164-.08l.165-.082q.323-.164.648-.356q.258-.151.516-.316l.166-.111q.083-.052.165-.112l.166-.11l.087-.062l.238-.166c.223-.154.43-.312.642-.472l.019-.014l.333-.259c.456-.36.89-.723 1.281-1.065l.261-.23l.025-.022l.136-.12c.32-.288.606-.556.845-.779l.097-.094l.235-.223l.14-.137l.049-.05l.013-.013l.239-.24l.01-.01l.045-.04q.02-.022.053-.048l.018-.016l.047-.043l.252-.222l.142-.128q.106-.09.222-.202l.17-.149q.045-.038.091-.08l.178-.156l.262-.229l.138-.12c.541-.471 1.2-1.04 1.954-1.68l.31-.26l.512-.43l.522-.437c.684-.567 1.42-1.17 2.198-1.796l.51-.41q.655-.52 1.336-1.056q.272-.215.555-.427a143 143 0 0 1 4.677-3.466l.478-.332q.5-.347 1-.686l.303-.205q.896-.605 1.809-1.182l.302-.19l.3-.187q.45-.279.894-.547l.297-.176l.596-.347q.292-.17.583-.333l.117-.066l.462-.252q.288-.157.574-.304l.286-.146l.276-.14q.948-.477 1.928-.88q.135-.055.266-.112q.263-.11.522-.2q.26-.088.511-.179q.228-.075.445-.143l.048-.015q.117-.035.232-.065l.022-.007q.235-.066.471-.123h.013q.348-.084.68-.14q.113-.02.222-.035q.323-.048.648-.07q.205-.014.411-.013h.105q.207 0 .406.022c.06 0 .122.011.181.02h.025q.09.01.18.029c.058.012.117.02.175.034h.02c.057.013.11.029.17.045c.475.128.91.37 1.273.703l.032.032l.063.062l.063.066a6.9 6.9 0 0 1 1.221 1.779l.049.11q.16.374.247.77c.162.734.118 1.5-.127 2.211q-.157.465-.387.899l-.102.184a10.3 10.3 0 0 1-1.366 1.805l-.112.118q-.368.39-.762.754q-.126.118-.256.235l-.132.12q-.411.363-.837.71q-.075.059-.149.121q-.295.24-.613.482a53 53 0 0 1-2.226 1.613q-.667.455-1.38.923q-1.327.87-2.676 1.706q-.388.241-.787.484c-2.445 1.505-5.156 3.113-8.047 4.862l-.748.455q-1.23.75-2.32 1.43l-.367.232l-.693.445q-.412.26-.802.514q-.294.189-.576.373l-.37.244q-.27.176-.538.357l-.174.11q-.276.184-.537.363l-.285.194l-.334.233l-.309.215q-.73.512-1.445 1.046l-.167.127q-.281.214-.544.422l-.229.182q-.578.465-1.05.89l-.154.142q-.134.121-.258.241l-.17.165l-.08.08q-.268.267-.52.548l-.081.095a8 8 0 0 0-.482.611l-.063.09a5.3 5.3 0 0 0-.426.746l-.042.09l-.026.064l-.022.054l-.028.076c-.009.026-.026.072-.036.112a3 3 0 0 0-.113.456l-.013.084l-.01.075l-.006.074v.39q-.002.049.008.1q0 .03.006.06c0 .031.009.064.012.097l.024.137v.006q.012.066.028.13q.017.068.037.139q.06.211.144.415c0 .01.008.021.012.031l.045.102q.091.213.204.415l.078.14l.082.142l.086.142l.05.066l.028.03l.03.027l.034.026q.034.024.07.044q.038.017.08.033q.045.015.09.026c.717.162 2.19-.432 4.149-1.466l.352-.187l.595-.324l.292-.162c.206-.112.419-.236.634-.36l.394-.222c2.59-1.49 5.683-3.406 8.88-5.275q.45-.263.9-.523l.604-.386q.453-.26.905-.514a99 99 0 0 1 3.905-2.106l.59-.3q.59-.29 1.166-.566a52 52 0 0 1 2.256-1.005l.417-.169l.05-.02c2.206-.874 4.206-1.414 5.824-1.414q.526-.004 1.046.085h.01c.111.02.212.043.314.069h.019q.224.054.437.139q.17.062.328.147a3.1 3.1 0 0 1 1.227 1.12q.165.25.281.527q.069.157.128.333c.04.12.075.234.11.357a4.86 4.86 0 0 1-.074 2.866z"/><path fill="#ffd21e" d="M220.83 113.728v-.61c0-52.02-42.163-94.197-94.197-94.197c-52.02 0-94.21 42.177-94.21 94.198l-.002.204v.405q.01.303.008.608l.007.447l.002.162l.007.221q.005.179.006.357l.012.483l.02.568l.006.187l.025.588v.027l.035.687v.018q.019.353.04.703q.019.326.04.65l.005.04q.016.276.037.556l.004.048q.019.27.04.537l.003.035l.025.311q.111 1.344.261 2.686l.006.056l.075.656l.086.692a85 85 0 0 0 .304 2.206l.006.034q.14.937.301 1.87q.464 2.706 1.09 5.38l.005.029l.04.168l.114.478l.069-.083c2.734-3.27 6.657-5.072 11.047-5.072c3.517 0 7.127 1.163 10.743 3.456c2.4 1.524 5.052 4.224 7.782 7.618c2.525-3.509 6.066-5.84 10.115-6.476a15 15 0 0 1 2.335-.185c9.244 0 14.817 8.023 16.918 15.24c1.037 2.438 6.047 13.536 13.598 21.057c11.48 11.47 14.357 23.307 8.672 35.973h.018q.582.064 1.168.118q.349.035.697.065l.082.007q.256.024.513.044l.473.038q.674.052 1.355.096l.358.021l.284.016l.178.01l.554.03l.152.006l.584.025l.648.025l.522.015l.087.004q.165.006.332.008l.118.003q1.1.026 2.199.026h.778l.557-.006q.204-.01.409-.008h.216l.188-.003q.11-.005.221-.005h.223l.436-.013l.656-.022l.724-.031l.621-.03l.223-.013l.33-.018l.194-.011l.146-.01l.667-.044q.334-.02.668-.048l.604-.048l.426-.036l.466-.042q.719-.067 1.431-.142q.454-.05.906-.103l.531-.063c-5.592-12.617-2.697-24.4 8.736-35.824c7.535-7.53 12.542-18.633 13.587-21.07c2.104-7.216 7.667-15.24 16.917-15.24q1.175.002 2.335.186c4.046.636 7.587 2.968 10.117 6.476c2.73-3.395 5.382-6.095 7.781-7.619c3.616-2.293 7.228-3.455 10.742-3.455c3.874 0 7.385 1.404 10.037 3.98q.218-.973.42-1.95q.123-.609.242-1.222q.147-.754.274-1.512q.033-.205.072-.411q.06-.321.11-.644l.014-.082l.088-.563l.087-.57l.002-.007l.103-.718q.038-.272.074-.546l.015-.105l.077-.594l.064-.506q.058-.5.112-1q.024-.2.043-.402l.013-.108q.034-.333.064-.666l.05-.517q.154-1.718.251-3.441v-.008l.034-.609l.006-.136l.025-.578q.014-.327.026-.66v-.017l.006-.16a9 9 0 0 0 .011-.409l.003-.056q.009-.191.01-.389l.003-.112q.007-.195.008-.39l.002-.11q.007-.25.008-.5zm-117.553 94.11c7.459-10.941 6.93-19.155-3.306-29.385s-16.196-25.197-16.196-25.197s-2.224-8.691-7.296-7.892c-5.071.798-8.792 13.786 1.826 21.729c10.618 7.949-2.112 13.337-6.199 5.88c-4.088-7.462-15.24-26.64-21.032-30.306c-5.785-3.668-9.854-1.612-8.49 5.948c.678 3.753 6.977 10.157 12.866 16.134c5.971 6.073 11.516 11.71 10.332 13.699c-2.353 3.962-10.64-4.656-10.64-4.656s-25.955-23.617-31.599-17.464c-5.207 5.672 2.823 10.494 15.203 17.924q1.58.949 3.246 1.956c14.159 8.572 15.265 10.833 13.251 14.07c-.742 1.2-5.482-1.646-11.311-5.147c-9.939-5.966-23.046-13.835-24.898-6.791c-1.603 6.094 8.038 9.828 16.78 13.213c7.285 2.822 13.947 5.402 12.965 8.905c-1.015 3.631-6.52.603-12.542-2.708c-6.756-3.718-14.158-7.792-16.582-3.195c-4.58 8.689 31.586 18.919 31.884 18.993c11.684 3.031 41.356 9.453 51.735-5.746zm48.055 0c-7.46-10.941-6.93-19.155 3.306-29.385s16.196-25.197 16.196-25.197s2.223-8.691 7.294-7.892c5.072.798 8.794 13.786-1.826 21.729c-10.619 7.943 2.112 13.337 6.2 5.88c4.088-7.462 15.24-26.64 21.02-30.306s9.855-1.612 8.492 5.948c-.678 3.753-6.978 10.158-12.866 16.147c-5.97 6.07-11.515 11.708-10.33 13.698c2.351 3.963 10.646-4.66 10.646-4.66s25.954-23.618 31.598-17.465c5.207 5.672-2.824 10.495-15.203 17.925a847 847 0 0 0-3.245 1.954c-14.158 8.57-15.265 10.833-13.25 14.071c.741 1.198 5.481-1.647 11.31-5.146c9.939-5.967 23.045-13.835 24.898-6.793c1.602 6.094-8.04 9.83-16.781 13.213c-7.285 2.822-13.947 5.401-12.965 8.905c1.015 3.631 6.518.602 12.53-2.71c6.755-3.717 14.158-7.792 16.582-3.194c4.579 8.695-31.586 18.919-31.884 18.993c-11.685 3.04-41.356 9.461-51.723-5.737z"/><path fill="#32343d" d="M157.311 87.475c1.468.52 2.56 2.102 3.6 3.606c1.405 2.035 2.712 3.927 4.719 2.86a13.545 13.545 0 0 0 7.128-13.266a13.55 13.55 0 0 0-5.935-9.956a13.56 13.56 0 0 0-18.015 2.634a13.57 13.57 0 0 0-3.028 7.262a13.56 13.56 0 0 0 1.517 7.721c.93 1.75 2.994.925 5.171.054c1.708-.683 3.486-1.394 4.843-.915m-63.867.001c-1.468.52-2.562 2.102-3.6 3.606c-1.406 2.034-2.713 3.927-4.72 2.86a13.55 13.55 0 0 1-6.92-9.295a13.56 13.56 0 0 1 2.789-11.248a13.557 13.557 0 0 1 23.986 7.216a13.55 13.55 0 0 1-1.52 7.721c-.932 1.75-2.995.924-5.173.053c-1.707-.683-3.484-1.394-4.842-.914zm53.985 58.112c10.122-7.975 13.835-20.995 13.835-29.012c0-6.34-4.266-4.345-11.094-.965l-.384.191c-6.269 3.104-14.618 7.236-23.767 7.236c-9.16 0-17.502-4.133-23.767-7.237c-7.049-3.492-11.47-5.682-11.47.776c0 8.272 3.955 21.852 14.817 29.746a23.55 23.55 0 0 1 14.386-12.165c1.084-.323 2.2 1.543 3.344 3.452c1.103 1.844 2.229 3.728 3.376 3.728c1.22 0 2.422-1.857 3.594-3.67c1.224-1.895 2.418-3.742 3.572-3.373a23.57 23.57 0 0 1 13.562 11.29z"/><path fill="#ff323d" d="M147.367 145.624c-5.272 4.154-12.279 6.94-21.405 6.94c-8.573 0-15.277-2.459-20.423-6.202a23.58 23.58 0 0 1 14.387-12.164c2.13-.635 4.384 7.18 6.718 7.18c2.5 0 4.908-7.765 7.168-7.043a23.6 23.6 0 0 1 13.561 11.29z"/><path fill="#ffad03" d="M69.217 98.762a8.8 8.8 0 0 1-6.623 1.335a8.81 8.81 0 0 1-6.939-6.931a8.82 8.82 0 0 1 1.328-6.626a8.812 8.812 0 0 1 15.96 6.615a8.8 8.8 0 0 1-3.726 5.607m126.044 0a8.8 8.8 0 0 1-6.623 1.335a8.81 8.81 0 0 1-6.939-6.931a8.812 8.812 0 1 1 13.562 5.596"/></g><text x="41" y="21" text-anchor="start" font-family="'Segoe UI',Helvetica,Arial,sans-serif" font-size="14" font-weight="600" fill="#eef2f7">Hugging Face</text></g><g transform="translate(355.0,42.5)"><rect width="83" height="33" rx="8" fill="#22303f" stroke="#3a4f6a"/><g transform="translate(13,6.56) scale(0.6212)"><path fill="#63bf6a" d="M4.574 5.463c.262.4 2.5-1.608 4.454-1.161c2.061.472 4.014 3.724 4.848 13.7a40 40 0 0 1 3.541 3.61q.53.614 1.013 1.22a12 12 0 0 1 .229-1.4a12.3 12.3 0 0 1 1.981-4.4A19.15 19.15 0 0 0 17.272 7.9c-1.03-1.445-4.6-6.478-8.546-5.843c-2.544.408-4.426 2.997-4.152 3.406"/><path fill="#74d74d" d="M24.4 30a69 69 0 0 1-.5-6.449c-.094-3.232.1-4.541.9-5.756c.193-.295 1.288-1.975 2.58-1.863c1.466.128 2.213 2.414 2.362 2.337c.175-.09-.36-3.543-2.532-4.431c-2.6-1.063-6.312 2.07-7.8 5.154a12.2 12.2 0 0 0-.857 2.81a32.6 32.6 0 0 0-.71 8.2Z"/><path fill="#78dc50" d="M2.238 13.935c.145-.447 2.468-.259 4.54.293c2.5.666 7 2.344 11.651 8.606A12.54 12.54 0 0 1 20.279 30h-9.893a22 22 0 0 0-.175-4.62a14.9 14.9 0 0 0-2.459-7.158c-2.311-3.063-5.697-3.722-5.514-4.287"/><path fill="#fff" d="M17.3 21.323a1.753 1.753 0 1 1-.513-1.24a1.75 1.75 0 0 1 .513 1.24m4.675 0a1.753 1.753 0 1 1-.513-1.24a1.75 1.75 0 0 1 .513 1.24"/></g><text x="41" y="21" text-anchor="start" font-family="'Segoe UI',Helvetica,Arial,sans-serif" font-size="14" font-weight="600" fill="#eef2f7">Twig</text></g></svg>
