<svg xmlns="http://www.w3.org/2000/svg" width="511" height="76" viewBox="0 0 511 76" role="img"><g transform="translate(0.5,0.5)"><rect width="103" height="33" rx="8" fill="#22303f" stroke="#3a4f6a"/><g transform="translate(13,6.56) scale(0.8283)"><path d="M.113 10.27A13.026 13.026 0 000 11.48h18.23c-.064-.125-.15-.237-.235-.347-3.117-4.027-4.793-3.677-7.19-3.78-.8-.034-1.34-.048-4.524-.048-1.704 0-3.555.005-5.358.01-.234.63-.459 1.24-.567 1.737h9.342v1.216H.113v.002zm18.26 2.426H.009c.02.326.05.645.094.961h16.955c.754 0 1.179-.429 1.315-.96zm-17.318 4.28s2.81 6.902 10.93 7.024c4.855 0 9.027-2.883 10.92-7.024H1.056zM11.988 0C7.5 0 3.593 2.466 1.531 6.108l4.75-.005v-.002c3.71 0 3.849.016 4.573.047l.448.016c1.563.052 3.485.22 4.996 1.364.82.621 2.007 1.99 2.712 2.965.654.902.842 1.94.396 2.934-.408.914-1.289 1.458-2.353 1.458H.391s.099.42.249.886h22.748A12.026 12.026 0 0024 12.005C24 5.377 18.621 0 11.988 0z" fill="#FFFFFF"/></g><text x="41" y="21" text-anchor="start" font-family="'Segoe UI',Helvetica,Arial,sans-serif" font-size="14" font-weight="600" fill="#eef2f7">Railway</text></g><g transform="translate(111.5,0.5)"><rect width="69" height="33" rx="8" fill="#22303f" stroke="#3a4f6a"/><g transform="translate(13,6.56) scale(0.8283)"><path d="m0 .1058.0504 11.9496.0403 9.5597c.0055 1.3199 1.08 2.3854 2.4 2.3798l9.5596-.0403 5.9749-.0252.6075-.0026c1.316-.0056 2.3799-1.0963 2.3799-2.4123h1.0946v2.3894L24 23.9042 23.8992.005 12.9056.0513l.0463 9.5245v5.9637h-1.9583L11.04 9.584 10.9936.0594Z" fill="#DE5FE9"/></g><text x="41" y="21" text-anchor="start" font-family="'Segoe UI',Helvetica,Arial,sans-serif" font-size="14" font-weight="600" fill="#eef2f7">uv</text></g><g transform="translate(188.5,0.5)"><rect width="122" height="33" rx="8" fill="#22303f" stroke="#3a4f6a"/><g transform="translate(13,9.04) scale(0.0777)"><path fill="#2d4552" d="M84.38 108.352c-9.556 2.712-15.826 7.467-19.956 12.218c3.956-3.461 9.255-6.639 16.402-8.665c7.311-2.072 13.548-2.057 18.702-1.062v-4.03c-4.397-.402-9.437-.082-15.148 1.539M63.987 74.475l-35.49 9.35s.646.914 1.844 2.133l30.092-7.93s-.427 5.495-4.13 10.41c7.005-5.299 7.684-13.963 7.684-13.963m29.709 83.41c-49.946 13.452-76.37-44.43-84.37-74.472c-3.696-13.868-5.31-24.37-5.74-31.148a11.5 11.5 0 0 1 .025-1.84C1.021 50.58-.22 51.927.032 55.82c.43 6.773 2.044 17.275 5.74 31.147c7.997 30.038 34.424 87.92 84.37 74.468c10.871-2.929 19.038-8.263 25.17-15.073c-5.652 5.104-12.724 9.123-21.616 11.523M103.08 39.05v3.555h19.59c-.401-1.259-.806-2.393-1.208-3.555z"/><path fill="#2d4552" d="M127.05 68.325c8.81 2.503 13.47 8.68 15.933 14.146l9.824 2.79s-1.34-19.132-18.645-24.047c-16.189-4.6-26.151 8.995-27.363 10.754c4.71-3.355 11.586-6.102 20.251-3.643m78.197 14.234c-16.204-4.62-26.162 9.003-27.356 10.737c4.713-3.351 11.586-6.099 20.247-3.629c8.797 2.506 13.452 8.676 15.923 14.146l9.837 2.8s-1.361-19.135-18.651-24.054m-9.76 50.443l-81.718-22.845s.885 4.485 4.279 10.293l68.803 19.234c5.664-3.277 8.636-6.682 8.636-6.682m-56.655 49.174C74.127 164.828 81.949 82.386 92.419 43.32c4.311-16.1 8.743-28.066 12.419-36.088c-2.193-.451-4.01.704-5.804 4.354C95.13 19.5 90.14 32.387 85.312 50.427c-10.467 39.066-18.29 121.506 46.412 138.854c30.497 8.17 54.256-4.247 71.966-23.749c-16.81 15.226-38.274 23.763-64.858 16.644"/><path fill="#e2574c" d="M103.081 138.565v-16.637l-46.223 13.108s3.415-19.846 27.522-26.684c7.311-2.072 13.549-2.058 18.701-1.063V39.05h23.145c-2.52-7.787-4.958-13.782-7.006-17.948c-3.387-6.895-6.859-2.324-14.741 4.269c-5.552 4.638-19.583 14.533-40.698 20.222c-21.114 5.694-38.185 4.184-45.307 2.95c-10.097-1.742-15.378-3.96-14.884 3.721c.43 6.774 2.043 17.277 5.74 31.148c7.996 30.039 34.424 87.92 84.37 74.468c13.046-3.515 22.254-10.464 28.637-19.32h-19.256zm-74.588-54.74l35.494-9.35s-1.034 13.654-14.34 17.162c-13.31 3.504-21.154-7.812-21.154-7.812"/><path fill="#2ead33" d="M236.664 39.84c-9.226 1.617-31.361 3.632-58.716-3.7c-27.363-7.328-45.517-20.144-52.71-26.168c-10.197-8.54-14.682-14.476-19.096-5.498c-3.902 7.918-8.893 20.805-13.723 38.846c-10.466 39.066-18.289 121.505 46.413 138.853c64.687 17.333 99.126-57.978 109.593-97.047c4.83-18.037 6.948-31.695 7.53-40.502c.665-9.976-6.187-7.08-19.29-4.784M106.668 72.161s10.196-15.859 27.49-10.943c17.305 4.915 18.645 24.046 18.645 24.046zm42.215 71.163c-30.419-8.91-35.11-33.167-35.11-33.167l81.714 22.846c0-.004-16.494 19.12-46.604 10.32m28.89-49.85s10.183-15.847 27.474-10.918c17.29 4.923 18.651 24.054 18.651 24.054z"/><path fill="#d65348" d="m86.928 126.51l-30.07 8.522s3.266-18.609 25.418-25.983L65.25 45.147l-1.471.447c-21.115 5.694-38.185 4.184-45.307 2.95c-10.097-1.741-15.379-3.96-14.885 3.722c.43 6.774 2.044 17.276 5.74 31.147c7.997 30.039 34.425 87.92 84.37 74.468l1.471-.462zM28.493 83.825l35.494-9.351s-1.034 13.654-14.34 17.162c-13.31 3.504-21.154-7.811-21.154-7.811"/><path fill="#1d8d22" d="m150.255 143.658l-1.376-.335c-30.419-8.91-35.11-33.166-35.11-33.166l42.137 11.778l22.308-85.724l-.27-.07c-27.362-7.329-45.516-20.145-52.71-26.17c-10.196-8.54-14.682-14.475-19.096-5.497c-3.898 7.918-8.889 20.805-13.719 38.846c-10.466 39.066-18.289 121.505 46.413 138.852l1.326.3zM106.668 72.16s10.196-15.859 27.49-10.943c17.305 4.915 18.645 24.046 18.645 24.046z"/><path fill="#c04b41" d="m88.46 126.072l-8.064 2.289c1.906 10.74 5.264 21.047 10.534 30.152c.918-.202 1.828-.376 2.762-.632c2.449-.66 4.72-1.479 6.906-2.371c-5.89-8.74-9.785-18.804-12.137-29.438m-3.148-75.644c-4.144 15.467-7.852 37.73-6.831 60.06c1.826-.793 3.756-1.532 5.9-2.14l1.492-.334c-1.82-23.852 2.114-48.157 6.546-64.694a323 323 0 0 1 3.373-11.704a105 105 0 0 1-5.974 3.547a307 307 0 0 0-4.506 15.265"/></g><text x="41" y="21" text-anchor="start" font-family="'Segoe UI',Helvetica,Arial,sans-serif" font-size="14" font-weight="600" fill="#eef2f7">Playwright</text></g><g transform="translate(318.5,0.5)"><rect width="73" height="33" rx="8" fill="#22303f" stroke="#3a4f6a"/><g transform="translate(13,6.56) scale(0.0777)"><path fill="#de4c36" d="M251.172 116.594L139.4 4.828c-6.433-6.437-16.873-6.437-23.314 0l-23.21 23.21l29.443 29.443c6.842-2.312 14.688-.761 20.142 4.693c5.48 5.489 7.02 13.402 4.652 20.266l28.375 28.376c6.865-2.365 14.786-.835 20.269 4.657c7.663 7.66 7.663 20.075 0 27.74c-7.665 7.666-20.08 7.666-27.749 0c-5.764-5.77-7.188-14.235-4.27-21.336l-26.462-26.462l-.003 69.637a19.8 19.8 0 0 1 5.188 3.71c7.663 7.66 7.663 20.076 0 27.747c-7.665 7.662-20.086 7.662-27.74 0c-7.663-7.671-7.663-20.086 0-27.746a19.7 19.7 0 0 1 6.421-4.281V94.196a19.4 19.4 0 0 1-6.421-4.281c-5.806-5.798-7.202-14.317-4.227-21.446L81.47 39.442L4.83 116.077c-6.44 6.443-6.44 16.884 0 23.322l111.774 111.768c6.435 6.438 16.873 6.438 23.316 0l111.251-111.249c6.438-6.44 6.438-16.887 0-23.324"/></g><text x="41" y="21" text-anchor="start" font-family="'Segoe UI',Helvetica,Arial,sans-serif" font-size="14" font-weight="600" fill="#eef2f7">Git</text></g><g transform="translate(399.5,0.5)"><rect width="111" height="33" rx="8" fill="#22303f" stroke="#3a4f6a"/><g transform="translate(13,6.64) scale(0.0777)"><defs><linearGradient id="ic17_SVG6Q5wMbNQ" x1="50%" x2="50%" y1="0%" y2="100%"><stop offset="0%" stop-color="#fff"/><stop offset="100%" stop-color="#fff" stop-opacity="0"/></linearGradient><path id="ic17_SVGWhZ12djk" d="M180.828 252.605a15.87 15.87 0 0 0 12.65-.486l52.501-25.262a15.94 15.94 0 0 0 9.025-14.364V41.197a15.94 15.94 0 0 0-9.025-14.363l-52.5-25.263a15.88 15.88 0 0 0-18.115 3.084L74.857 96.35l-43.78-33.232a10.614 10.614 0 0 0-13.56.603L3.476 76.494c-4.63 4.211-4.635 11.495-.012 15.713l37.967 34.638l-37.967 34.637c-4.623 4.219-4.618 11.502.012 15.714l14.041 12.772a10.614 10.614 0 0 0 13.56.604l43.78-33.233l100.507 91.695a15.85 15.85 0 0 0 5.464 3.571m10.464-183.649l-76.262 57.889l76.262 57.888z"/></defs><mask id="ic17_SVGSAQ58H2f" fill="#fff"><use href="#ic17_SVGWhZ12djk"/></mask><path fill="#0065a9" d="M246.135 26.873L193.593 1.575a15.885 15.885 0 0 0-18.123 3.08L3.466 161.482c-4.626 4.219-4.62 11.502.012 15.714l14.05 12.772a10.625 10.625 0 0 0 13.569.604L238.229 33.436c6.949-5.271 16.93-.315 16.93 8.407v-.61a15.94 15.94 0 0 0-9.024-14.36" mask="url(#ic17_SVGSAQ58H2f)"/><path fill="#007acc" d="m246.135 226.816l-52.542 25.298a15.89 15.89 0 0 1-18.123-3.08L3.466 92.207c-4.626-4.218-4.62-11.502.012-15.713l14.05-12.773a10.625 10.625 0 0 1 13.569-.603l207.132 157.135c6.949 5.271 16.93.315 16.93-8.408v.611a15.94 15.94 0 0 1-9.024 14.36" mask="url(#ic17_SVGSAQ58H2f)"/><path fill="#1f9cf0" d="M193.428 252.134a15.89 15.89 0 0 1-18.125-3.083c5.881 5.88 15.938 1.715 15.938-6.603V11.273c0-8.318-10.057-12.483-15.938-6.602a15.89 15.89 0 0 1 18.125-3.084l52.533 25.263a15.94 15.94 0 0 1 9.03 14.363V212.51c0 6.125-3.51 11.709-9.03 14.363z" mask="url(#ic17_SVGSAQ58H2f)"/><path fill="url(#ic17_SVG6Q5wMbNQ)" fill-opacity=".25" d="M180.828 252.605a15.87 15.87 0 0 0 12.65-.486l52.5-25.263a15.94 15.94 0 0 0 9.026-14.363V41.197a15.94 15.94 0 0 0-9.025-14.363L193.477 1.57a15.88 15.88 0 0 0-18.114 3.084L74.857 96.35l-43.78-33.232a10.614 10.614 0 0 0-13.56.603L3.476 76.494c-4.63 4.211-4.635 11.495-.012 15.713l37.967 34.638l-37.967 34.637c-4.623 4.219-4.618 11.502.012 15.714l14.041 12.772a10.614 10.614 0 0 0 13.56.604l43.78-33.233l100.506 91.695a15.9 15.9 0 0 0 5.465 3.571m10.464-183.65l-76.262 57.89l76.262 57.888z" mask="url(#ic17_SVGSAQ58H2f)"/></g><text x="41" y="21" text-anchor="start" font-family="'Segoe UI',Helvetica,Arial,sans-serif" font-size="14" font-weight="600" fill="#eef2f7">VS Code</text></g><g transform="translate(206.5,42.5)"><rect width="98" height="33" rx="8" fill="#22303f" stroke="#3a4f6a"/><g transform="translate(13,6.56) scale(0.0774)"><path fill="#d97757" d="m50.228 170.321l50.357-28.257l.843-2.463l-.843-1.361h-2.462l-8.426-.518l-28.775-.778l-24.952-1.037l-24.175-1.296l-6.092-1.297L0 125.796l.583-3.759l5.12-3.434l7.324.648l16.202 1.101l24.304 1.685l17.629 1.037l26.118 2.722h4.148l.583-1.685l-1.426-1.037l-1.101-1.037l-25.147-17.045l-27.22-18.017l-14.258-10.37l-7.713-5.25l-3.888-4.925l-1.685-10.758l7-7.713l9.397.649l2.398.648l9.527 7.323l20.35 15.75L94.817 91.9l3.889 3.24l1.555-1.102l.195-.777l-1.75-2.917l-14.453-26.118l-15.425-26.572l-6.87-11.018l-1.814-6.61c-.648-2.723-1.102-4.991-1.102-7.778l7.972-10.823L71.42 0l10.63 1.426l4.472 3.888l6.61 15.101l10.694 23.786l16.591 32.34l4.861 9.592l2.592 8.879l.973 2.722h1.685v-1.556l1.36-18.211l2.528-22.36l2.463-28.776l.843-8.1l4.018-9.722l7.971-5.25l6.222 2.981l5.12 7.324l-.713 4.73l-3.046 19.768l-5.962 30.98l-3.889 20.739h2.268l2.593-2.593l10.499-13.934l17.628-22.036l7.778-8.749l9.073-9.657l5.833-4.601h11.018l8.1 12.055l-3.628 12.443l-11.342 14.388l-9.398 12.184l-13.48 18.147l-8.426 14.518l.778 1.166l2.01-.194l30.46-6.481l16.462-2.982l19.637-3.37l8.88 4.148l.971 4.213l-3.5 8.62l-20.998 5.184l-24.628 4.926l-36.682 8.685l-.454.324l.519.648l16.526 1.555l7.065.389h17.304l32.21 2.398l8.426 5.574l5.055 6.805l-.843 5.184l-12.962 6.611l-17.498-4.148l-40.83-9.721l-14-3.5h-1.944v1.167l11.666 11.406l21.387 19.314l26.767 24.887l1.36 6.157l-3.434 4.86l-3.63-.518l-23.526-17.693l-9.073-7.972l-20.545-17.304h-1.36v1.814l4.73 6.935l25.017 37.59l1.296 11.536l-1.814 3.76l-6.481 2.268l-7.13-1.297l-14.647-20.544l-15.1-23.138l-12.185-20.739l-1.49.843l-7.194 77.448l-3.37 3.953l-7.778 2.981l-6.48-4.925l-3.436-7.972l3.435-15.749l4.148-20.544l3.37-16.333l3.046-20.285l1.815-6.74l-.13-.454l-1.49.194l-15.295 20.999l-23.267 31.433l-18.406 19.702l-4.407 1.75l-7.648-3.954l.713-7.064l4.277-6.286l25.47-32.405l15.36-20.092l9.917-11.6l-.065-1.686h-.583L44.07 198.125l-12.055 1.555l-5.185-4.86l.648-7.972l2.463-2.593l20.35-13.999z"/></g><text x="41" y="21" text-anchor="start" font-family="'Segoe UI',Helvetica,Arial,sans-serif" font-size="14" font-weight="600" fill="#eef2f7">Claude</text></g></svg>
